<svg width="33" height="32" viewBox="0 0 33 32" fill="none" xmlns="http://www.w3.org/2000/svg">
<path d="M14.963 0.72188L18.4972 2.76235C17.5296 2.91279 16.5833 3.24061 15.7083 3.74581L15.2878 3.98859L13.6296 3.03128C12.7876 2.54513 11.7502 2.54513 10.9081 3.03128L4.02743 7.00385C3.18539 7.49001 2.66667 8.38846 2.66667 9.36076V17.3059C2.66667 18.2782 3.18539 19.1767 4.02743 19.6628L4.80013 20.1089V22.6392C4.80013 22.827 4.80666 23.0138 4.81957 23.1994L2.6941 21.9722C1.02698 21.0097 0 19.2309 0 17.3059V9.36076C0 7.43575 1.02698 5.65696 2.6941 4.69445L9.57479 0.721881C11.2419 -0.240627 13.2959 -0.240627 14.963 0.72188Z" fill="#F8F8F8"/>
<path fill-rule="evenodd" clip-rule="evenodd" d="M29.3105 10.0278L22.4298 6.05521C20.7627 5.09271 18.7087 5.09271 17.0416 6.05521L10.1609 10.0278C8.49378 10.9903 7.4668 12.7691 7.4668 14.6941V22.6392C7.4668 24.5643 8.49378 26.343 10.1609 27.3055L17.0416 31.2781C18.7087 32.2406 20.7627 32.2406 22.4298 31.2781L29.3105 27.3055C30.9776 26.343 32.0046 24.5643 32.0046 22.6392V14.6941C32.0046 12.7691 30.9776 10.9903 29.3105 10.0278ZM18.3749 8.36462C19.217 7.87846 20.2544 7.87846 21.0964 8.36462L27.9771 12.3372C28.8192 12.8233 29.3379 13.7218 29.3379 14.6941V18.6667V22.6392C29.3379 23.6115 28.8192 24.51 27.9771 24.9961L21.0964 28.9687C20.2544 29.4549 19.217 29.4549 18.3749 28.9687L11.4942 24.9961C10.6522 24.51 10.1335 23.6115 10.1335 22.6392V18.6667V14.6941C10.1335 13.7218 10.6522 12.8233 11.4942 12.3372L18.3749 8.36462Z" fill="#F8F8F8"/>
<path d="M21.1122 13.9573C21.1122 13.1784 20.4807 12.5469 19.7017 12.5469C18.9228 12.5469 18.2913 13.1784 18.2913 13.9573V17.2249H15.0238C14.2448 17.2249 13.6133 17.8563 13.6133 18.6353C13.6133 19.4143 14.2448 20.0458 15.0238 20.0458H18.2913V23.3788C18.2913 24.1578 18.9228 24.7893 19.7017 24.7893C20.4807 24.7893 21.1122 24.1578 21.1122 23.3788V20.0458H24.4452C25.2242 20.0458 25.8557 19.4143 25.8557 18.6353C25.8557 17.8563 25.2242 17.2249 24.4452 17.2249H21.1122V13.9573Z" fill="#F8F8F8"/>
</svg>
