<svg width="32" height="32" viewBox="0 0 32 32" fill="none" xmlns="http://www.w3.org/2000/svg">
<path fill-rule="evenodd" clip-rule="evenodd" d="M4 21.1763C4 21.5159 4.11554 21.8463 4.32788 22.1111L7.57862 26.2962C7.73475 26.4988 7.84093 26.7294 7.90338 26.9725C7.95959 27.1875 8.15632 27.334 8.38115 27.334H12.4938C12.7686 27.334 12.9934 27.1096 12.9934 26.8354V23.3452C12.9934 22.482 12.7123 21.6437 12.194 20.9519L10.3953 18.5586L10.3929 18.5555L10.3915 18.5537C10.0595 18.1186 9.43496 18.0301 8.99633 18.3592C8.78045 18.5211 8.64864 18.7543 8.60938 19.0016C8.56857 19.2588 8.62776 19.5313 8.79647 19.7553L9.98622 21.3383C9.99055 21.3441 9.99474 21.3499 9.99878 21.3558C10.0007 21.3586 10.0027 21.3615 10.0045 21.3644C10.0087 21.3707 10.0128 21.3772 10.0166 21.3837C10.132 21.5781 10.1013 21.828 9.93938 21.9896L9.53968 22.3885C9.33046 22.5973 8.99008 22.5817 8.80272 22.3542L5.99853 18.9949V14.3704C5.99853 13.8188 5.55198 13.3732 4.99927 13.3732C4.44655 13.3732 4 13.8188 4 14.3704V21.1763ZM7.99853 16.6199V14.3704C7.99853 12.7104 6.65264 11.3732 4.99927 11.3732C3.34589 11.3732 2 12.7104 2 14.3704V21.1763C2 21.9624 2.26504 22.7286 2.75583 23.3476L5.9705 27.4863C6.26971 28.616 7.29017 29.334 8.38115 29.334H12.4938C13.8692 29.334 14.9934 28.2181 14.9934 26.8354V23.3452C14.9934 22.0463 14.5703 20.7879 13.7945 19.7526L11.9941 17.357L11.9927 17.3552C11.0504 16.1043 9.30774 15.7942 7.99853 16.6199ZM10.3953 18.5537L10.3977 18.5568L10.3953 18.5537Z" fill="url(#paint0_linear_5248_883)"/>
<path fill-rule="evenodd" clip-rule="evenodd" d="M27.9987 21.1763C27.9987 21.5159 27.8832 21.8463 27.6708 22.1111L24.4201 26.2962C24.2639 26.4988 24.1578 26.7294 24.0953 26.9725C24.0391 27.1875 23.8424 27.334 23.6175 27.334H19.5049C19.2301 27.334 19.0053 27.1096 19.0053 26.8354V23.3452C19.0053 22.482 19.2864 21.6437 19.8047 20.9519L21.6034 18.5586L21.6058 18.5555L21.6072 18.5537C21.9392 18.1186 22.5637 18.0301 23.0024 18.3592C23.2183 18.5211 23.3501 18.7543 23.3893 19.0016C23.4301 19.2588 23.3709 19.5313 23.2022 19.7553L22.0125 21.3383C22.0081 21.3441 22.004 21.3499 21.9999 21.3558C21.998 21.3586 21.996 21.3615 21.9942 21.3644C21.99 21.3707 21.9859 21.3772 21.9821 21.3837C21.8666 21.5781 21.8974 21.828 22.0593 21.9896L22.459 22.3885C22.6682 22.5973 23.0086 22.5817 23.196 22.3542L26.0002 18.9949V14.3704C26.0002 13.8188 26.4467 13.3732 26.9994 13.3732C27.5522 13.3732 27.9987 13.8188 27.9987 14.3704V21.1763ZM24.0002 16.6199V14.3704C24.0002 12.7104 25.3461 11.3732 26.9994 11.3732C28.6528 11.3732 29.9987 12.7104 29.9987 14.3704V21.1763C29.9987 21.9624 29.7337 22.7286 29.2429 23.3476L26.0282 27.4863C25.729 28.616 24.7085 29.334 23.6175 29.334H19.5049C18.1295 29.334 17.0053 28.2181 17.0053 26.8354V23.3452C17.0053 22.0463 17.4284 20.7879 18.2042 19.7526L20.0046 17.357L20.006 17.3552C20.9483 16.1043 22.691 15.7942 24.0002 16.6199Z" fill="url(#paint1_linear_5248_883)"/>
<path fill-rule="evenodd" clip-rule="evenodd" d="M22.6667 10.0002C22.6667 13.6821 19.6819 16.6668 16 16.6668C12.3181 16.6668 9.33333 13.6821 9.33333 10.0002C9.33333 6.31826 12.3181 3.3335 16 3.3335C19.6819 3.3335 22.6667 6.31826 22.6667 10.0002ZM16.3058 6.81638C16.1172 6.70639 15.8841 6.70639 15.6955 6.81638L13.3942 8.15881C13.2082 8.26734 13.0937 8.46652 13.0937 8.68192V11.3171C13.0937 11.5325 13.2082 11.7316 13.3942 11.8402L15.6955 13.1826C15.8841 13.2926 16.1172 13.2926 16.3058 13.1826L18.6071 11.8402C18.7932 11.7316 18.9076 11.5325 18.9076 11.3171V8.68192C18.9076 8.46652 18.7932 8.26734 18.6071 8.15881L16.3058 6.81638Z" fill="url(#paint2_linear_5248_883)"/>
<defs>
<linearGradient id="paint0_linear_5248_883" x1="2" y1="3.3335" x2="27.9293" y2="31.2556" gradientUnits="userSpaceOnUse">
<stop stop-color="#2AD0CA"/>
<stop offset="0.0918579" stop-color="#7EE19B"/>
<stop offset="0.200521" stop-color="#E1F664"/>
<stop offset="0.398438" stop-color="#FEB0FE"/>
<stop offset="0.622396" stop-color="#ABB3FC"/>
<stop offset="0.809896" stop-color="#5DF7A4"/>
<stop offset="1" stop-color="#58C4F6"/>
</linearGradient>
<linearGradient id="paint1_linear_5248_883" x1="2" y1="3.3335" x2="27.9293" y2="31.2556" gradientUnits="userSpaceOnUse">
<stop stop-color="#2AD0CA"/>
<stop offset="0.0918579" stop-color="#7EE19B"/>
<stop offset="0.200521" stop-color="#E1F664"/>
<stop offset="0.398438" stop-color="#FEB0FE"/>
<stop offset="0.622396" stop-color="#ABB3FC"/>
<stop offset="0.809896" stop-color="#5DF7A4"/>
<stop offset="1" stop-color="#58C4F6"/>
</linearGradient>
<linearGradient id="paint2_linear_5248_883" x1="2" y1="3.3335" x2="27.9293" y2="31.2556" gradientUnits="userSpaceOnUse">
<stop stop-color="#2AD0CA"/>
<stop offset="0.0918579" stop-color="#7EE19B"/>
<stop offset="0.200521" stop-color="#E1F664"/>
<stop offset="0.398438" stop-color="#FEB0FE"/>
<stop offset="0.622396" stop-color="#ABB3FC"/>
<stop offset="0.809896" stop-color="#5DF7A4"/>
<stop offset="1" stop-color="#58C4F6"/>
</linearGradient>
</defs>
</svg>
