<svg width="32" height="32" viewBox="0 0 32 32" fill="none" xmlns="http://www.w3.org/2000/svg">
<path fill-rule="evenodd" clip-rule="evenodd" d="M16 32C24.8366 32 32 24.8366 32 16C32 7.16344 24.8366 0 16 0C7.16344 0 0 7.16344 0 16C0 24.8366 7.16344 32 16 32ZM16.5893 9.84443C16.2247 9.63172 15.7738 9.63172 15.4091 9.84443L10.9587 12.4405C10.5989 12.6504 10.3776 13.0356 10.3776 13.4522V18.5482C10.3776 18.9648 10.5989 19.35 10.9587 19.5599L15.4091 22.156C15.7738 22.3687 16.2247 22.3687 16.5893 22.156L21.0398 19.5599C21.3996 19.35 21.6208 18.9648 21.6208 18.5482V13.4522C21.6208 13.0356 21.3996 12.6504 21.0398 12.4405L16.5893 9.84443Z" fill="url(#paint0_linear_5248_875)"/>
<path opacity="0.16" fill-rule="evenodd" clip-rule="evenodd" d="M15.9999 29.5999C16.1497 29.5999 16.299 29.5975 16.4477 29.5927L16.4625 26.2775C16.4665 25.3867 16.9433 24.5651 17.7148 24.1197L22.1281 21.5717C22.8995 21.1263 23.8495 21.1242 24.6229 21.5661L27.5246 23.2242C27.6994 22.9459 27.8644 22.6608 28.0192 22.3694L25.1323 20.6854C24.3628 20.2366 23.8897 19.4128 23.8897 18.5221V13.426C23.8897 12.5352 24.3628 11.7115 25.1323 11.2627L27.9981 9.5909C27.8495 9.31323 27.6915 9.04132 27.5246 8.77559L24.6229 10.4336C23.8495 10.8755 22.8995 10.8734 22.1281 10.428L17.7148 7.88C16.9433 7.43462 16.4665 6.61301 16.4625 5.72225L16.4477 2.40714C16.299 2.40233 16.1497 2.3999 15.9999 2.3999C15.8499 2.3999 15.7004 2.40233 15.5515 2.40715L15.5367 5.72225C15.5327 6.61301 15.0559 7.43462 14.2845 7.88L9.87113 10.428C9.0997 10.8734 8.14976 10.8755 7.37634 10.4336L4.47507 8.77584C4.30026 9.05413 4.13525 9.33921 3.98052 9.63058L6.86697 11.3143C7.63639 11.7632 8.10953 12.5869 8.10953 13.4777V18.5737C8.10953 19.4645 7.6364 20.2882 6.86697 20.7371L4.00152 22.4086C4.15014 22.6863 4.30812 22.9582 4.47504 23.2239L7.37634 21.5661C8.14976 21.1242 9.0997 21.1263 9.87113 21.5717L14.2845 24.1197C15.0559 24.5651 15.5327 25.3867 15.5367 26.2775L15.5515 29.5927C15.7004 29.5975 15.8499 29.5999 15.9999 29.5999ZM26.7576 24.3215C24.6132 27.0896 21.4241 29.0076 17.7815 29.4843L17.7959 26.2835C17.7977 25.8669 18.0207 25.4827 18.3814 25.2744L22.7948 22.7264C23.1555 22.5181 23.5997 22.5171 23.9614 22.7238L26.7576 24.3215ZM29.5999 15.9999C29.5999 17.8255 29.2402 19.567 28.5878 21.1575L25.8041 19.5337C25.4443 19.3238 25.223 18.9386 25.223 18.5221V13.426C25.223 13.0094 25.4443 12.6242 25.8041 12.4144L28.5706 10.8005C29.2339 12.4023 29.5999 14.1584 29.5999 15.9999ZM17.7815 2.51555C21.4241 2.99216 24.6132 4.91015 26.7576 7.67822L23.9614 9.27594C23.5997 9.4826 23.1555 9.48161 22.7948 9.27333L18.3814 6.7253C18.0207 6.51702 17.7977 6.13282 17.7959 5.71628L17.7815 2.51555ZM5.24207 7.67845C7.38635 4.9104 10.5753 2.99237 14.2177 2.51563L14.2034 5.71628C14.2015 6.13282 13.9785 6.51702 13.6178 6.7253L9.20446 9.27333C8.84372 9.48161 8.3995 9.4826 8.03784 9.27594L5.24207 7.67845ZM2.3999 15.9999C2.3999 14.1744 2.75956 12.433 3.41188 10.8425L6.19514 12.466C6.55494 12.6759 6.77619 13.0611 6.77619 13.4777V18.5737C6.77619 18.9903 6.55494 19.3755 6.19514 19.5854L3.42903 21.1989C2.76587 19.5973 2.3999 17.8413 2.3999 15.9999ZM14.2177 29.4842C10.5753 29.0074 7.38631 27.0894 5.24203 24.3213L8.03784 22.7238C8.3995 22.5171 8.84372 22.5181 9.20446 22.7264L13.6178 25.2744C13.9785 25.4827 14.2015 25.8669 14.2034 26.2835L14.2177 29.4842ZM17.2626 8.69223L21.7131 11.2883C22.4825 11.7372 22.9556 12.5609 22.9556 13.4517V18.5477C22.9556 19.4385 22.4825 20.2622 21.7131 20.7111L17.2626 23.3072C16.4828 23.7621 15.5185 23.7621 14.7387 23.3072L10.2883 20.7111C9.51885 20.2622 9.04572 19.4385 9.04572 18.5477V13.4517C9.04572 12.5609 9.51885 11.7372 10.2883 11.2883L14.7387 8.69223C15.5185 8.23734 16.4828 8.23735 17.2626 8.69223Z" fill="#25174E"/>
<defs>
<linearGradient id="paint0_linear_5248_875" x1="0" y1="0" x2="32" y2="32" gradientUnits="userSpaceOnUse">
<stop stop-color="#2AD0CA"/>
<stop offset="0.0918579" stop-color="#7EE19B"/>
<stop offset="0.200521" stop-color="#E1F664"/>
<stop offset="0.398438" stop-color="#FEB0FE"/>
<stop offset="0.622396" stop-color="#ABB3FC"/>
<stop offset="0.809896" stop-color="#5DF7A4"/>
<stop offset="1" stop-color="#58C4F6"/>
</linearGradient>
</defs>
</svg>
