<svg width="32" height="32" viewBox="0 0 32 32" fill="none" xmlns="http://www.w3.org/2000/svg">
<rect width="32" height="32" rx="16" fill="#25174E"/>
<path d="M10.5449 19.7934C10.1735 19.1003 9.97516 18.3977 9.87047 17.8461H22.1304C22.0257 18.3977 21.8273 19.1003 21.456 19.7934C21.0695 20.515 20.5011 21.2171 19.657 21.7423C18.8158 22.2657 17.646 22.6477 16.0004 22.6477C14.3549 22.6477 13.1851 22.2657 12.3439 21.7423C11.4998 21.2171 10.9314 20.515 10.5449 19.7934Z" fill="#FFEF42"/>
<path fill-rule="evenodd" clip-rule="evenodd" d="M16 32C24.8366 32 32 24.8366 32 16C32 7.16344 24.8366 0 16 0C7.16344 0 0 7.16344 0 16C0 24.8366 7.16344 32 16 32ZM16.9712 3.44235C17.0527 2.91829 17.5437 2.55956 18.0677 2.64112C19.1219 2.80516 20.1552 3.09448 21.1454 3.50462C22.7766 4.18027 24.2587 5.17058 25.5071 6.41901C26.7555 7.66745 27.7458 9.14955 28.4215 10.7807C29.0971 12.4119 29.4449 14.1601 29.4449 15.9257C29.4449 17.6151 29.1265 19.2887 28.507 20.859C28.3124 21.3524 27.7547 21.5946 27.2613 21.4C26.768 21.2054 26.5258 20.6476 26.7204 20.1543C27.2513 18.8083 27.5242 17.3738 27.5242 15.9257C27.5242 14.4123 27.2262 12.9138 26.647 11.5157C26.0679 10.1176 25.2191 8.84719 24.149 7.77711C23.0789 6.70702 21.8085 5.85818 20.4104 5.27906C19.5617 4.92751 18.676 4.67952 17.7724 4.53891C17.2483 4.45736 16.8896 3.96641 16.9712 3.44235ZM15.0265 3.44259C15.1082 3.96663 14.7496 4.45767 14.2256 4.53936C13.323 4.68005 12.4383 4.92788 11.5905 5.27906C10.1923 5.85818 8.92196 6.70702 7.85187 7.77711C6.78179 8.84719 5.93295 10.1176 5.35382 11.5157C4.7747 12.9138 4.47662 14.4123 4.47662 15.9257C4.47662 17.3732 4.74935 18.8072 5.27989 20.1527C5.47444 20.6461 5.23217 21.2038 4.73877 21.3984C4.24537 21.5929 3.68768 21.3507 3.49314 20.8573C2.87416 19.2875 2.55599 17.6145 2.55599 15.9257C2.55599 14.1601 2.90374 12.4119 3.57939 10.7807C4.25503 9.14955 5.24535 7.66744 6.49378 6.41901C7.74221 5.17058 9.22431 4.18027 10.8555 3.50462C11.8446 3.09491 12.8768 2.80578 13.9298 2.64164C14.4538 2.55995 14.9449 2.91855 15.0265 3.44259ZM9.84075 10.7261C10.2009 10.3659 10.6895 10.1636 11.1988 10.1636C11.7082 10.1636 12.1968 10.3659 12.5569 10.7261C12.9171 11.0863 13.1195 11.5748 13.1195 12.0842C13.1195 12.6146 12.6895 13.0445 12.1592 13.0445C11.6288 13.0445 11.1988 12.6146 11.1988 12.0842C11.1988 12.6146 10.7689 13.0445 10.2385 13.0445C9.70816 13.0445 9.27821 12.6146 9.27821 12.0842C9.27821 11.5748 9.48056 11.0863 9.84075 10.7261ZM19.4439 10.7261C19.8041 10.3659 20.2926 10.1636 20.802 10.1636C21.3114 10.1636 21.7999 10.3659 22.1601 10.7261C22.5203 11.0863 22.7227 11.5748 22.7227 12.0842C22.7227 12.6146 22.2927 13.0445 21.7623 13.0445C21.232 13.0445 20.802 12.6146 20.802 12.0842C20.802 12.6146 20.3721 13.0445 19.8417 13.0445C19.3113 13.0445 18.8814 12.6146 18.8814 12.0842C18.8814 11.5748 19.0837 11.0863 19.4439 10.7261ZM5.72134 23.0752C6.13224 22.7399 6.73718 22.8011 7.07253 23.212C7.31719 23.5118 7.57724 23.7996 7.85187 24.0742C8.92196 25.1443 10.1923 25.9932 11.5905 26.5723C12.9886 27.1514 14.4871 27.4495 16.0004 27.4495C17.5138 27.4495 19.0123 27.1514 20.4104 26.5723C21.8085 25.9932 23.0789 25.1443 24.149 24.0742C24.4232 23.8 24.6829 23.5126 24.9273 23.2133C25.2627 22.8024 25.8677 22.7413 26.2785 23.0767C26.6894 23.4121 26.7505 24.017 26.4151 24.4279C26.13 24.7771 25.827 25.1124 25.5071 25.4323C24.2587 26.6808 22.7766 27.6711 21.1454 28.3467C19.5142 29.0224 17.766 29.3701 16.0004 29.3701C14.2349 29.3701 12.4866 29.0224 10.8555 28.3467C9.22431 27.6711 7.74221 26.6808 6.49378 25.4323C6.17338 25.1119 5.86999 24.7761 5.58455 24.4264C5.2492 24.0155 5.31045 23.4106 5.72134 23.0752ZM7.83774 16.8858C7.83774 16.3554 8.26768 15.9255 8.79805 15.9255H23.2028C23.7332 15.9255 24.1631 16.3554 24.1631 16.8858L24.1631 16.8881L24.1631 16.8911L24.1631 16.8989L24.1628 16.9217C24.1625 16.9401 24.1619 16.9649 24.1608 16.9956C24.1586 17.057 24.1544 17.1422 24.1463 17.2479C24.1301 17.4591 24.0983 17.7539 24.0356 18.105C23.911 18.8028 23.6601 19.7464 23.149 20.7004C22.6353 21.6595 21.8532 22.6379 20.6716 23.3731C19.4872 24.1101 17.9561 24.5684 16.0004 24.5684C14.0448 24.5684 12.5137 24.1101 11.3292 23.3731C10.1476 22.6379 9.36562 21.6595 8.85185 20.7004C8.34078 19.7464 8.08984 18.8028 7.96523 18.105C7.90254 17.7539 7.87076 17.4591 7.8546 17.2479C7.84651 17.1422 7.8423 17.057 7.84011 16.9956C7.83901 16.9649 7.83842 16.9401 7.8381 16.9217L7.8378 16.8989L7.83775 16.8911L7.83774 16.8881L7.83774 16.8858Z" fill="#FFEF42"/>
</svg>
