<svg width="256" height="256" viewBox="0 0 256 256" fill="none" xmlns="http://www.w3.org/2000/svg">
<g opacity="0.5">
<path opacity="0.5" d="M202.839 94.1495C201.818 91.9112 199.071 91.1295 196.94 92.3683L178.579 103.045C177.25 103.817 176.434 105.235 176.434 106.768V149.231C176.434 150.765 177.25 152.182 178.579 152.955L196.94 163.631C199.071 164.87 201.818 164.088 202.839 161.85C207.543 151.533 210.163 140.071 210.163 128C210.163 115.928 207.543 104.467 202.839 94.1495Z" fill="#F8F8F8"/>
<path opacity="0.5" d="M195.454 174.774C196.845 172.784 196.16 170.067 194.058 168.845L175.153 157.853C173.807 157.07 172.142 157.07 170.796 157.853L133.606 179.477C132.278 180.249 131.461 181.667 131.461 183.2V205.334C131.461 207.784 133.512 209.753 135.959 209.518C160.585 207.159 182.035 193.965 195.454 174.774Z" fill="#F8F8F8"/>
</g>
<g opacity="0.88">
<path opacity="0.88" d="M135.957 46.476C133.51 46.2416 131.459 48.2102 131.459 50.6608V72.7942C131.459 74.3273 132.276 75.745 133.604 76.5175L170.794 98.1416C172.14 98.9245 173.805 98.9245 175.151 98.1416L194.056 87.1495C196.158 85.9273 196.843 83.2102 195.452 81.2203C182.033 62.0298 160.583 48.835 135.957 46.476Z" fill="#F8F8F8"/>
<path opacity="0.88" d="M124.539 50.6608C124.539 48.2102 122.489 46.2416 120.041 46.476C95.4153 48.835 73.9651 62.0298 60.5465 81.2203C59.1551 83.2102 59.8406 85.9273 61.9425 87.1495L80.8467 98.1416C82.1931 98.9245 83.8581 98.9245 85.2045 98.1416L122.394 76.5175C123.722 75.745 124.539 74.3273 124.539 72.7942V50.6608Z" fill="#F8F8F8"/>
<path opacity="0.88" d="M59.0589 163.627C56.9283 164.866 54.1808 164.084 53.1603 161.846C48.456 151.529 45.8359 140.067 45.8359 127.996C45.8359 115.924 48.456 104.463 53.1603 94.1456C54.1808 91.9073 56.9283 91.1256 59.0589 92.3644L77.4202 103.041C78.7488 103.813 79.5657 105.231 79.5657 106.764V149.228C79.5657 150.761 78.7488 152.178 77.4202 152.951L59.0589 163.627Z" fill="#F8F8F8"/>
</g>
<path d="M132.36 82.6861C129.667 81.1203 126.337 81.1203 123.644 82.6861L90.7791 101.796C88.1221 103.341 86.4883 106.176 86.4883 109.242V146.754C86.4883 149.82 88.1221 152.656 90.7791 154.201L123.644 173.31C126.337 174.876 129.667 174.876 132.36 173.31L165.224 154.201C167.881 152.656 169.515 149.82 169.515 146.754V109.242C169.515 106.176 167.881 103.341 165.224 101.796L132.36 82.6861Z" fill="#F8F8F8"/>
<path fill-rule="evenodd" clip-rule="evenodd" d="M40.5644 167.555C35.0592 155.481 32 142.077 32 127.998C32 113.919 35.0592 100.514 40.5644 88.4404C41.5594 86.2582 42.9331 84.369 44.5838 82.8198C45.4399 82.0162 46.1432 80.7852 46.3985 79.6466C46.8929 77.4418 47.8213 75.3008 49.1955 73.3356C64.8513 50.9457 89.908 35.5082 118.719 32.7483C121.2 32.5106 123.61 32.7819 125.846 33.4887C127.141 33.8978 128.859 33.8978 130.154 33.4887C132.39 32.7819 134.8 32.5106 137.281 32.7483C166.092 35.5082 191.149 50.9456 206.805 73.3356C208.179 75.3007 209.107 77.4419 209.602 79.6466C209.857 80.7852 210.56 82.0162 211.416 82.8198C213.067 84.369 214.441 86.2583 215.436 88.4405C220.941 100.514 224 113.919 224 127.998C224 142.077 220.941 155.482 215.436 167.555C214.441 169.738 213.067 171.627 211.416 173.176C210.56 173.98 209.857 175.211 209.601 176.349C209.107 178.554 208.179 180.695 206.805 182.66C191.149 205.05 166.092 220.488 137.281 223.248C131.063 223.843 125.542 221.245 121.977 217.081C121.832 216.912 121.699 216.777 121.584 216.675C121.562 216.656 121.542 216.638 121.522 216.622C121.5 216.603 121.479 216.586 121.46 216.571C121.453 216.566 121.447 216.561 121.44 216.556C93.5036 214.527 69.1659 199.66 54.3091 177.901C54.2637 177.882 54.2057 177.86 54.1339 177.836C53.9875 177.788 53.8041 177.741 53.5849 177.7C48.1801 176.707 43.1548 173.237 40.5644 167.555ZM136.619 39.6134C163.337 42.1728 186.591 56.4888 201.128 77.2792C201.986 78.5062 202.55 79.8182 202.849 81.151C203.407 83.6385 204.812 86.0938 206.673 87.841C207.67 88.7769 208.515 89.9303 209.137 91.2941C214.241 102.49 217.081 114.923 217.081 127.998C217.081 141.073 214.241 153.506 209.137 164.702C208.515 166.066 207.67 167.219 206.673 168.155C204.812 169.902 203.407 172.357 202.849 174.845C202.55 176.178 201.986 177.49 201.128 178.717C186.591 199.507 163.337 213.823 136.619 216.382C132.799 216.748 129.44 215.174 127.24 212.604C125.945 211.091 124.235 209.836 122.244 209.699C96.2608 207.906 73.6106 194.071 59.8603 173.772C58.7443 172.125 56.8007 171.278 54.8395 170.918C51.5056 170.305 48.4548 168.192 46.8633 164.702C41.7586 153.506 38.9189 141.073 38.9189 127.998C38.9189 114.923 41.7586 102.49 46.8633 91.294C47.4851 89.9303 48.3296 88.7769 49.3268 87.841C51.1885 86.0938 52.593 83.6385 53.1508 81.151C53.4497 79.8182 54.0137 78.5062 54.8717 77.2792C69.409 56.4888 92.6626 42.1728 119.381 39.6134C120.93 39.4649 122.404 39.6358 123.755 40.0629C126.411 40.9021 129.589 40.9021 132.245 40.0629C133.596 39.6358 135.07 39.4649 136.619 39.6134Z" fill="#F8F8F8"/>
</svg>
