<svg width="106" height="40" viewBox="0 0 106 40" fill="none" xmlns="http://www.w3.org/2000/svg">
<path d="M1 20L33 20" stroke="url(#paint0_linear_4515_2995)" stroke-width="2" stroke-linecap="round" stroke-dasharray="2 4"/>
<path fill-rule="evenodd" clip-rule="evenodd" d="M53 10C47.4772 10 43 14.4772 43 20C43 25.5228 47.4772 30 53 30C58.5228 30 63 25.5228 63 20C63 14.4772 58.5228 10 53 10ZM50.2457 12.0965C51.1083 11.796 52.0351 11.6327 53 11.6327C53.7083 11.6327 54.396 11.7207 55.0528 11.8863V13.5371L52.5963 14.9554L50.2457 13.5983V12.0965ZM48.6131 12.8735C47.6676 13.4567 46.847 14.2229 46.2005 15.1226C46.5651 15.3678 46.7865 15.7797 46.7865 16.2232V19.1023L49.4695 20.6513C49.8799 20.8883 50.1327 21.3262 50.1327 21.8001V24.9289C50.1327 25.4029 49.8799 25.8408 49.4695 26.0778L48.1658 26.8304C49.2029 27.5658 50.4148 28.0708 51.727 28.2711V27.3771C51.727 26.9031 51.9798 26.4652 52.3902 26.2283L55.0999 24.6638C55.5103 24.4269 56.016 24.4269 56.4264 24.6638L58.7979 26.033C59.96 24.9159 60.8001 23.4663 61.165 21.8371L58.9932 20.5833L56.4264 22.0652C56.016 22.3022 55.5103 22.3022 55.0999 22.0652L52.3903 20.5008C51.9798 20.2638 51.727 19.8259 51.727 19.352V16.3387L49.2764 14.9238C48.8659 14.6869 48.6131 14.249 48.6131 13.775V12.8735ZM61.3671 20.0686C61.3673 20.0457 61.3673 20.0229 61.3673 20C61.3673 18.5989 61.023 17.2781 60.4142 16.1179L59.8198 16.4611V19.1753L61.3671 20.0686ZM59.4827 14.7093C58.7294 13.7874 57.7833 13.0291 56.7059 12.496V13.5983L59.0565 14.9554L59.4827 14.7093ZM57.4061 27.1147L55.7632 26.1661L53.3596 27.5538V28.3598C54.8405 28.2971 56.2218 27.8496 57.4061 27.1147ZM46.8688 25.694L48.5001 24.7522V21.9769L46.0965 20.5892L44.7442 21.3699C45.0169 23.0255 45.7756 24.5174 46.8688 25.694ZM44.6494 19.4665L45.1538 19.1753V17.0866C44.8757 17.8352 44.7018 18.6343 44.6494 19.4665ZM55.8162 15.0428L53.3596 16.4611V19.1753L55.7632 20.5629L58.1667 19.1753V16.3999L55.8162 15.0428Z" fill="white" fill-opacity="0.5"/>
<path d="M105 20L73 20" stroke="url(#paint1_linear_4515_2995)" stroke-width="2" stroke-linecap="round" stroke-dasharray="2 4"/>
<defs>
<linearGradient id="paint0_linear_4515_2995" x1="1" y1="19.5" x2="33" y2="19.5" gradientUnits="userSpaceOnUse">
<stop stop-color="#9133F5"/>
<stop offset="1" stop-color="#93EF9C"/>
</linearGradient>
<linearGradient id="paint1_linear_4515_2995" x1="105" y1="19.5" x2="73" y2="19.5" gradientUnits="userSpaceOnUse">
<stop stop-color="#9133F5"/>
<stop offset="1" stop-color="#93EF9C"/>
</linearGradient>
</defs>
</svg>
