<svg width="48" height="48" viewBox="0 0 48 48" fill="none" xmlns="http://www.w3.org/2000/svg">
<path fill-rule="evenodd" clip-rule="evenodd" d="M24 40C32.8366 40 40 32.8366 40 24C40 15.1634 32.8366 8 24 8C15.1634 8 8 15.1634 8 24C8 32.8366 15.1634 40 24 40ZM24.5893 17.8444C24.2247 17.6317 23.7738 17.6317 23.4091 17.8444L18.9587 20.4405C18.5989 20.6504 18.3776 21.0356 18.3776 21.4522V26.5482C18.3776 26.9648 18.5989 27.35 18.9587 27.5599L23.4091 30.156C23.7738 30.3687 24.2247 30.3687 24.5893 30.156L29.0398 27.5599C29.3996 27.35 29.6208 26.9648 29.6208 26.5482V21.4522C29.6208 21.0356 29.3996 20.6504 29.0398 20.4405L24.5893 17.8444Z" fill="url(#paint0_linear_4515_2989)"/>
<path opacity="0.16" fill-rule="evenodd" clip-rule="evenodd" d="M23.9999 37.6004C24.1497 37.6004 24.299 37.598 24.4477 37.5932L24.4625 34.278C24.4665 33.3872 24.9433 32.5656 25.7148 32.1202L30.1281 29.5722C30.8995 29.1268 31.8495 29.1247 32.6229 29.5666L35.5246 31.2246C35.6994 30.9464 35.8644 30.6613 36.0192 30.3699L33.1323 28.6859C32.3628 28.2371 31.8897 27.4133 31.8897 26.5226V21.4265C31.8897 20.5357 32.3628 19.712 33.1323 19.2631L35.9981 17.5914C35.8495 17.3137 35.6915 17.0418 35.5246 16.7761L32.6229 18.4341C31.8495 18.876 30.8995 18.8739 30.1281 18.4285L25.7148 15.8805C24.9433 15.4351 24.4665 14.6135 24.4625 13.7227L24.4477 10.4076C24.299 10.4028 24.1497 10.4004 23.9999 10.4004C23.8499 10.4004 23.7004 10.4028 23.5515 10.4076L23.5367 13.7227C23.5327 14.6135 23.0559 15.4351 22.2845 15.8805L17.8711 18.4285C17.0997 18.8739 16.1498 18.876 15.3763 18.4341L12.4751 16.7763C12.3003 17.0546 12.1352 17.3397 11.9805 17.6311L14.867 19.3148C15.6364 19.7637 16.1095 20.5874 16.1095 21.4782V26.5742C16.1095 27.465 15.6364 28.2887 14.867 28.7376L12.0015 30.4091C12.1501 30.6868 12.3081 30.9587 12.475 31.2244L15.3763 29.5666C16.1498 29.1247 17.0997 29.1268 17.8711 29.5722L22.2845 32.1202C23.0559 32.5656 23.5327 33.3872 23.5367 34.278L23.5515 37.5931C23.7004 37.598 23.8499 37.6004 23.9999 37.6004ZM34.7576 32.322C32.6132 35.0901 29.4241 37.0081 25.7815 37.4847L25.7959 34.284C25.7977 33.8674 26.0207 33.4832 26.3814 33.2749L30.7948 30.7269C31.1555 30.5186 31.5997 30.5176 31.9614 30.7243L34.7576 32.322ZM37.5999 24.0004C37.5999 25.826 37.2402 27.5675 36.5878 29.158L33.8041 27.5342C33.4443 27.3243 33.223 26.9391 33.223 26.5226V21.4265C33.223 21.0099 33.4443 20.6247 33.8041 20.4148L36.5706 18.801C37.2339 20.4028 37.5999 22.1589 37.5999 24.0004ZM25.7815 10.516C29.4241 10.9926 32.6132 12.9106 34.7576 15.6787L31.9614 17.2764C31.5997 17.4831 31.1555 17.4821 30.7948 17.2738L26.3814 14.7258C26.0207 14.5175 25.7977 14.1333 25.7959 13.7168L25.7815 10.516ZM13.2421 15.6789C15.3863 12.9109 18.5753 10.9929 22.2177 10.5161L22.2034 13.7168C22.2015 14.1333 21.9785 14.5175 21.6178 14.7258L17.2045 17.2738C16.8437 17.4821 16.3995 17.4831 16.0378 17.2764L13.2421 15.6789ZM10.3999 24.0004C10.3999 22.1749 10.7596 20.4334 11.4119 18.843L14.1951 20.4665C14.5549 20.6764 14.7762 21.0616 14.7762 21.4782V26.5742C14.7762 26.9908 14.5549 27.376 14.1951 27.5859L11.429 29.1994C10.7659 27.5977 10.3999 25.8418 10.3999 24.0004ZM22.2177 37.4847C18.5753 37.0079 15.3863 35.0899 13.242 32.3218L16.0378 30.7243C16.3995 30.5176 16.8437 30.5186 17.2045 30.7269L21.6178 33.2749C21.9785 33.4832 22.2015 33.8674 22.2034 34.284L22.2177 37.4847ZM25.2626 16.6927L29.7131 19.2888C30.4825 19.7376 30.9556 20.5614 30.9556 21.4522V26.5482C30.9556 27.439 30.4825 28.2627 29.7131 28.7116L25.2626 31.3077C24.4828 31.7626 23.5185 31.7626 22.7387 31.3077L18.2883 28.7116C17.5189 28.2627 17.0457 27.439 17.0457 26.5482V21.4522C17.0457 20.5614 17.5189 19.7376 18.2883 19.2888L22.7387 16.6927C23.5185 16.2378 24.4828 16.2378 25.2626 16.6927Z" fill="#25174E"/>
<rect x="1" y="1" width="46" height="46" rx="23" stroke="url(#paint1_linear_4515_2989)" stroke-width="2"/>
<defs>
<linearGradient id="paint0_linear_4515_2989" x1="8" y1="8" x2="40" y2="40" gradientUnits="userSpaceOnUse">
<stop stop-color="#2AD0CA"/>
<stop offset="0.0918579" stop-color="#7EE19B"/>
<stop offset="0.200521" stop-color="#E1F664"/>
<stop offset="0.398438" stop-color="#FEB0FE"/>
<stop offset="0.622396" stop-color="#ABB3FC"/>
<stop offset="0.809896" stop-color="#5DF7A4"/>
<stop offset="1" stop-color="#58C4F6"/>
</linearGradient>
<linearGradient id="paint1_linear_4515_2989" x1="0" y1="0" x2="48" y2="48" gradientUnits="userSpaceOnUse">
<stop stop-color="#2AD0CA"/>
<stop offset="0.0918579" stop-color="#7EE19B"/>
<stop offset="0.200521" stop-color="#E1F664"/>
<stop offset="0.398438" stop-color="#FEB0FE"/>
<stop offset="0.622396" stop-color="#ABB3FC"/>
<stop offset="0.809896" stop-color="#5DF7A4"/>
<stop offset="1" stop-color="#58C4F6"/>
</linearGradient>
</defs>
</svg>
