<svg width="48" height="48" viewBox="0 0 48 48" fill="none" xmlns="http://www.w3.org/2000/svg">
<g clip-path="url(#clip0_4515_2977)">
<g filter="url(#filter0_d_4515_2977)">
<path d="M24 40C32.8366 40 40 32.8366 40 24C40 15.1634 32.8366 8 24 8C15.1634 8 8 15.1634 8 24C8 32.8366 15.1634 40 24 40Z" fill="black"/>
</g>
<path d="M24 40C32.8366 40 40 32.8366 40 24C40 15.1634 32.8366 8 24 8C15.1634 8 8 15.1634 8 24C8 32.8366 15.1634 40 24 40Z" fill="#3E73C4"/>
<path style="mix-blend-mode:soft-light" d="M24 40C32.8366 40 40 32.8366 40 24C40 15.1634 32.8366 8 24 8C15.1634 8 8 15.1634 8 24C8 32.8366 15.1634 40 24 40Z" fill="url(#paint0_linear_4515_2977)"/>
<path d="M23.9999 39.4665C32.5419 39.4665 39.4665 32.5419 39.4665 23.9999C39.4665 15.4579 32.5419 8.5332 23.9999 8.5332C15.4579 8.5332 8.5332 15.4579 8.5332 23.9999C8.5332 32.5419 15.4579 39.4665 23.9999 39.4665Z" stroke="black" stroke-opacity="0.097" stroke-width="1.06667"/>
<path d="M28.2896 26.2672C28.2896 24.0016 26.9243 23.225 24.1936 22.9008C22.2437 22.6416 21.8544 22.1242 21.8544 21.2176C21.8544 20.3109 22.5051 19.7285 23.8043 19.7285C24.9744 19.7285 25.6251 20.1168 25.9493 21.0885C25.9831 21.1825 26.0449 21.2638 26.1263 21.3216C26.2078 21.3794 26.305 21.4108 26.4048 21.4117H27.4448C27.5049 21.4133 27.5646 21.4027 27.6205 21.3805C27.6763 21.3583 27.7271 21.325 27.7697 21.2826C27.8123 21.2402 27.8458 21.1896 27.8683 21.1339C27.8907 21.0782 27.9016 21.0184 27.9003 20.9584V20.8944C27.7732 20.1913 27.4175 19.5499 26.8884 19.0699C26.3593 18.5898 25.6865 18.2978 24.9744 18.2394V16.6864C24.9744 16.4272 24.7792 16.233 24.4549 16.168H23.4789C23.2197 16.168 23.0245 16.3621 22.9595 16.6864V18.1754C21.0085 18.4336 19.7744 19.7285 19.7744 21.3477C19.7744 23.4832 21.0736 24.3248 23.8043 24.649C25.6251 24.9722 26.2096 25.3616 26.2096 26.3973C26.2096 27.432 25.2997 28.1445 24.0645 28.1445C22.3739 28.1445 21.7893 27.433 21.5941 26.4613C21.5301 26.2032 21.3339 26.073 21.1387 26.073H20.0336C19.9736 26.0716 19.914 26.0823 19.8583 26.1046C19.8025 26.1268 19.7519 26.1601 19.7094 26.2025C19.667 26.2449 19.6335 26.2954 19.6111 26.3511C19.5888 26.4068 19.5779 26.4664 19.5792 26.5264V26.5904C19.8384 28.2096 20.8795 29.3744 23.0245 29.6986V31.2528C23.0245 31.5109 23.2197 31.7061 23.544 31.7701H24.52C24.7792 31.7701 24.9744 31.576 25.0395 31.2528V29.6976C26.9904 29.3744 28.2896 28.0144 28.2896 26.2661V26.2672Z" fill="white"/>
<path d="M20.6845 33.0642C15.6136 31.2509 13.013 25.6189 14.8989 20.6344C15.8738 17.9144 18.0189 15.844 20.6845 14.8722C20.9448 14.7432 21.0738 14.549 21.0738 14.2248V13.3181C21.0738 13.06 20.9448 12.8658 20.6845 12.8008C20.6194 12.8008 20.4893 12.8008 20.4242 12.8648C18.9612 13.3217 17.603 14.0634 16.4279 15.0474C15.2527 16.0313 14.2838 17.238 13.5769 18.5979C12.87 19.9579 12.4391 21.4442 12.309 22.9714C12.1789 24.4985 12.3522 26.0363 12.8189 27.4962C13.988 31.1229 16.7837 33.9069 20.4242 35.0717C20.6845 35.2008 20.9448 35.0717 21.0088 34.8125C21.0738 34.7485 21.0738 34.6824 21.0738 34.5533V33.6466C21.0738 33.4525 20.8797 33.1944 20.6845 33.0642ZM27.5752 12.8658C27.3149 12.7357 27.0546 12.8658 26.9906 13.124C26.9256 13.189 26.9256 13.2541 26.9256 13.3832V14.2898C26.9256 14.549 27.1197 14.8072 27.3149 14.9373C32.3858 16.7506 34.9864 22.3826 33.1005 27.3672C32.1256 30.0872 29.9805 32.1576 27.3149 33.1293C27.0546 33.2584 26.9256 33.4525 26.9256 33.7768V34.6834C26.9256 34.9416 27.0546 35.1357 27.3149 35.2008C27.38 35.2008 27.5101 35.2008 27.5752 35.1368C29.0382 34.6799 30.3963 33.9381 31.5715 32.9542C32.7467 31.9703 33.7156 30.7636 34.4225 29.4036C35.1294 28.0437 35.5602 26.5574 35.6903 25.0302C35.8204 23.503 35.6472 21.9652 35.1805 20.5053C34.0114 16.8146 31.1506 14.0306 27.5752 12.8658Z" fill="white"/>
</g>
<rect x="1" y="1" width="46" height="46" rx="23" stroke="#F8F8F8" stroke-width="2"/>
<defs>
<filter id="filter0_d_4515_2977" x="6.93333" y="7.46667" width="34.1333" height="34.1333" filterUnits="userSpaceOnUse" color-interpolation-filters="sRGB">
<feFlood flood-opacity="0" result="BackgroundImageFix"/>
<feColorMatrix in="SourceAlpha" type="matrix" values="0 0 0 0 0 0 0 0 0 0 0 0 0 0 0 0 0 0 127 0" result="hardAlpha"/>
<feOffset dy="0.533333"/>
<feGaussianBlur stdDeviation="0.533333"/>
<feColorMatrix type="matrix" values="0 0 0 0 0 0 0 0 0 0 0 0 0 0 0 0 0 0 0.199474 0"/>
<feBlend mode="normal" in2="BackgroundImageFix" result="effect1_dropShadow_4515_2977"/>
<feBlend mode="normal" in="SourceGraphic" in2="effect1_dropShadow_4515_2977" result="shape"/>
</filter>
<linearGradient id="paint0_linear_4515_2977" x1="24" y1="8" x2="24" y2="40" gradientUnits="userSpaceOnUse">
<stop stop-color="white" stop-opacity="0.5"/>
<stop offset="1" stop-opacity="0.5"/>
</linearGradient>
<clipPath id="clip0_4515_2977">
<rect width="32" height="32" fill="white" transform="translate(8 8)"/>
</clipPath>
</defs>
</svg>
