<svg width="17" height="16" viewBox="0 0 17 16" fill="none" xmlns="http://www.w3.org/2000/svg">
<path d="M9.83464 1H7.16829C6.80166 1 6.5017 1.3 6.5017 1.66667C6.5017 2.03333 6.80166 2.33333 7.16829 2.33333H9.83464C10.2013 2.33333 10.5012 2.03333 10.5012 1.66667C10.5012 1.3 10.2013 1 9.83464 1ZM8.50146 9.66667C8.86809 9.66667 9.16805 9.36667 9.16805 9V6.33333C9.16805 5.96667 8.86809 5.66667 8.50146 5.66667C8.13484 5.66667 7.83487 5.96667 7.83487 6.33333V9C7.83487 9.36667 8.13484 9.66667 8.50146 9.66667ZM13.1876 5.26L13.6875 4.76C13.8108 4.63597 13.88 4.4682 13.88 4.29333C13.88 4.11846 13.8108 3.9507 13.6875 3.82667L13.6809 3.82C13.5568 3.69673 13.3891 3.62754 13.2142 3.62754C13.0394 3.62754 12.8716 3.69673 12.7476 3.82L12.2477 4.32C11.186 3.46555 9.86419 2.99979 8.50146 3C5.30184 3 2.58216 5.64 2.50217 8.84C2.48061 9.64134 2.61987 10.4389 2.91171 11.1855C3.20355 11.9321 3.64206 12.6126 4.20133 13.1869C4.76059 13.7611 5.42927 14.2174 6.16785 14.5288C6.90643 14.8403 7.69993 15.0005 8.50146 15C9.63087 15.0006 10.7375 14.6822 11.6938 14.0813C12.6502 13.4805 13.4174 12.6217 13.9071 11.6038C14.3968 10.586 14.5891 9.45051 14.4618 8.32817C14.3345 7.20583 13.8928 6.14227 13.1876 5.26ZM8.50146 13.6667C5.92177 13.6667 3.83535 11.58 3.83535 9C3.83535 6.42 5.92177 4.33333 8.50146 4.33333C11.0812 4.33333 13.1676 6.42 13.1676 9C13.1676 11.58 11.0812 13.6667 8.50146 13.6667Z" fill="white" fill-opacity="0.5"/>
<path d="M12.834 4.90647L12.5177 5.22278L12.797 5.57219C13.4434 6.38089 13.8483 7.35576 13.965 8.38452C14.0817 9.41328 13.9054 10.4541 13.4566 11.387C13.0077 12.32 12.3044 13.1072 11.4278 13.6579C10.5512 14.2087 9.53693 14.5006 8.50173 14.5H8.50117C7.76646 14.5004 7.03912 14.3536 6.36211 14.0681C5.6851 13.7827 5.07217 13.3644 4.55952 12.838C4.04688 12.3116 3.64492 11.6878 3.3774 11.0034C3.10988 10.3191 2.98223 9.588 3.00199 8.85345L3.00201 8.85249C3.07519 5.92498 5.57181 3.5 8.50146 3.5L8.50154 3.5C9.75019 3.49981 10.9614 3.92658 11.9342 4.70952L12.2839 4.99095L12.6013 4.67353L13.1001 4.17462C13.1002 4.17451 13.1003 4.1744 13.1004 4.17429C13.1308 4.14433 13.1716 4.12754 13.2142 4.12754C13.257 4.12754 13.298 4.14446 13.3284 4.17462L13.3329 4.17911C13.333 4.17925 13.3331 4.17938 13.3333 4.17952C13.3632 4.20982 13.38 4.25071 13.38 4.29333C13.38 4.33595 13.3632 4.37682 13.3333 4.40713C13.3331 4.40727 13.333 4.40741 13.3329 4.40755L12.834 4.90647ZM7.16829 1.5H9.83464C9.92506 1.5 10.0012 1.57609 10.0012 1.66667C10.0012 1.75725 9.92506 1.83333 9.83464 1.83333H7.16829C7.07786 1.83333 7.0017 1.75725 7.0017 1.66667C7.0017 1.57609 7.07786 1.5 7.16829 1.5ZM8.66805 9C8.66805 9.09058 8.59189 9.16667 8.50146 9.16667C8.41104 9.16667 8.33487 9.09058 8.33487 9V6.33333C8.33487 6.24275 8.41104 6.16667 8.50146 6.16667C8.59189 6.16667 8.66805 6.24275 8.66805 6.33333V9ZM3.33535 9C3.33535 11.8561 5.64557 14.1667 8.50146 14.1667C11.3574 14.1667 13.6676 11.8561 13.6676 9C13.6676 6.14391 11.3574 3.83333 8.50146 3.83333C5.64557 3.83333 3.33535 6.14391 3.33535 9Z" stroke="white" stroke-opacity="0.5"/>
</svg>
