<svg width="32" height="32" viewBox="0 0 32 32" fill="none" xmlns="http://www.w3.org/2000/svg">
<path fill-rule="evenodd" clip-rule="evenodd" d="M18.9697 2.63533L26.0893 6.74582C27.9269 7.80679 29.059 9.76754 29.059 11.8895V20.1105C29.059 22.2324 27.9269 24.1932 26.0893 25.2541L18.9697 29.3646C17.1321 30.4256 14.868 30.4256 13.0303 29.3646L5.91074 25.2541C4.07308 24.1932 2.94104 22.2324 2.94104 20.1105V11.8895C2.94104 9.76754 4.07308 7.80679 5.91074 6.74582L13.0303 2.63533C14.868 1.57436 17.1321 1.57436 18.9697 2.63533ZM17.6364 4.94473C16.6238 4.36011 15.3762 4.36011 14.3636 4.94473L7.24407 9.05522C6.23149 9.63984 5.60771 10.7203 5.60771 11.8895V20.1105C5.60771 21.2797 6.23148 22.3601 7.24407 22.9447L14.3636 27.0552C15.3762 27.6398 16.6238 27.6398 17.6364 27.0552L24.756 22.9447C25.7685 22.3601 26.3923 21.2797 26.3923 20.1105V11.8895C26.3923 10.7203 25.7685 9.63984 24.756 9.05522L17.6364 4.94473Z" fill="#F8F8F8"/>
</svg>
