<svg width="16" height="16" viewBox="0 0 16 16" fill="none" xmlns="http://www.w3.org/2000/svg">
<path d="M6.6272 5.77358H10.1026H15.7314C15.7314 2.68308 13.2113 0.177735 10.1026 0.177734H7.45747L6.6272 5.77358Z" fill="#FFBA7B"/>
<path d="M6.83667 3.42188C6.83667 3.42188 9.15079 3.42188 11.15 3.42188C14.3588 3.42188 15.2841 5.38638 15.2841 5.38638H6.83667V3.42188Z" fill="#F87AA3"/>
<path d="M2.78308 2.24981C2.81813 2.19762 2.8495 2.14363 2.88109 2.08929C3.47402 1.0692 5.57438 0.115529 6.5676 0.683875C6.95283 0.904331 7.10488 2.58884 6.92858 3.89851L6.18641 7.90327C6.17191 7.98154 6.15076 8.05877 6.11641 8.13067C5.59383 9.22567 4.05633 9.77528 2.93359 9.29626C1.74653 8.78977 1.62744 6.72621 1.62744 5.29747C1.62745 4.04973 2.54948 2.59767 2.78308 2.24981Z" fill="white"/>
<path d="M5.14898 3.36279C5.55282 3.36279 5.88023 3.03629 5.88023 2.63354C5.88023 2.49586 5.84193 2.36709 5.77544 2.25723C5.74115 2.34674 5.65421 2.4103 5.55237 2.4103C5.42049 2.4103 5.31361 2.30369 5.31361 2.17218C5.31361 2.08215 5.3637 2.00379 5.43759 1.96331C5.34905 1.92533 5.25147 1.9043 5.14898 1.9043C4.74511 1.9043 4.41772 2.23079 4.41772 2.63354C4.41772 3.03629 4.74511 3.36279 5.14898 3.36279Z" fill="#152239"/>
<path fill-rule="evenodd" clip-rule="evenodd" d="M6.64206 5.71491L7.38534 0.00542559C7.29224 0.00181966 7.19869 0 7.10475 0C3.18116 0 0.000488281 3.17166 0.000488281 7.08412C0.000488281 10.0321 1.80638 12.5596 4.37523 13.6264L4.76113 10.9089C4.76113 10.9089 4.83466 12.9219 5.5478 13.9975C6.04888 14.1093 6.56991 14.1682 7.10475 14.1682C7.81777 14.1682 8.50625 14.0634 9.15558 13.8686C7.33214 11.8557 7.31079 8.19552 8.03671 5.71491H6.64206ZM5.72804 0.767238C6.40457 0.612737 6.9175 1.22256 6.81761 1.90743L6.07973 6.96586C5.83719 8.62873 4.22923 10.0579 2.99808 8.91057C2.22687 8.19188 1.70198 6.90863 2.16008 4.62162C2.69862 1.93311 4.48286 1.0516 5.72804 0.767238Z" fill="#152239"/>
<path fill-rule="evenodd" clip-rule="evenodd" d="M6.98023 5.32797H12.627H15.3434C15.2444 4.48386 14.9458 3.70004 14.4986 3.02382C13.543 1.5787 11.8959 0.625067 10.0301 0.625067H7.67585L6.98023 5.32797ZM6.25415 5.95302L7.13472 0L10.0301 1.84511e-07C13.1155 4.53481e-07 15.6599 2.33398 15.9732 5.32797C15.9947 5.53338 16.0001 5.74193 16.0001 5.95302H6.25415Z" fill="#152239"/>
<path d="M15.4777 5.77322C14.9716 5.70278 12.4938 6.00815 12.627 5.32676C12.8302 4.28762 13.5467 3.43003 14.4986 3.02261C15.4563 2.61272 15.7572 5.81211 15.4777 5.77322Z" fill="#152239"/>
<path d="M15.9103 15.94C15.9103 15.94 7.37329 16.7233 7.37329 6.36914C12.5646 6.36914 15.5858 10.8754 15.9103 15.94Z" fill="#152239"/>
</svg>
