<svg width="32" height="33" viewBox="0 0 32 33" fill="none" xmlns="http://www.w3.org/2000/svg">
<path d="M9.75155 29.8241H22.262C22.6806 29.8572 23.1016 29.8042 23.499 29.6683C23.8963 29.5324 24.2616 29.3165 24.5722 29.0338C25.1358 28.3433 25.409 27.4607 25.334 26.5725V17.1158C25.4071 16.2336 25.1344 15.3576 24.5734 14.6728C24.2628 14.3902 23.8975 14.1742 23.5002 14.0383C23.1028 13.9024 22.6818 13.8494 22.2631 13.8826H9.75155C9.33407 13.8505 8.91443 13.904 8.51839 14.0399C8.12234 14.1758 7.75823 14.3912 7.44839 14.6728C6.88227 15.3552 6.60584 16.2321 6.6783 17.1158V26.5725C6.60429 27.4614 6.88065 28.3441 7.44839 29.032C7.75808 29.314 8.12213 29.5297 8.51818 29.6659C8.91424 29.8021 9.33395 29.8559 9.75155 29.8241ZM10.0229 27.5795C9.89868 27.589 9.77387 27.5735 9.65583 27.5338C9.53778 27.4941 9.42892 27.4311 9.3357 27.3485C9.16179 27.1315 9.07953 26.8552 9.10645 26.5784V17.1164C9.09254 16.9803 9.10563 16.8428 9.14497 16.7117C9.18431 16.5807 9.24913 16.4587 9.3357 16.3528C9.52628 16.1906 9.7733 16.1103 10.0229 16.1295H22.0179C22.1384 16.1203 22.2594 16.1353 22.374 16.1737C22.4886 16.212 22.5943 16.2729 22.6849 16.3528C22.8554 16.5688 22.9352 16.8426 22.9076 17.1164V26.5725C22.9337 26.8482 22.8541 27.1234 22.6849 27.3426C22.5954 27.4246 22.49 27.4874 22.3753 27.5272C22.2606 27.5669 22.139 27.5827 22.0179 27.5736L10.0229 27.5795ZM9.08039 15.0046H11.4724V10.4598C11.4414 9.5057 11.6562 8.5596 12.0962 7.7124C12.4764 7.00335 13.0521 6.41825 13.7548 6.0265C14.4494 5.65308 15.2256 5.45763 16.0142 5.45763C16.8027 5.45763 17.579 5.65308 18.2735 6.0265C18.9723 6.42049 19.5445 7.00524 19.9233 7.7124C20.3618 8.55998 20.575 9.5061 20.5423 10.4598V15.0063H22.9367V10.7252C22.9602 9.58984 22.7664 8.46041 22.3656 7.39785C22.039 6.53747 21.5327 5.75662 20.8805 5.10736C20.2283 4.45811 19.4451 3.95538 18.5833 3.6327C16.9236 3.01176 15.0953 3.01176 13.4355 3.6327C12.608 3.94449 11.8529 4.42203 11.2165 5.03604C10.5346 5.70292 10.0034 6.50803 9.65855 7.39726C9.25386 8.45891 9.05795 9.58871 9.08157 10.7246L9.08039 15.0046Z" fill="white" fill-opacity="0.5"/>
</svg>
