<svg width="48" height="52" viewBox="0 0 48 52" fill="none" xmlns="http://www.w3.org/2000/svg">
<path d="M19.1034 3.06586C22.1336 1.31138 25.8664 1.31138 28.8966 3.06586L41.3496 10.276C44.3805 12.0308 46.25 15.2756 46.25 18.7899V33.2101C46.25 36.7244 44.3805 39.9692 41.3496 41.724L28.8966 48.9341C25.8664 50.6886 22.1336 50.6886 19.1034 48.9341L6.65036 41.724C3.61953 39.9692 1.75 36.7244 1.75 33.2101V18.7899C1.75 15.2756 3.61953 12.0308 6.65036 10.276L19.1034 3.06586Z" fill="#25174E" stroke="url(#paint0_linear_4775_21105)" stroke-width="3.5"/>
<path d="M28.55 25.6249L29.7821 26.3362C30.1224 26.5327 30.3321 26.8959 30.3321 27.2889V28.7115C30.3321 29.1045 30.1224 29.4676 29.7821 29.6641L28.55 30.3755C28.2097 30.572 27.7904 30.572 27.45 30.3755L26.218 29.6641C25.8776 29.4676 25.668 29.1045 25.668 28.7115V27.2889C25.668 26.8959 25.8776 26.5327 26.218 26.3362L27.45 25.6249C27.7904 25.4284 28.2097 25.4284 28.55 25.6249Z" fill="#F8F8F8"/>
<path fill-rule="evenodd" clip-rule="evenodd" d="M33.6752 19.5627C33.6752 19.8201 33.6341 20.0678 33.558 20.2997C34.3069 20.9243 34.8002 21.8512 34.8002 22.9377V31.9377C34.8002 33.9571 33.0961 35.4252 31.2143 35.4252H17.2502C15.0133 35.4252 13.2002 33.6121 13.2002 31.3752V20.1252C13.2002 17.8883 15.0133 16.0752 17.2502 16.0752H30.1877C32.1138 16.0752 33.6752 17.6366 33.6752 19.5627ZM30.1877 17.8752C31.1023 17.8752 31.847 18.6028 31.8744 19.5107C31.8749 19.528 31.8752 19.5453 31.8752 19.5627C31.8752 19.8735 31.6235 20.1252 31.3127 20.1252H18.8127C18.3979 20.1252 18 20.5 18 21C18 21.5 18.402 21.8125 18.8127 21.8125H31.2143C31.2473 21.8125 31.2801 21.8134 31.3127 21.815C31.7232 21.8362 32.0972 21.9889 32.3882 22.2291C32.7631 22.5387 33.0002 22.9936 33.0002 23.5V31.9377C33.0002 32.8683 32.1993 33.6252 31.2143 33.6252H17.2502C16.0074 33.6252 15.0002 32.618 15.0002 31.3752V20.1252C15.0002 18.8824 16.0074 17.8752 17.2502 17.8752H30.1877Z" fill="#F8F8F8"/>
<defs>
<linearGradient id="paint0_linear_4775_21105" x1="3.58011" y1="50.6927" x2="50.7722" y2="5.75639" gradientUnits="userSpaceOnUse">
<stop stop-color="#CAA7D1"/>
<stop offset="1" stop-color="#B18FB5" stop-opacity="0.38"/>
</linearGradient>
</defs>
</svg>
