<svg width="48" height="52" viewBox="0 0 48 52" fill="none" xmlns="http://www.w3.org/2000/svg">
<path d="M19.1034 3.06586C22.1336 1.31138 25.8664 1.31138 28.8966 3.06586L41.3496 10.276C44.3805 12.0308 46.25 15.2756 46.25 18.7899V33.2101C46.25 36.7244 44.3805 39.9692 41.3496 41.724L28.8966 48.9341C25.8664 50.6886 22.1336 50.6886 19.1034 48.9341L6.65036 41.724C3.61953 39.9692 1.75 36.7244 1.75 33.2101V18.7899C1.75 15.2756 3.61953 12.0308 6.65036 10.276L19.1034 3.06586Z" fill="#DFD4FF" fill-opacity="0.08" stroke="url(#paint0_linear_4775_21157)" stroke-width="3.5"/>
<mask id="mask0_4775_21157" style="mask-type:alpha" maskUnits="userSpaceOnUse" x="6" y="6" width="35" height="40">
<path d="M22.1529 6.36479C22.9865 5.8784 24.0135 5.8784 24.8472 6.36479L39.6529 15.0034C40.4865 15.4898 41 16.3886 41 17.3614V34.6386C41 35.6114 40.4865 36.5102 39.6529 36.9966L24.8472 45.6352C24.0135 46.1216 22.9865 46.1216 22.1529 45.6352L7.34715 36.9966C6.51353 36.5102 6 35.6114 6 34.6386V17.3614C6 16.3886 6.51353 15.4898 7.34715 15.0034L22.1529 6.36479Z" fill="white"/>
</mask>
<g mask="url(#mask0_4775_21157)">
<mask id="mask1_4775_21157" style="mask-type:alpha" maskUnits="userSpaceOnUse" x="3" y="6" width="40" height="40">
<rect x="3" y="6" width="40" height="40" fill="#25174E"/>
</mask>
<g mask="url(#mask1_4775_21157)">
<path d="M39.6668 24.8325C39.6668 29.3446 37.6745 33.3914 34.5217 36.1413C34.1563 36.4599 33.7754 36.7612 33.3801 37.0437C30.924 38.7994 27.916 39.8325 24.6668 39.8325C20.2348 39.8325 16.3073 38.0633 13.5592 35.0015C12.262 33.5562 11.2276 31.8228 10.527 29.8516C9.94083 28.1918 9.66676 26.5928 9.66676 24.8325C9.66676 23.0724 9.96993 21.383 10.5269 19.8139C12.5913 13.9977 18.1426 9.83252 24.6668 9.83252C32.951 9.83252 39.6668 16.5482 39.6668 24.8325Z" fill="#25174E"/>
<path d="M39.6668 24.8325C39.6668 31.2758 34.4437 36.4993 28.0003 36.4993C21.557 36.4993 16.3337 31.276 16.3337 24.8326C16.3337 18.3893 21.557 13.166 28.0003 13.166C34.4437 13.166 39.6668 18.3892 39.6668 24.8325Z" fill="#25174E"/>
<path d="M9.66687 19.4995H9.0002C8.26382 19.4995 7.66686 20.0964 7.66686 20.8328V28.8328C7.66686 29.5692 8.26382 30.1661 9.0002 30.1661H9.66687C9.99468 30.1661 10.2766 30.0631 10.527 29.8516C9.94083 28.1918 9.66676 26.5928 9.66676 24.8325C9.66676 23.0724 9.96993 21.383 10.5269 19.8139C10.2947 19.6177 9.99461 19.4995 9.66687 19.4995Z" fill="#25174E"/>
<path d="M42.4895 51.1931L38.4541 41.0922C37.7888 39.4271 36.5181 38.1849 34.9962 37.5175C34.9989 37.5667 35.0003 37.6162 35.0003 37.666V39.4993C35.0003 40.0555 34.83 40.5719 34.5388 40.9992C34.83 41.4266 35.0003 41.943 35.0003 42.4992V57.8325C35.0003 58.6063 34.6707 59.3031 34.1442 59.7902C35.6088 60.326 37.2685 60.3446 38.8306 59.7205C42.1958 58.3761 43.8339 54.5583 42.4895 51.1931Z" fill="#25174E"/>
<path d="M11.0003 42.4991L11.0003 57.8325C11.0003 58.2416 11.0924 58.6291 11.257 58.9756C11.685 59.8764 12.6033 60.4992 13.667 60.4992L32.3336 60.4991C33.0326 60.4991 33.6687 60.2302 34.1442 59.7902C34.6707 59.3031 35.0003 58.6063 35.0003 57.8325V42.4992C35.0003 41.943 34.83 41.4266 34.5388 40.9992C34.0588 41.7035 33.2502 42.166 32.3336 42.166L13.667 42.166C12.7504 42.166 11.9418 41.7035 11.4618 40.9992C11.1705 41.4266 11.0003 41.943 11.0003 42.4991Z" fill="#25174E"/>
<path d="M4.11291 41.327L1.23583 51.8168C0.277325 55.3115 2.33331 58.9215 5.82801 59.88C7.7578 60.4093 9.72277 60.0194 11.257 58.9756C11.0924 58.6291 11.0003 58.2416 11.0003 57.8325L11.0003 42.4991C11.0003 41.943 11.1705 41.4266 11.4618 40.9992C11.1705 40.5719 11.0003 40.0555 11.0003 39.4993L11.0003 37.666C11.0003 37.2674 11.0877 36.8892 11.2445 36.5497C8.06129 36.1527 4.98631 38.1425 4.11291 41.327Z" fill="#25174E"/>
<path d="M11.0003 37.666L11.0003 39.4993C11.0003 40.0555 11.1705 40.5719 11.4618 40.9992C11.9418 41.7035 12.7504 42.166 13.667 42.166L32.3336 42.166C33.2502 42.166 34.0588 41.7035 34.5388 40.9992C34.83 40.5719 35.0003 40.0555 35.0003 39.4993V37.666C35.0003 37.6162 34.9989 37.5667 34.9962 37.5175C34.9682 37.0074 34.7968 36.5354 34.5217 36.1413C34.1563 36.4599 33.7754 36.7612 33.3801 37.0437C30.924 38.7994 27.916 39.8325 24.6668 39.8325C20.2348 39.8325 16.3073 38.0633 13.5592 35.0015C12.5311 35.0423 11.6527 35.6652 11.2445 36.5497C11.0877 36.8892 11.0003 37.2674 11.0003 37.666Z" fill="#25174E"/>
<path d="M39.6668 24.8325C39.6668 16.5482 32.951 9.83252 24.6668 9.83252C18.1426 9.83252 12.5913 13.9977 10.5269 19.8139M39.6668 24.8325C39.6668 31.2758 34.4437 36.4993 28.0003 36.4993C21.557 36.4993 16.3337 31.276 16.3337 24.8326C16.3337 18.3893 21.557 13.166 28.0003 13.166C34.4437 13.166 39.6668 18.3892 39.6668 24.8325ZM39.6668 24.8325C39.6668 29.3446 37.6745 33.3914 34.5217 36.1413M10.527 29.8516C9.94083 28.1918 9.66676 26.5928 9.66676 24.8325C9.66676 23.0724 9.96993 21.383 10.5269 19.8139M10.527 29.8516C10.2766 30.0631 9.99468 30.1661 9.66687 30.1661H9.0002C8.26382 30.1661 7.66686 29.5692 7.66686 28.8328V20.8328C7.66686 20.0964 8.26382 19.4995 9.0002 19.4995H9.66687C9.99461 19.4995 10.2947 19.6177 10.5269 19.8139M10.527 29.8516C11.2276 31.8228 12.262 33.5562 13.5592 35.0015M13.5592 35.0015C16.3073 38.0633 20.2348 39.8325 24.6668 39.8325C27.916 39.8325 30.924 38.7994 33.3801 37.0437C33.7754 36.7612 34.1563 36.4599 34.5217 36.1413M13.5592 35.0015C12.5311 35.0423 11.6527 35.6652 11.2445 36.5497M34.5217 36.1413C34.7968 36.5354 34.9682 37.0074 34.9962 37.5175M11.2445 36.5497C11.0877 36.8892 11.0003 37.2674 11.0003 37.666L11.0003 39.4993C11.0003 40.0555 11.1705 40.5719 11.4618 40.9992M11.2445 36.5497C8.06129 36.1527 4.98631 38.1425 4.11291 41.327L1.23583 51.8168C0.277325 55.3115 2.33331 58.9215 5.82801 59.88C7.7578 60.4093 9.72277 60.0194 11.257 58.9756M34.9962 37.5175C36.5181 38.1849 37.7888 39.4271 38.4541 41.0922L42.4895 51.1931C43.8339 54.5583 42.1958 58.3761 38.8306 59.7205C37.2685 60.3446 35.6088 60.326 34.1442 59.7902M34.9962 37.5175C34.9989 37.5667 35.0003 37.6162 35.0003 37.666V39.4993C35.0003 40.0555 34.83 40.5719 34.5388 40.9992M34.5388 40.9992C34.0588 41.7035 33.2502 42.166 32.3336 42.166L13.667 42.166C12.7504 42.166 11.9418 41.7035 11.4618 40.9992M34.5388 40.9992C34.83 41.4266 35.0003 41.943 35.0003 42.4992V57.8325C35.0003 58.6063 34.6707 59.3031 34.1442 59.7902M11.4618 40.9992C11.1705 41.4266 11.0003 41.943 11.0003 42.4991L11.0003 57.8325C11.0003 58.2416 11.0924 58.6291 11.257 58.9756M11.257 58.9756C11.685 59.8764 12.6033 60.4992 13.667 60.4992L32.3336 60.4991C33.0326 60.4991 33.6687 60.2302 34.1442 59.7902" stroke="url(#paint1_linear_4775_21157)"/>
</g>
</g>
<defs>
<linearGradient id="paint0_linear_4775_21157" x1="3.58011" y1="50.6927" x2="50.7722" y2="5.75639" gradientUnits="userSpaceOnUse">
<stop stop-color="#CAA7D1"/>
<stop offset="1" stop-color="#B18FB5" stop-opacity="0.38"/>
</linearGradient>
<linearGradient id="paint1_linear_4775_21157" x1="1.00049" y1="9.83252" x2="50.7794" y2="51.0564" gradientUnits="userSpaceOnUse">
<stop stop-color="#2AD0CA"/>
<stop offset="0.0918579" stop-color="#7EE19B"/>
<stop offset="0.200521" stop-color="#E1F664"/>
<stop offset="0.398438" stop-color="#FEB0FE"/>
<stop offset="0.622396" stop-color="#ABB3FC"/>
<stop offset="0.809896" stop-color="#5DF7A4"/>
<stop offset="1" stop-color="#58C4F6"/>
</linearGradient>
</defs>
</svg>
