<svg width="32" height="32" viewBox="0 0 32 32" fill="none" xmlns="http://www.w3.org/2000/svg">
<path d="M0.208122 22.0857C0.426132 22.5764 0.752167 23.0145 1.16322 23.3693C1.57427 23.724 2.06033 23.9866 2.58709 24.1386C4.12694 24.5967 5.74484 24.7534 7.3473 24.5996C9.05828 26.2149 11.2123 27.3152 13.5505 27.7681C15.8887 28.2211 18.3116 28.0075 20.528 27.153C22.7444 26.2985 24.6601 24.8395 26.0448 22.9512C27.4295 21.063 28.2242 18.8259 28.3336 16.5087C31.0758 14.3041 32.5995 11.9528 31.7775 9.92432C31.543 9.32275 31.1604 8.78631 30.6634 8.36201C30.1663 7.9377 29.5698 7.63848 28.9263 7.49056C27.6351 7.23894 26.2969 7.35323 25.0706 7.81986C23.3713 6.05093 21.1634 4.82141 18.735 4.29172C16.3066 3.76204 13.7705 3.95679 11.4576 4.85056C9.14471 5.74433 7.16239 7.29563 5.76931 9.30204C4.37623 11.3084 3.63708 13.6768 3.6483 16.0981C1.70906 17.1345 -0.732442 19.7874 0.208122 22.0857ZM2.7678 21.1123C2.60106 20.6973 3.27115 19.7668 4.07396 19.0685C4.34936 20.0833 4.75616 21.06 5.28461 21.9751C3.81223 21.8809 2.94276 21.5446 2.7678 21.1123ZM23.9537 21.2522C22.5223 23.3025 20.3141 24.7174 17.8126 25.1868C16.1087 25.5012 14.3496 25.3697 12.7151 24.8058C12.1782 24.6112 11.6619 24.3664 11.1736 24.0748C13.6539 23.583 16.0839 22.8754 18.434 21.9606C20.793 21.0591 23.0661 19.9579 25.2272 18.6698C24.9437 19.59 24.5141 20.4613 23.9537 21.2522ZM28.2521 10.1142C28.4717 10.1544 28.6769 10.2493 28.8476 10.3896C29.0183 10.5299 29.1487 10.7109 29.226 10.9148C29.401 11.347 28.9906 12.1701 27.9821 13.2228C27.7234 12.1496 27.3179 11.1151 26.7762 10.147C27.2598 10.0314 27.7636 10.0202 28.2521 10.1142ZM8.0401 10.775C8.74412 9.75106 9.65049 8.87364 10.7064 8.19382C11.7624 7.514 12.9467 7.04537 14.1906 6.81521C15.8986 6.49211 17.6647 6.62537 19.301 7.20083C20.8707 7.74478 22.2655 8.68123 23.3452 9.91602C24.4249 11.1508 25.1515 12.6404 25.4518 14.235C25.5235 14.5613 25.5709 14.8922 25.5937 15.2252C23.0638 16.9559 20.3248 18.3773 17.4383 19.4576C14.5627 20.6225 11.5496 21.4355 8.468 21.8777C7.19742 20.3201 6.46928 18.4095 6.38897 16.4225C6.30866 14.4355 6.88035 12.4752 8.02129 10.8253L8.0401 10.775Z" fill="#F8F8F8"/>
</svg>
