<svg width="28" height="30" viewBox="0 0 28 30" fill="none" xmlns="http://www.w3.org/2000/svg">
<path fill-rule="evenodd" clip-rule="evenodd" d="M16.9696 1.63557L24.0892 5.74606C25.9268 6.80703 27.0589 8.76779 27.0589 10.8897V19.1107C27.0589 21.2327 25.9268 23.1934 24.0892 24.2544L16.9696 28.3649C15.1319 29.4258 12.8678 29.4258 11.0302 28.3649L3.91061 24.2544C2.07296 23.1934 0.940918 21.2326 0.940918 19.1107V10.8897C0.940918 8.76779 2.07296 6.80703 3.91061 5.74606L11.0302 1.63557C12.8678 0.574601 15.1319 0.574601 16.9696 1.63557ZM15.6363 3.94497C14.6237 3.36036 13.3761 3.36036 12.3635 3.94497L5.24395 8.05546C4.23136 8.64008 3.60758 9.7205 3.60758 10.8897V19.1107C3.60758 20.2799 4.23136 21.3604 5.24395 21.945L12.3635 26.0555C13.3761 26.6401 14.6237 26.6401 15.6363 26.0555L22.7558 21.945C23.7684 21.3604 24.3922 20.2799 24.3922 19.1107V10.8897C24.3922 9.7205 23.7684 8.64008 22.7558 8.05546L15.6363 3.94497Z" fill="url(#paint0_linear_4323_316)"/>
<path d="M12.3635 3.94497C13.3761 3.36036 14.6237 3.36036 15.6363 3.94497L22.7558 8.05546C23.7684 8.64008 24.3922 9.7205 24.3922 10.8897V19.1107C24.3922 20.2799 23.7684 21.3604 22.7558 21.945L15.6363 26.0555C14.6237 26.6401 13.3761 26.6401 12.3635 26.0555L5.24395 21.945C4.23136 21.3604 3.60758 20.2799 3.60758 19.1107V10.8897C3.60758 9.7205 4.23136 8.64008 5.24395 8.05546L12.3635 3.94497Z" fill="url(#paint1_linear_4323_316)"/>
<defs>
<linearGradient id="paint0_linear_4323_316" x1="0.940918" y1="0.839844" x2="29.1691" y2="26.8724" gradientUnits="userSpaceOnUse">
<stop stop-color="#2AD0CA"/>
<stop offset="0.0918579" stop-color="#7EE19B"/>
<stop offset="0.200521" stop-color="#E1F664"/>
<stop offset="0.398438" stop-color="#FEB0FE"/>
<stop offset="0.622396" stop-color="#ABB3FC"/>
<stop offset="0.809896" stop-color="#5DF7A4"/>
<stop offset="1" stop-color="#58C4F6"/>
</linearGradient>
<linearGradient id="paint1_linear_4323_316" x1="0.940918" y1="0.839844" x2="29.1691" y2="26.8724" gradientUnits="userSpaceOnUse">
<stop stop-color="#2AD0CA"/>
<stop offset="0.0918579" stop-color="#7EE19B"/>
<stop offset="0.200521" stop-color="#E1F664"/>
<stop offset="0.398438" stop-color="#FEB0FE"/>
<stop offset="0.622396" stop-color="#ABB3FC"/>
<stop offset="0.809896" stop-color="#5DF7A4"/>
<stop offset="1" stop-color="#58C4F6"/>
</linearGradient>
</defs>
</svg>
