<svg width="17" height="16" viewBox="0 0 17 16" fill="none" xmlns="http://www.w3.org/2000/svg">
<path fill-rule="evenodd" clip-rule="evenodd" d="M8.5 16C12.9183 16 16.5 12.4183 16.5 8C16.5 3.58172 12.9183 0 8.5 0C4.08172 0 0.5 3.58172 0.5 8C0.5 12.4183 4.08172 16 8.5 16ZM8.79467 4.92222C8.61234 4.81586 8.38688 4.81586 8.20455 4.92222L5.97933 6.22026C5.79943 6.32521 5.6888 6.51781 5.6888 6.72608V9.27412C5.6888 9.48239 5.79943 9.67499 5.97933 9.77993L8.20455 11.078C8.38688 11.1843 8.61234 11.1843 8.79467 11.078L11.0199 9.77993C11.1998 9.67499 11.3104 9.48239 11.3104 9.27412V6.72608C11.3104 6.51781 11.1998 6.32521 11.0199 6.22026L8.79467 4.92222Z" fill="url(#paint0_linear_4515_1281)"/>
<path opacity="0.16" fill-rule="evenodd" clip-rule="evenodd" d="M8.49995 14.7992C8.57487 14.7992 8.64952 14.798 8.72385 14.7956L8.73127 13.138C8.73327 12.6926 8.97167 12.2818 9.35739 12.0591L11.5641 10.7851C11.9498 10.5624 12.4247 10.5614 12.8114 10.7823L14.2623 11.6113C14.3497 11.4722 14.4322 11.3297 14.5096 11.184L13.0661 10.342C12.6814 10.1176 12.4449 9.70569 12.4449 9.2603V6.71226C12.4449 6.26688 12.6814 5.85501 13.0661 5.6306L14.4991 4.79472C14.4247 4.65588 14.3458 4.51993 14.2623 4.38706L12.8114 5.21608C12.4247 5.43704 11.9498 5.43598 11.5641 5.21328L9.35739 3.93927C8.97167 3.71658 8.73327 3.30577 8.73127 2.86039L8.72385 1.20284C8.64952 1.20043 8.57487 1.19922 8.49995 1.19922C8.42493 1.19922 8.35019 1.20043 8.27576 1.20284L8.26834 2.86039C8.26635 3.30577 8.02794 3.71658 7.64223 3.93927L5.43556 5.21328C5.04985 5.43598 4.57488 5.43704 4.18817 5.21608L2.73753 4.38719C2.65013 4.52633 2.56762 4.66887 2.49026 4.81456L3.93348 5.65644C4.3182 5.88085 4.55476 6.29272 4.55476 6.73811V9.28614C4.55476 9.73153 4.3182 10.1434 3.93349 10.3678L2.50076 11.2036C2.57507 11.3424 2.65406 11.4784 2.73752 11.6112L4.18817 10.7823C4.57488 10.5614 5.04985 10.5624 5.43556 10.7851L7.64223 12.0591C8.02794 12.2818 8.26635 12.6926 8.26834 13.138L8.27576 14.7956C8.35019 14.798 8.42493 14.7992 8.49995 14.7992ZM13.8788 12.16C12.8066 13.5441 11.212 14.5031 9.39077 14.7414L9.39793 13.141C9.39887 12.9327 9.51035 12.7406 9.69072 12.6365L11.8974 11.3625C12.0778 11.2583 12.2999 11.2578 12.4807 11.3612L13.8788 12.16ZM15.3 7.99922C15.3 8.912 15.1201 9.78277 14.7939 10.578L13.402 9.76612C13.2221 9.66117 13.1115 9.46857 13.1115 9.2603V6.71226C13.1115 6.50399 13.2221 6.31139 13.402 6.20645L14.7853 5.39953C15.1169 6.20043 15.3 7.07845 15.3 7.99922ZM9.39077 1.25704C11.212 1.49535 12.8066 2.45434 13.8788 3.83838L12.4807 4.63724C12.2999 4.74057 12.0778 4.74007 11.8974 4.63593L9.69072 3.36192C9.51035 3.25778 9.39887 3.06568 9.39793 2.85741L9.39077 1.25704ZM3.12103 3.83849C4.19317 2.45447 5.78765 1.49545 7.60884 1.25708L7.60168 2.85741C7.60075 3.06568 7.48926 3.25778 7.30889 3.36192L5.10223 4.63593C4.92186 4.74007 4.69975 4.74057 4.51892 4.63724L3.12103 3.83849ZM1.69995 7.99922C1.69995 7.08648 1.87978 6.21574 2.20594 5.4205L3.59757 6.23229C3.77747 6.33723 3.8881 6.52983 3.8881 6.73811V9.28614C3.8881 9.49441 3.77747 9.68702 3.59757 9.79196L2.21452 10.5987C1.88293 9.79789 1.69995 8.91992 1.69995 7.99922ZM7.60884 14.7414C5.78764 14.503 4.19316 13.544 3.12102 12.1599L4.51892 11.3612C4.69975 11.2578 4.92186 11.2583 5.10223 11.3625L7.30889 12.6365C7.48926 12.7406 7.60075 12.9327 7.60168 13.141L7.60884 14.7414ZM9.13132 4.34538L11.3565 5.64343C11.7413 5.86785 11.9778 6.27971 11.9778 6.7251V9.27314C11.9778 9.71852 11.7413 10.1304 11.3565 10.3548L9.13132 11.6529C8.74141 11.8803 8.25927 11.8803 7.86937 11.6529L5.64414 10.3548C5.25943 10.1304 5.02286 9.71852 5.02286 9.27314V6.7251C5.02286 6.27972 5.25943 5.86785 5.64414 5.64343L7.86937 4.34538C8.25927 4.11794 8.74142 4.11794 9.13132 4.34538Z" fill="#25174E"/>
<defs>
<linearGradient id="paint0_linear_4515_1281" x1="0.5" y1="0" x2="16.5" y2="16" gradientUnits="userSpaceOnUse">
<stop stop-color="#2AD0CA"/>
<stop offset="0.0918579" stop-color="#7EE19B"/>
<stop offset="0.200521" stop-color="#E1F664"/>
<stop offset="0.398438" stop-color="#FEB0FE"/>
<stop offset="0.622396" stop-color="#ABB3FC"/>
<stop offset="0.809896" stop-color="#5DF7A4"/>
<stop offset="1" stop-color="#58C4F6"/>
</linearGradient>
</defs>
</svg>
