<svg width="64" height="64" viewBox="0 0 64 64" fill="none" xmlns="http://www.w3.org/2000/svg">
<path fill-rule="evenodd" clip-rule="evenodd" d="M32 64C49.6731 64 64 49.6731 64 32C64 14.3269 49.6731 0 32 0C14.3269 0 0 14.3269 0 32C0 49.6731 14.3269 64 32 64ZM33.1787 19.6889C32.4494 19.2634 31.5475 19.2634 30.8182 19.6889L21.9173 24.8811C21.1977 25.3008 20.7552 26.0712 20.7552 26.9043V37.0965C20.7552 37.9296 21.1977 38.7 21.9173 39.1197L30.8182 44.3119C31.5475 44.7374 32.4494 44.7374 33.1787 44.3119L42.0796 39.1197C42.7992 38.7 43.2417 37.9296 43.2417 37.0965V26.9043C43.2417 26.0712 42.7992 25.3008 42.0796 24.8811L33.1787 19.6889Z" fill="url(#paint0_linear_4440_23186)"/>
<path opacity="0.16" fill-rule="evenodd" clip-rule="evenodd" d="M32 59.2008C32.2997 59.2008 32.5983 59.1959 32.8957 59.1863L32.9253 52.556C32.9333 50.7744 33.8869 49.1312 35.4298 48.2405L44.2564 43.1444C45.7993 42.2536 47.6992 42.2494 49.246 43.1332L55.0495 46.4493C55.3991 45.8927 55.7291 45.3226 56.0386 44.7398L50.2648 41.3718C48.7259 40.4741 47.7797 38.8266 47.7797 37.0451V26.853C47.7797 25.0714 48.7259 23.424 50.2648 22.5263L55.9965 19.1828C55.6992 18.6274 55.3833 18.0836 55.0494 17.5522L49.246 20.8682C47.6992 21.7521 45.7993 21.7478 44.2564 20.857L35.4298 15.761C33.8869 14.8702 32.9333 13.227 32.9253 11.4455L32.8957 4.81525C32.5983 4.80563 32.2997 4.80078 32 4.80078C31.7 4.80078 31.401 4.80564 31.1033 4.81529L31.0736 11.4455C31.0656 13.227 30.112 14.8702 28.5692 15.761L19.7425 20.857C18.1996 21.7478 16.2998 21.7521 14.7529 20.8682L8.95038 17.5527C8.60076 18.1092 8.27074 18.6794 7.96129 19.2621L13.7342 22.6297C15.273 23.5273 16.2193 25.1748 16.2193 26.9563V37.1485C16.2193 38.93 15.273 40.5775 13.7342 41.4751L8.00328 44.8182C8.30052 45.3735 8.61649 45.9174 8.95032 46.4488L14.7529 43.1332C16.2998 42.2494 18.1996 42.2536 19.7425 43.1444L28.5692 48.2405C30.112 49.1312 31.0656 50.7744 31.0736 52.556L31.1033 59.1863C31.401 59.1959 31.7 59.2008 32 59.2008ZM53.5154 48.6441C49.2267 54.1803 42.8484 58.0163 35.5633 58.9695L35.592 52.5679C35.5957 51.7348 36.0416 50.9664 36.7631 50.5499L45.5898 45.4538C46.3113 45.0372 47.1997 45.0353 47.923 45.4486L53.5154 48.6441ZM59.2001 32.0008C59.2001 35.6519 58.4807 39.135 57.1759 42.3161L51.6084 39.0684C50.8888 38.6486 50.4463 37.8782 50.4463 37.0451V26.853C50.4463 26.0199 50.8888 25.2495 51.6084 24.8297L57.1415 21.602C58.468 24.8056 59.2001 28.3177 59.2001 32.0008ZM35.5633 5.03208C42.8484 5.98529 49.2266 9.82127 53.5154 15.3574L47.923 18.5529C47.1997 18.9662 46.3113 18.9642 45.5898 18.5476L36.7631 13.4516C36.0416 13.035 35.5957 12.2666 35.592 11.4335L35.5633 5.03208ZM10.4844 15.3579C14.7729 9.82177 21.1509 5.98572 28.4356 5.03223L28.407 11.4335C28.4032 12.2666 27.9573 13.035 27.2358 13.4516L18.4092 18.5476C17.6877 18.9642 16.7993 18.9662 16.0759 18.5529L10.4844 15.3579ZM4.80005 32.0008C4.80005 28.3498 5.51936 24.8669 6.82401 21.6859L12.3905 24.9331C13.1101 25.3528 13.5526 26.1232 13.5526 26.9563V37.1485C13.5526 37.9816 13.1101 38.752 12.3905 39.1717L6.85831 42.3989C5.53198 39.1955 4.80005 35.6836 4.80005 32.0008ZM28.4356 58.9693C21.1508 58.0158 14.7729 54.1797 10.4843 48.6436L16.0759 45.4486C16.7993 45.0353 17.6877 45.0372 18.4092 45.4538L27.2358 50.5499C27.9573 50.9664 28.4032 51.7348 28.407 52.5679L28.4356 58.9693ZM34.5255 17.3854L43.4264 22.5776C44.9652 23.4753 45.9115 25.1228 45.9115 26.9043V37.0965C45.9115 38.878 44.9652 40.5255 43.4264 41.4231L34.5255 46.6153C32.9659 47.5251 31.0373 47.5251 29.4777 46.6153L20.5768 41.4231C19.038 40.5255 18.0917 38.878 18.0917 37.0965V26.9043C18.0917 25.1228 19.0379 23.4753 20.5768 22.5776L29.4777 17.3854C31.0373 16.4756 32.9659 16.4757 34.5255 17.3854Z" fill="#25174E"/>
<defs>
<linearGradient id="paint0_linear_4440_23186" x1="0" y1="0" x2="64" y2="64" gradientUnits="userSpaceOnUse">
<stop stop-color="#2AD0CA"/>
<stop offset="0.0918579" stop-color="#7EE19B"/>
<stop offset="0.200521" stop-color="#E1F664"/>
<stop offset="0.398438" stop-color="#FEB0FE"/>
<stop offset="0.622396" stop-color="#ABB3FC"/>
<stop offset="0.809896" stop-color="#5DF7A4"/>
<stop offset="1" stop-color="#58C4F6"/>
</linearGradient>
</defs>
</svg>
