<svg width="216" height="44" viewBox="0 0 216 44" fill="none" xmlns="http://www.w3.org/2000/svg">
<path d="M27.75 21C32.7206 21 36.75 16.9706 36.75 12C36.75 7.02944 32.7206 3 27.75 3C22.7794 3 18.75 7.02944 18.75 12C18.75 16.9706 22.7794 21 27.75 21Z" stroke="white" stroke-opacity="0.5" stroke-width="2" stroke-miterlimit="10"/>
<path d="M25.875 9.375L28.125 7.875V16.5" stroke="white" stroke-opacity="0.5" stroke-width="2" stroke-linecap="round" stroke-linejoin="round"/>
<path d="M6.57227 41L5.95117 38.9609H2.82812L2.20703 41H0.25L3.27344 32.3984H5.49414L8.5293 41H6.57227ZM5.51758 37.4375L4.89648 35.4453C4.85742 35.3125 4.80469 35.1426 4.73828 34.9355C4.67578 34.7246 4.61133 34.5117 4.54492 34.2969C4.48242 34.0781 4.43164 33.8887 4.39258 33.7285C4.35352 33.8887 4.29883 34.0879 4.22852 34.3262C4.16211 34.5605 4.09766 34.7832 4.03516 34.9941C3.97266 35.2051 3.92773 35.3555 3.90039 35.4453L3.28516 37.4375H5.51758ZM13.1172 34.3262C13.8555 34.3262 14.4512 34.6133 14.9043 35.1875C15.3613 35.7617 15.5898 36.6035 15.5898 37.7129C15.5898 38.4551 15.4824 39.0801 15.2676 39.5879C15.0527 40.0918 14.7559 40.4727 14.377 40.7305C13.998 40.9883 13.5625 41.1172 13.0703 41.1172C12.7539 41.1172 12.4824 41.0781 12.2559 41C12.0293 40.918 11.8359 40.8145 11.6758 40.6895C11.5156 40.5605 11.377 40.4238 11.2598 40.2793H11.166C11.1973 40.4355 11.2207 40.5957 11.2363 40.7598C11.252 40.9238 11.2598 41.084 11.2598 41.2402V43.8828H9.47266V34.4492H10.9258L11.1777 35.2988H11.2598C11.377 35.123 11.5195 34.9609 11.6875 34.8125C11.8555 34.6641 12.0566 34.5469 12.291 34.4609C12.5293 34.3711 12.8047 34.3262 13.1172 34.3262ZM12.543 35.7559C12.2305 35.7559 11.9824 35.8203 11.7988 35.9492C11.6152 36.0781 11.4805 36.2715 11.3945 36.5293C11.3125 36.7871 11.2676 37.1133 11.2598 37.5078V37.7012C11.2598 38.123 11.2988 38.4805 11.377 38.7734C11.459 39.0664 11.5938 39.2891 11.7812 39.4414C11.9727 39.5938 12.2344 39.6699 12.5664 39.6699C12.8398 39.6699 13.0645 39.5938 13.2402 39.4414C13.416 39.2891 13.5469 39.0664 13.6328 38.7734C13.7227 38.4766 13.7676 38.1152 13.7676 37.6895C13.7676 37.0488 13.668 36.5664 13.4688 36.2422C13.2695 35.918 12.9609 35.7559 12.543 35.7559ZM20.7109 34.3262C21.4492 34.3262 22.0449 34.6133 22.498 35.1875C22.9551 35.7617 23.1836 36.6035 23.1836 37.7129C23.1836 38.4551 23.0762 39.0801 22.8613 39.5879C22.6465 40.0918 22.3496 40.4727 21.9707 40.7305C21.5918 40.9883 21.1562 41.1172 20.6641 41.1172C20.3477 41.1172 20.0762 41.0781 19.8496 41C19.623 40.918 19.4297 40.8145 19.2695 40.6895C19.1094 40.5605 18.9707 40.4238 18.8535 40.2793H18.7598C18.791 40.4355 18.8145 40.5957 18.8301 40.7598C18.8457 40.9238 18.8535 41.084 18.8535 41.2402V43.8828H17.0664V34.4492H18.5195L18.7715 35.2988H18.8535C18.9707 35.123 19.1133 34.9609 19.2812 34.8125C19.4492 34.6641 19.6504 34.5469 19.8848 34.4609C20.123 34.3711 20.3984 34.3262 20.7109 34.3262ZM20.1367 35.7559C19.8242 35.7559 19.5762 35.8203 19.3926 35.9492C19.209 36.0781 19.0742 36.2715 18.9883 36.5293C18.9062 36.7871 18.8613 37.1133 18.8535 37.5078V37.7012C18.8535 38.123 18.8926 38.4805 18.9707 38.7734C19.0527 39.0664 19.1875 39.2891 19.375 39.4414C19.5664 39.5938 19.8281 39.6699 20.1602 39.6699C20.4336 39.6699 20.6582 39.5938 20.834 39.4414C21.0098 39.2891 21.1406 39.0664 21.2266 38.7734C21.3164 38.4766 21.3613 38.1152 21.3613 37.6895C21.3613 37.0488 21.2617 36.5664 21.0625 36.2422C20.8633 35.918 20.5547 35.7559 20.1367 35.7559ZM28.3164 34.3262C28.4062 34.3262 28.5098 34.332 28.627 34.3438C28.748 34.3516 28.8457 34.3633 28.9199 34.3789L28.7852 36.0547C28.7266 36.0352 28.6426 36.0215 28.5332 36.0137C28.4277 36.002 28.3359 35.9961 28.2578 35.9961C28.0273 35.9961 27.8027 36.0254 27.584 36.084C27.3691 36.1426 27.1758 36.2383 27.0039 36.3711C26.832 36.5 26.6953 36.6719 26.5938 36.8867C26.4961 37.0977 26.4473 37.3574 26.4473 37.666V41H24.6602V34.4492H26.0137L26.2773 35.5508H26.3652C26.4941 35.3281 26.6543 35.125 26.8457 34.9414C27.041 34.7539 27.2617 34.6055 27.5078 34.4961C27.7578 34.3828 28.0273 34.3262 28.3164 34.3262ZM36.0625 37.7129C36.0625 38.2598 35.9883 38.7441 35.8398 39.166C35.6953 39.5879 35.4824 39.9453 35.2012 40.2383C34.9238 40.5273 34.5879 40.7461 34.1934 40.8945C33.8027 41.043 33.3613 41.1172 32.8691 41.1172C32.4082 41.1172 31.9844 41.043 31.5977 40.8945C31.2148 40.7461 30.8809 40.5273 30.5957 40.2383C30.3145 39.9453 30.0957 39.5879 29.9395 39.166C29.7871 38.7441 29.7109 38.2598 29.7109 37.7129C29.7109 36.9863 29.8398 36.3711 30.0977 35.8672C30.3555 35.3633 30.7227 34.9805 31.1992 34.7188C31.6758 34.457 32.2441 34.3262 32.9043 34.3262C33.5176 34.3262 34.0605 34.457 34.5332 34.7188C35.0098 34.9805 35.3828 35.3633 35.6523 35.8672C35.9258 36.3711 36.0625 36.9863 36.0625 37.7129ZM31.5332 37.7129C31.5332 38.1426 31.5801 38.5039 31.6738 38.7969C31.7676 39.0898 31.9141 39.3105 32.1133 39.459C32.3125 39.6074 32.5723 39.6816 32.8926 39.6816C33.209 39.6816 33.4648 39.6074 33.6602 39.459C33.8594 39.3105 34.0039 39.0898 34.0938 38.7969C34.1875 38.5039 34.2344 38.1426 34.2344 37.7129C34.2344 37.2793 34.1875 36.9199 34.0938 36.6348C34.0039 36.3457 33.8594 36.1289 33.6602 35.9844C33.4609 35.8398 33.2012 35.7676 32.8809 35.7676C32.4082 35.7676 32.0645 35.9297 31.8496 36.2539C31.6387 36.5781 31.5332 37.0645 31.5332 37.7129ZM39.0977 41L36.6016 34.4492H38.4707L39.7363 38.1816C39.8066 38.4004 39.8613 38.6309 39.9004 38.873C39.9434 39.1152 39.9727 39.332 39.9883 39.5234H40.0352C40.0469 39.3164 40.0742 39.0957 40.1172 38.8613C40.1641 38.627 40.2246 38.4004 40.2988 38.1816L41.5586 34.4492H43.4277L40.9316 41H39.0977ZM47.0547 34.3145C47.9336 34.3145 48.6074 34.5059 49.0762 34.8887C49.5449 35.2715 49.7793 35.8535 49.7793 36.6348V41H48.5312L48.1855 40.1094H48.1387C47.9512 40.3438 47.7598 40.5352 47.5645 40.6836C47.3691 40.832 47.1445 40.9414 46.8906 41.0117C46.6367 41.082 46.3281 41.1172 45.9648 41.1172C45.5781 41.1172 45.2305 41.043 44.9219 40.8945C44.6172 40.7461 44.377 40.5195 44.2012 40.2148C44.0254 39.9062 43.9375 39.5156 43.9375 39.043C43.9375 38.3477 44.1816 37.8359 44.6699 37.5078C45.1582 37.1758 45.8906 36.9922 46.8672 36.957L48.0039 36.9219V36.6348C48.0039 36.291 47.9141 36.0391 47.7344 35.8789C47.5547 35.7188 47.3047 35.6387 46.9844 35.6387C46.668 35.6387 46.3574 35.6836 46.0527 35.7734C45.748 35.8633 45.4434 35.9766 45.1387 36.1133L44.5469 34.9062C44.8945 34.7227 45.2832 34.5781 45.7129 34.4727C46.1465 34.3672 46.5938 34.3145 47.0547 34.3145ZM48.0039 37.9648L47.3125 37.9883C46.7344 38.0039 46.332 38.1074 46.1055 38.2988C45.8828 38.4902 45.7715 38.7422 45.7715 39.0547C45.7715 39.3281 45.8516 39.5234 46.0117 39.6406C46.1719 39.7539 46.3809 39.8105 46.6387 39.8105C47.0215 39.8105 47.3438 39.6973 47.6055 39.4707C47.8711 39.2441 48.0039 38.9219 48.0039 38.5039V37.9648ZM53.4121 41H51.625V31.8828H53.4121V41Z" fill="white" fill-opacity="0.5"/>
<path d="M71.25 22H143.75" stroke="white" stroke-opacity="0.5"/>
<path d="M187.75 21C192.721 21 196.75 16.9706 196.75 12C196.75 7.02944 192.721 3 187.75 3C182.779 3 178.75 7.02944 178.75 12C178.75 16.9706 182.779 21 187.75 21Z" stroke="url(#paint0_linear_5181_24633)" stroke-width="2" stroke-miterlimit="10"/>
<path d="M185.678 8.87823C185.88 8.40073 186.241 8.00773 186.7 7.76571C187.159 7.52369 187.687 7.44751 188.195 7.55005C188.703 7.6526 189.161 7.92757 189.489 8.32846C189.818 8.72936 189.999 9.23155 190 9.75011C190.002 10.1981 189.868 10.6362 189.616 11.0064V11.0064L185.5 16.5001H190" stroke="url(#paint1_linear_5181_24633)" stroke-width="2" stroke-linecap="round" stroke-linejoin="round"/>
<path d="M163.564 32.4336C164.67 32.4336 165.477 32.6719 165.984 33.1484C166.492 33.6211 166.746 34.2734 166.746 35.1055C166.746 35.4805 166.689 35.8398 166.576 36.1836C166.463 36.5234 166.277 36.8262 166.02 37.0918C165.766 37.3574 165.426 37.5684 165 37.7246C164.574 37.877 164.049 37.9531 163.424 37.9531H162.645V41H160.828V32.4336H163.564ZM163.471 33.9219H162.645V36.4648H163.242C163.582 36.4648 163.877 36.4199 164.127 36.3301C164.377 36.2402 164.57 36.0996 164.707 35.9082C164.844 35.7168 164.912 35.4707 164.912 35.1699C164.912 34.748 164.795 34.4355 164.561 34.2324C164.326 34.0254 163.963 33.9219 163.471 33.9219ZM174.234 34.4492V41H172.863L172.623 40.1621H172.529C172.389 40.3848 172.213 40.5664 172.002 40.707C171.791 40.8477 171.559 40.9512 171.305 41.0176C171.051 41.084 170.787 41.1172 170.514 41.1172C170.045 41.1172 169.637 41.0352 169.289 40.8711C168.941 40.7031 168.67 40.4434 168.475 40.0918C168.283 39.7402 168.188 39.2832 168.188 38.7207V34.4492H169.975V38.2754C169.975 38.7441 170.059 39.0977 170.227 39.3359C170.395 39.5742 170.662 39.6934 171.029 39.6934C171.393 39.6934 171.678 39.6113 171.885 39.4473C172.092 39.2793 172.236 39.0352 172.318 38.7148C172.404 38.3906 172.447 37.9961 172.447 37.5312V34.4492H174.234ZM179.766 34.3262C179.855 34.3262 179.959 34.332 180.076 34.3438C180.197 34.3516 180.295 34.3633 180.369 34.3789L180.234 36.0547C180.176 36.0352 180.092 36.0215 179.982 36.0137C179.877 36.002 179.785 35.9961 179.707 35.9961C179.477 35.9961 179.252 36.0254 179.033 36.084C178.818 36.1426 178.625 36.2383 178.453 36.3711C178.281 36.5 178.145 36.6719 178.043 36.8867C177.945 37.0977 177.896 37.3574 177.896 37.666V41H176.109V34.4492H177.463L177.727 35.5508H177.814C177.943 35.3281 178.104 35.125 178.295 34.9414C178.49 34.7539 178.711 34.6055 178.957 34.4961C179.207 34.3828 179.477 34.3262 179.766 34.3262ZM184.219 41.1172C183.57 41.1172 183.018 41 182.561 40.7656C182.104 40.5273 181.756 40.1602 181.518 39.6641C181.279 39.168 181.16 38.5332 181.16 37.7598C181.16 36.959 181.295 36.3066 181.564 35.8027C181.838 35.2949 182.215 34.9219 182.695 34.6836C183.18 34.4453 183.74 34.3262 184.377 34.3262C184.83 34.3262 185.221 34.3711 185.549 34.4609C185.881 34.5469 186.17 34.6504 186.416 34.7715L185.889 36.1543C185.607 36.041 185.346 35.9492 185.104 35.8789C184.861 35.8047 184.619 35.7676 184.377 35.7676C184.064 35.7676 183.805 35.8418 183.598 35.9902C183.391 36.1348 183.236 36.3535 183.135 36.6465C183.033 36.9395 182.982 37.3066 182.982 37.748C182.982 38.1816 183.037 38.541 183.146 38.8262C183.256 39.1113 183.414 39.3242 183.621 39.4648C183.828 39.6016 184.08 39.6699 184.377 39.6699C184.748 39.6699 185.078 39.6211 185.367 39.5234C185.656 39.4219 185.938 39.2812 186.211 39.1016V40.6309C185.938 40.8027 185.65 40.9258 185.35 41C185.053 41.0781 184.676 41.1172 184.219 41.1172ZM189.521 31.8828V33.7402C189.521 34.0645 189.51 34.373 189.486 34.666C189.467 34.959 189.451 35.166 189.439 35.2871H189.533C189.674 35.0605 189.84 34.877 190.031 34.7363C190.227 34.5957 190.441 34.4922 190.676 34.4258C190.91 34.3594 191.162 34.3262 191.432 34.3262C191.904 34.3262 192.316 34.4102 192.668 34.5781C193.02 34.7422 193.293 35.002 193.488 35.3574C193.684 35.709 193.781 36.166 193.781 36.7285V41H191.994V37.1738C191.994 36.7051 191.908 36.3516 191.736 36.1133C191.564 35.875 191.299 35.7559 190.939 35.7559C190.58 35.7559 190.297 35.8398 190.09 36.0078C189.883 36.1719 189.736 36.416 189.65 36.7402C189.564 37.0605 189.521 37.4531 189.521 37.918V41H187.734V31.8828H189.521ZM198.305 34.3145C199.184 34.3145 199.857 34.5059 200.326 34.8887C200.795 35.2715 201.029 35.8535 201.029 36.6348V41H199.781L199.436 40.1094H199.389C199.201 40.3438 199.01 40.5352 198.814 40.6836C198.619 40.832 198.395 40.9414 198.141 41.0117C197.887 41.082 197.578 41.1172 197.215 41.1172C196.828 41.1172 196.48 41.043 196.172 40.8945C195.867 40.7461 195.627 40.5195 195.451 40.2148C195.275 39.9062 195.188 39.5156 195.188 39.043C195.188 38.3477 195.432 37.8359 195.92 37.5078C196.408 37.1758 197.141 36.9922 198.117 36.957L199.254 36.9219V36.6348C199.254 36.291 199.164 36.0391 198.984 35.8789C198.805 35.7188 198.555 35.6387 198.234 35.6387C197.918 35.6387 197.607 35.6836 197.303 35.7734C196.998 35.8633 196.693 35.9766 196.389 36.1133L195.797 34.9062C196.145 34.7227 196.533 34.5781 196.963 34.4727C197.396 34.3672 197.844 34.3145 198.305 34.3145ZM199.254 37.9648L198.562 37.9883C197.984 38.0039 197.582 38.1074 197.355 38.2988C197.133 38.4902 197.021 38.7422 197.021 39.0547C197.021 39.3281 197.102 39.5234 197.262 39.6406C197.422 39.7539 197.631 39.8105 197.889 39.8105C198.271 39.8105 198.594 39.6973 198.855 39.4707C199.121 39.2441 199.254 38.9219 199.254 38.5039V37.9648ZM207.445 39.0547C207.445 39.5 207.34 39.877 207.129 40.1855C206.922 40.4902 206.611 40.7227 206.197 40.8828C205.783 41.0391 205.268 41.1172 204.65 41.1172C204.193 41.1172 203.801 41.0879 203.473 41.0293C203.148 40.9707 202.82 40.873 202.488 40.7363V39.2598C202.844 39.4199 203.225 39.5527 203.631 39.6582C204.041 39.7598 204.4 39.8105 204.709 39.8105C205.057 39.8105 205.305 39.7598 205.453 39.6582C205.605 39.5527 205.682 39.416 205.682 39.248C205.682 39.1387 205.65 39.041 205.588 38.9551C205.529 38.8652 205.4 38.7656 205.201 38.6562C205.002 38.543 204.689 38.3965 204.264 38.2168C203.854 38.0449 203.516 37.8711 203.25 37.6953C202.988 37.5195 202.793 37.3125 202.664 37.0742C202.539 36.832 202.477 36.5254 202.477 36.1543C202.477 35.5488 202.711 35.0938 203.18 34.7891C203.652 34.4805 204.283 34.3262 205.072 34.3262C205.479 34.3262 205.865 34.3672 206.232 34.4492C206.604 34.5312 206.984 34.6621 207.375 34.8418L206.836 36.1309C206.512 35.9902 206.205 35.875 205.916 35.7852C205.631 35.6953 205.34 35.6504 205.043 35.6504C204.781 35.6504 204.584 35.6855 204.451 35.7559C204.318 35.8262 204.252 35.9336 204.252 36.0781C204.252 36.1836 204.285 36.2773 204.352 36.3594C204.422 36.4414 204.555 36.5332 204.75 36.6348C204.949 36.7324 205.24 36.8594 205.623 37.0156C205.994 37.168 206.316 37.3281 206.59 37.4961C206.863 37.6602 207.074 37.8652 207.223 38.1113C207.371 38.3535 207.445 38.668 207.445 39.0547ZM211.541 34.3262C212.146 34.3262 212.668 34.4434 213.105 34.6777C213.543 34.9082 213.881 35.2441 214.119 35.6855C214.357 36.127 214.477 36.666 214.477 37.3027V38.1699H210.252C210.271 38.6738 210.422 39.0703 210.703 39.3594C210.988 39.6445 211.383 39.7871 211.887 39.7871C212.305 39.7871 212.688 39.7441 213.035 39.6582C213.383 39.5723 213.74 39.4434 214.107 39.2715V40.6543C213.783 40.8145 213.443 40.9316 213.088 41.0059C212.736 41.0801 212.309 41.1172 211.805 41.1172C211.148 41.1172 210.566 40.9961 210.059 40.7539C209.555 40.5117 209.158 40.1426 208.869 39.6465C208.584 39.1504 208.441 38.5254 208.441 37.7715C208.441 37.0059 208.57 36.3691 208.828 35.8613C209.09 35.3496 209.453 34.9668 209.918 34.7129C210.383 34.4551 210.924 34.3262 211.541 34.3262ZM211.553 35.5977C211.205 35.5977 210.916 35.709 210.686 35.9316C210.459 36.1543 210.328 36.5039 210.293 36.9805H212.801C212.797 36.7148 212.748 36.4785 212.654 36.2715C212.564 36.0645 212.428 35.9004 212.244 35.7793C212.064 35.6582 211.834 35.5977 211.553 35.5977Z" fill="url(#paint2_linear_5181_24633)"/>
<defs>
<linearGradient id="paint0_linear_5181_24633" x1="178.75" y1="3" x2="196.75" y2="21" gradientUnits="userSpaceOnUse">
<stop stop-color="#2AD0CA"/>
<stop offset="0.0918579" stop-color="#7EE19B"/>
<stop offset="0.200521" stop-color="#E1F664"/>
<stop offset="0.398438" stop-color="#FEB0FE"/>
<stop offset="0.622396" stop-color="#ABB3FC"/>
<stop offset="0.809896" stop-color="#5DF7A4"/>
<stop offset="1" stop-color="#58C4F6"/>
</linearGradient>
<linearGradient id="paint1_linear_5181_24633" x1="185.5" y1="7.50562" x2="192.698" y2="11.107" gradientUnits="userSpaceOnUse">
<stop stop-color="#2AD0CA"/>
<stop offset="0.0918579" stop-color="#7EE19B"/>
<stop offset="0.200521" stop-color="#E1F664"/>
<stop offset="0.398438" stop-color="#FEB0FE"/>
<stop offset="0.622396" stop-color="#ABB3FC"/>
<stop offset="0.809896" stop-color="#5DF7A4"/>
<stop offset="1" stop-color="#58C4F6"/>
</linearGradient>
<linearGradient id="paint2_linear_5181_24633" x1="159.75" y1="28" x2="168.203" y2="57.5849" gradientUnits="userSpaceOnUse">
<stop stop-color="#2AD0CA"/>
<stop offset="0.0918579" stop-color="#7EE19B"/>
<stop offset="0.200521" stop-color="#E1F664"/>
<stop offset="0.398438" stop-color="#FEB0FE"/>
<stop offset="0.622396" stop-color="#ABB3FC"/>
<stop offset="0.809896" stop-color="#5DF7A4"/>
<stop offset="1" stop-color="#58C4F6"/>
</linearGradient>
</defs>
</svg>
