<svg width="32" height="32" viewBox="0 0 32 32" fill="none" xmlns="http://www.w3.org/2000/svg">
<path d="M13.5972 12.1632H19.6793H29.5302C29.5302 6.72388 25.1198 2.31445 19.6793 2.31445H15.0502L13.5972 12.1632Z" fill="#FFBA7B"/>
<path d="M13.9639 8.02539C13.9639 8.02539 18.0137 8.02539 21.5125 8.02539C27.1282 8.02539 28.7475 11.4829 28.7475 11.4829H13.9639V8.02539Z" fill="#F87AA3"/>
<path d="M6.86962 5.96188C6.93096 5.87002 6.98587 5.775 7.04115 5.67935C8.07882 3.88399 11.7546 2.20551 13.4928 3.20581C14.167 3.59381 14.4331 6.55858 14.1246 8.86361L12.8257 15.912C12.8003 16.0498 12.7633 16.1857 12.7032 16.3123C11.7886 18.2395 9.0979 19.2068 7.13303 18.3637C5.05558 17.4723 4.84716 13.8404 4.84717 11.3258C4.84718 9.12975 6.4608 6.57412 6.86962 5.96188Z" fill="white"/>
<path d="M11.0102 7.92047C11.717 7.92047 12.29 7.34584 12.29 6.63699C12.29 6.39467 12.2229 6.16804 12.1066 5.97468C12.0466 6.13222 11.8944 6.24409 11.7162 6.24409C11.4854 6.24409 11.2983 6.05646 11.2983 5.825C11.2983 5.66653 11.386 5.52862 11.5153 5.45737C11.3604 5.39054 11.1896 5.35352 11.0102 5.35352C10.3034 5.35352 9.73047 5.92814 9.73047 6.63699C9.73047 7.34584 10.3034 7.92047 11.0102 7.92047Z" fill="#152239"/>
<path fill-rule="evenodd" clip-rule="evenodd" d="M13.6232 12.0583L14.924 2.00955C14.7611 2.0032 14.5974 2 14.433 2C7.56642 2 2 7.58216 2 14.4681C2 19.6567 5.16044 24.105 9.65612 25.9827L10.3315 21.1998C10.3315 21.1998 10.4602 24.7428 11.7082 26.6358C12.5851 26.8325 13.497 26.9362 14.433 26.9362C15.6808 26.9362 16.8857 26.7518 18.0221 26.4088C14.8309 22.8663 14.7936 16.4242 16.064 12.0583H13.6232ZM12.0236 3.35035C13.2076 3.07843 14.1053 4.15172 13.9305 5.35711L12.6391 14.26C12.2147 17.1867 9.40061 19.7021 7.246 17.6827C5.89633 16.4178 4.97774 14.1593 5.77945 10.1341C6.72192 5.4023 9.84448 3.85083 12.0236 3.35035Z" fill="#152239"/>
<path fill-rule="evenodd" clip-rule="evenodd" d="M14.2145 11.3773H24.0969H28.8507C28.6775 9.89165 28.1549 8.51211 27.3723 7.32196C25.6999 4.77853 22.8173 3.10013 19.5521 3.10013H15.4319L14.2145 11.3773ZM12.9438 12.4774L14.4849 2L19.5521 2C24.9517 2 29.4046 6.10783 29.9529 11.3773C29.9905 11.7388 29.9999 12.1059 29.9999 12.4774H12.9438Z" fill="#152239"/>
<path d="M29.0858 12.1628C28.2001 12.0388 23.8638 12.5763 24.097 11.377C24.4526 9.54811 25.7065 8.03874 27.3724 7.32166C29.0484 6.60026 29.575 12.2312 29.0858 12.1628Z" fill="#152239"/>
<path d="M29.8437 30.0577C29.8437 30.0577 14.9033 31.4363 14.9033 13.2129C23.9884 13.2129 29.2758 21.1439 29.8437 30.0577Z" fill="#152239"/>
</svg>
