<svg width="17" height="16" viewBox="0 0 17 16" fill="none" xmlns="http://www.w3.org/2000/svg">
<g clip-path="url(#clip0_4515_1299)">
<g filter="url(#filter0_d_4515_1299)">
<path d="M8.5 16C12.9183 16 16.5 12.4183 16.5 8C16.5 3.58172 12.9183 0 8.5 0C4.08172 0 0.5 3.58172 0.5 8C0.5 12.4183 4.08172 16 8.5 16Z" fill="black"/>
</g>
<path d="M8.5 16C12.9183 16 16.5 12.4183 16.5 8C16.5 3.58172 12.9183 0 8.5 0C4.08172 0 0.5 3.58172 0.5 8C0.5 12.4183 4.08172 16 8.5 16Z" fill="#3E73C4"/>
<path style="mix-blend-mode:soft-light" d="M8.5 16C12.9183 16 16.5 12.4183 16.5 8C16.5 3.58172 12.9183 0 8.5 0C4.08172 0 0.5 3.58172 0.5 8C0.5 12.4183 4.08172 16 8.5 16Z" fill="url(#paint0_linear_4515_1299)"/>
<path d="M8.49993 15.7342C12.7709 15.7342 16.2333 12.2719 16.2333 8.00091C16.2333 3.72991 12.7709 0.267578 8.49993 0.267578C4.22893 0.267578 0.766602 3.72991 0.766602 8.00091C0.766602 12.2719 4.22893 15.7342 8.49993 15.7342Z" stroke="black" stroke-opacity="0.097" stroke-width="1.06667"/>
<path d="M10.6448 9.13358C10.6448 8.00078 9.96214 7.61252 8.5968 7.45038C7.62187 7.32078 7.4272 7.06212 7.4272 6.60878C7.4272 6.15545 7.75254 5.86425 8.40214 5.86425C8.9872 5.86425 9.31254 6.05838 9.47467 6.54425C9.49157 6.59123 9.52245 6.63191 9.56317 6.6608C9.60389 6.68969 9.65248 6.70542 9.7024 6.70585H10.2224C10.2524 6.70665 10.2823 6.70135 10.3102 6.69025C10.3382 6.67916 10.3635 6.66251 10.3848 6.64131C10.4061 6.62012 10.4229 6.59482 10.4341 6.56695C10.4454 6.53908 10.4508 6.50922 10.4501 6.47918V6.44718C10.3866 6.09566 10.2087 5.77497 9.94418 5.53493C9.67964 5.29488 9.34323 5.14892 8.9872 5.11972V4.34318C8.9872 4.21358 8.8896 4.11652 8.72747 4.08398H8.23947C8.10987 4.08398 8.01227 4.18105 7.97974 4.34318V5.08772C7.00427 5.21678 6.3872 5.86425 6.3872 6.67385C6.3872 7.74158 7.0368 8.16238 8.40214 8.32452C9.31254 8.48612 9.6048 8.68078 9.6048 9.19865C9.6048 9.71598 9.14987 10.0723 8.53227 10.0723C7.68694 10.0723 7.39467 9.71652 7.29707 9.23065C7.26507 9.10158 7.16694 9.03652 7.06934 9.03652H6.5168C6.48681 9.03579 6.45699 9.04115 6.42913 9.05228C6.40127 9.0634 6.37596 9.08006 6.35472 9.10125C6.33348 9.12244 6.31676 9.14771 6.30557 9.17555C6.29438 9.20338 6.28895 9.23319 6.2896 9.26319V9.29518C6.4192 10.1048 6.93974 10.6872 8.01227 10.8493V11.6264C8.01227 11.7555 8.10987 11.8531 8.272 11.8851H8.76C8.88961 11.8851 8.9872 11.788 9.01974 11.6264V10.8488C9.9952 10.6872 10.6448 10.0072 10.6448 9.13305V9.13358Z" fill="white"/>
<path d="M6.84224 12.5321C4.30678 11.6255 3.00651 8.80946 3.94944 6.31719C4.43691 4.95719 5.50944 3.92199 6.84224 3.43612C6.97238 3.37159 7.03691 3.27452 7.03691 3.11239V2.65906C7.03691 2.52999 6.97238 2.43292 6.84224 2.40039C6.80971 2.40039 6.74464 2.40039 6.71211 2.43239C5.98061 2.66083 5.30151 3.03171 4.71394 3.52368C4.12636 4.01565 3.6419 4.61899 3.28845 5.29896C2.93501 5.97894 2.71956 6.72211 2.65451 7.48568C2.58947 8.24926 2.67611 9.01817 2.90944 9.74812C3.49398 11.5615 4.89184 12.9535 6.71211 13.5359C6.84224 13.6004 6.97238 13.5359 7.00438 13.4063C7.03691 13.3743 7.03691 13.3412 7.03691 13.2767V12.8233C7.03691 12.7263 6.93984 12.5972 6.84224 12.5321ZM10.2876 2.43292C10.1574 2.36786 10.0273 2.43292 9.99531 2.56199C9.96278 2.59452 9.96278 2.62706 9.96278 2.69159V3.14492C9.96278 3.27452 10.0598 3.40359 10.1574 3.46866C12.6929 4.37532 13.9932 7.19132 13.0502 9.68359C12.5628 11.0436 11.4902 12.0788 10.1574 12.5647C10.0273 12.6292 9.96278 12.7263 9.96278 12.8884V13.3417C9.96278 13.4708 10.0273 13.5679 10.1574 13.6004C10.19 13.6004 10.255 13.6004 10.2876 13.5684C11.0191 13.34 11.6982 12.9691 12.2858 12.4771C12.8733 11.9851 13.3578 11.3818 13.7112 10.7018C14.0647 10.0218 14.2801 9.27868 14.3452 8.5151C14.4102 7.75152 14.3236 6.98261 14.0902 6.25266C13.5057 4.40732 12.0753 3.01532 10.2876 2.43292Z" fill="white"/>
</g>
<defs>
<filter id="filter0_d_4515_1299" x="-0.566667" y="-0.533333" width="18.1333" height="18.1333" filterUnits="userSpaceOnUse" color-interpolation-filters="sRGB">
<feFlood flood-opacity="0" result="BackgroundImageFix"/>
<feColorMatrix in="SourceAlpha" type="matrix" values="0 0 0 0 0 0 0 0 0 0 0 0 0 0 0 0 0 0 127 0" result="hardAlpha"/>
<feOffset dy="0.533333"/>
<feGaussianBlur stdDeviation="0.533333"/>
<feColorMatrix type="matrix" values="0 0 0 0 0 0 0 0 0 0 0 0 0 0 0 0 0 0 0.199474 0"/>
<feBlend mode="normal" in2="BackgroundImageFix" result="effect1_dropShadow_4515_1299"/>
<feBlend mode="normal" in="SourceGraphic" in2="effect1_dropShadow_4515_1299" result="shape"/>
</filter>
<linearGradient id="paint0_linear_4515_1299" x1="8.5" y1="0" x2="8.5" y2="16" gradientUnits="userSpaceOnUse">
<stop stop-color="white" stop-opacity="0.5"/>
<stop offset="1" stop-opacity="0.5"/>
</linearGradient>
<clipPath id="clip0_4515_1299">
<rect width="16" height="16" fill="white" transform="translate(0.5)"/>
</clipPath>
</defs>
</svg>
