<svg width="32" height="33" viewBox="0 0 32 33" fill="none" xmlns="http://www.w3.org/2000/svg">
<g clip-path="url(#clip0_4515_2292)">
<g filter="url(#filter0_d_4515_2292)">
<path d="M16 32.5C24.8366 32.5 32 25.3366 32 16.5C32 7.66344 24.8366 0.5 16 0.5C7.16344 0.5 0 7.66344 0 16.5C0 25.3366 7.16344 32.5 16 32.5Z" fill="black"/>
</g>
<path d="M16 32.5C24.8366 32.5 32 25.3366 32 16.5C32 7.66344 24.8366 0.5 16 0.5C7.16344 0.5 0 7.66344 0 16.5C0 25.3366 7.16344 32.5 16 32.5Z" fill="#3E73C4"/>
<path style="mix-blend-mode:soft-light" d="M16 32.5C24.8366 32.5 32 25.3366 32 16.5C32 7.66344 24.8366 0.5 16 0.5C7.16344 0.5 0 7.66344 0 16.5C0 25.3366 7.16344 32.5 16 32.5Z" fill="url(#paint0_linear_4515_2292)"/>
<path d="M16.0001 31.9665C24.5421 31.9665 31.4668 25.0419 31.4668 16.4999C31.4668 7.95786 24.5421 1.0332 16.0001 1.0332C7.45811 1.0332 0.533447 7.95786 0.533447 16.4999C0.533447 25.0419 7.45811 31.9665 16.0001 31.9665Z" stroke="black" stroke-opacity="0.097" stroke-width="1.06667"/>
<path d="M20.2896 18.7672C20.2896 16.5016 18.9243 15.725 16.1936 15.4008C14.2437 15.1416 13.8544 14.6242 13.8544 13.7176C13.8544 12.8109 14.5051 12.2285 15.8043 12.2285C16.9744 12.2285 17.6251 12.6168 17.9493 13.5885C17.9831 13.6825 18.0449 13.7638 18.1263 13.8216C18.2078 13.8794 18.305 13.9108 18.4048 13.9117H19.4448C19.5049 13.9133 19.5646 13.9027 19.6205 13.8805C19.6763 13.8583 19.7271 13.825 19.7697 13.7826C19.8123 13.7402 19.8458 13.6896 19.8683 13.6339C19.8907 13.5782 19.9016 13.5184 19.9003 13.4584V13.3944C19.7732 12.6913 19.4175 12.0499 18.8884 11.5699C18.3593 11.0898 17.6865 10.7978 16.9744 10.7394V9.18637C16.9744 8.92717 16.7792 8.73304 16.4549 8.66797H15.4789C15.2197 8.66797 15.0245 8.8621 14.9595 9.18637V10.6754C13.0085 10.9336 11.7744 12.2285 11.7744 13.8477C11.7744 15.9832 13.0736 16.8248 15.8043 17.149C17.6251 17.4722 18.2096 17.8616 18.2096 18.8973C18.2096 19.932 17.2997 20.6445 16.0645 20.6445C14.3739 20.6445 13.7893 19.933 13.5941 18.9613C13.5301 18.7032 13.3339 18.573 13.1387 18.573H12.0336C11.9736 18.5716 11.914 18.5823 11.8583 18.6046C11.8025 18.6268 11.7519 18.6601 11.7094 18.7025C11.667 18.7449 11.6335 18.7954 11.6111 18.8511C11.5888 18.9068 11.5779 18.9664 11.5792 19.0264V19.0904C11.8384 20.7096 12.8795 21.8744 15.0245 22.1986V23.7528C15.0245 24.0109 15.2197 24.2061 15.544 24.2701H16.52C16.7792 24.2701 16.9744 24.076 17.0395 23.7528V22.1976C18.9904 21.8744 20.2896 20.5144 20.2896 18.7661V18.7672Z" fill="white"/>
<path d="M12.6845 25.5642C7.61355 23.7509 5.01302 18.1189 6.89889 13.1344C7.87382 10.4144 10.0189 8.34398 12.6845 7.37225C12.9448 7.24318 13.0738 7.04905 13.0738 6.72478V5.81811C13.0738 5.55998 12.9448 5.36585 12.6845 5.30078C12.6194 5.30078 12.4893 5.30078 12.4242 5.36478C10.9612 5.82166 9.60303 6.56342 8.42787 7.54737C7.25271 8.53131 6.2838 9.73799 5.57691 11.0979C4.87002 12.4579 4.43912 13.9442 4.30903 15.4714C4.17894 16.9985 4.35221 18.5363 4.81889 19.9962C5.98795 23.6229 8.78369 26.4069 12.4242 27.5717C12.6845 27.7008 12.9448 27.5717 13.0088 27.3125C13.0738 27.2485 13.0738 27.1824 13.0738 27.0533V26.1466C13.0738 25.9525 12.8797 25.6944 12.6845 25.5642ZM19.5752 5.36585C19.3149 5.23571 19.0546 5.36585 18.9906 5.62398C18.9256 5.68905 18.9256 5.75411 18.9256 5.88318V6.78985C18.9256 7.04905 19.1197 7.30718 19.3149 7.43731C24.3858 9.25065 26.9864 14.8826 25.1005 19.8672C24.1256 22.5872 21.9805 24.6576 19.3149 25.6293C19.0546 25.7584 18.9256 25.9525 18.9256 26.2768V27.1834C18.9256 27.4416 19.0546 27.6357 19.3149 27.7008C19.38 27.7008 19.5101 27.7008 19.5752 27.6368C21.0382 27.1799 22.3963 26.4381 23.5715 25.4542C24.7467 24.4703 25.7156 23.2636 26.4225 21.9036C27.1294 20.5437 27.5602 19.0574 27.6903 17.5302C27.8204 16.003 27.6472 14.4652 27.1805 13.0053C26.0114 9.31465 23.1506 6.53065 19.5752 5.36585Z" fill="white"/>
</g>
<defs>
<filter id="filter0_d_4515_2292" x="-1.06667" y="-0.0333334" width="34.1333" height="34.1333" filterUnits="userSpaceOnUse" color-interpolation-filters="sRGB">
<feFlood flood-opacity="0" result="BackgroundImageFix"/>
<feColorMatrix in="SourceAlpha" type="matrix" values="0 0 0 0 0 0 0 0 0 0 0 0 0 0 0 0 0 0 127 0" result="hardAlpha"/>
<feOffset dy="0.533333"/>
<feGaussianBlur stdDeviation="0.533333"/>
<feColorMatrix type="matrix" values="0 0 0 0 0 0 0 0 0 0 0 0 0 0 0 0 0 0 0.199474 0"/>
<feBlend mode="normal" in2="BackgroundImageFix" result="effect1_dropShadow_4515_2292"/>
<feBlend mode="normal" in="SourceGraphic" in2="effect1_dropShadow_4515_2292" result="shape"/>
</filter>
<linearGradient id="paint0_linear_4515_2292" x1="16" y1="0.5" x2="16" y2="32.5" gradientUnits="userSpaceOnUse">
<stop stop-color="white" stop-opacity="0.5"/>
<stop offset="1" stop-opacity="0.5"/>
</linearGradient>
<clipPath id="clip0_4515_2292">
<rect width="32" height="32" fill="white" transform="translate(0 0.5)"/>
</clipPath>
</defs>
</svg>
