<svg width="40" height="37" viewBox="0 0 40 37" fill="none" xmlns="http://www.w3.org/2000/svg">
<path d="M28.3417 18.3125L30.6004 19.6166C31.2244 19.9768 31.6088 20.6426 31.6088 21.3631V23.9713C31.6088 24.6918 31.2244 25.3575 30.6004 25.7178L28.3417 27.0219C27.7177 27.3821 26.949 27.3821 26.325 27.0219L24.0662 25.7178C23.4423 25.3575 23.0579 24.6918 23.0579 23.9713V21.3631C23.0579 20.6426 23.4423 19.9768 24.0662 19.6166L26.325 18.3125C26.949 17.9523 27.7177 17.9523 28.3417 18.3125Z" fill="black"/>
<path fill-rule="evenodd" clip-rule="evenodd" d="M37.7378 7.19844C37.7378 7.67029 37.6624 8.12451 37.5229 8.54969C38.8959 9.69468 39.8003 11.394 39.8003 13.3859V29.8859C39.8003 33.5881 36.6761 36.2797 33.2261 36.2797H7.62532C3.52436 36.2797 0.200317 32.9556 0.200317 28.8547V8.22969C0.200317 4.12873 3.52436 0.804688 7.62532 0.804688H31.3441C34.8753 0.804688 37.7378 3.66725 37.7378 7.19844ZM31.3441 4.10469C33.0209 4.10469 34.386 5.4386 34.4364 7.10318C34.4373 7.13481 34.4378 7.16657 34.4378 7.19844C34.4378 7.7682 33.9763 8.22969 33.4066 8.22969H10.4899C9.72946 8.22969 8.99996 8.91683 8.99996 9.8335C8.99996 10.7502 9.737 11.3231 10.4899 11.3231H33.2261C33.2866 11.3231 33.3468 11.3246 33.4066 11.3277C34.1592 11.3665 34.8448 11.6464 35.3783 12.0869C36.0656 12.6544 36.5003 13.4885 36.5003 14.4168V29.8859C36.5003 31.592 35.0321 32.9797 33.2261 32.9797H7.62532C5.3469 32.9797 3.50032 31.1331 3.50032 28.8547V8.22969C3.50032 5.95127 5.3469 4.10469 7.62532 4.10469H31.3441Z" fill="black"/>
</svg>
