<svg width="21" height="22" viewBox="0 0 21 22" fill="none" xmlns="http://www.w3.org/2000/svg">
<path d="M8.67492 1C8.24992 1.325 7.67492 1.5 6.89992 1.5C5.39992 1.5 5.29992 1.8 6.04992 3.875L6.62492 5.525L13.3499 5.375L13.9249 3.875C14.6749 1.925 14.5499 1.5 13.0749 1.5C12.3249 1.5 11.7499 1.325 11.3249 1C10.9749 0.725 10.3749 0.5 9.99992 0.5C9.62492 0.5 9.02492 0.725 8.67492 1Z" fill="#F8F8F8"/>
<path d="M5.5 7.0001H14.5C14.5 7.0001 16.3591 8.58033 17.81 11.0039C16.3182 11.0659 15.014 11.8541 14.2416 13.0243C11.5807 13.28 9.5 15.522 9.5 18.25C9.5 19.4773 9.9211 20.6062 10.6267 21.5001H5.5C2.73858 21.5001 0.5 19.2501 0.5 16.5001C0.5 11.2501 5.5 7.0001 5.5 7.0001Z" fill="#F8F8F8"/>
<path d="M19.9771 17.7564C20.6041 17.2065 21 16.3995 21 15.5C21 13.8431 19.6568 12.5 18 12.5C17.2803 12.5 16.6197 12.7534 16.1028 13.1759C18.1931 13.7318 19.7709 15.545 19.9771 17.7564Z" fill="#F8F8F8"/>
<path d="M14.75 22C16.8211 22 18.5 20.3211 18.5 18.25C18.5 16.1789 16.8211 14.5 14.75 14.5C12.6789 14.5 11 16.1789 11 18.25C11 20.3211 12.6789 22 14.75 22Z" fill="#F8F8F8"/>
</svg>
