<svg
  width="20"
  height="20"
  viewBox="0 0 20 20"
  fill="none"
  xmlns="http://www.w3.org/2000/svg"
>
  <circle cx="10" cy="10" r="10" fill="url(#paint0_radial_771_261)" />
  <circle
    cx="10"
    cy="10"
    r="10"
    fill="url(#paint1_angular_771_261)"
    style="mix-blend-mode: difference"
  />
  <circle
    cx="10"
    cy="10"
    r="10"
    fill="url(#paint2_angular_771_261)"
    style="mix-blend-mode: screen"
  />
  <g style="mix-blend-mode: overlay">
    <path
      fillRule="evenodd"
      clipRule="evenodd"
      d="M6.01236 4.47673C4.18345 5.79768 3.19311 7.86908 3.17916 9.98201L4.7639 9.87119C5.12967 9.84562 5.45402 9.62684 5.61475 9.29729L6.89132 6.67993C7.03549 6.38434 7.0284 6.03989 6.87744 5.75268C6.8546 5.72318 6.83262 5.69282 6.81158 5.66161L6.01236 4.47673ZM6.7239 16.0176C5.7998 15.5103 4.97951 14.7812 4.34944 13.8471C3.71978 12.9136 3.35115 11.8807 3.22678 10.8345L4.7863 10.7255C5.11374 10.7026 5.42986 10.8376 5.63961 11.0842C5.65868 11.117 5.67892 11.1493 5.70032 11.1811L7.32873 13.5953C7.35013 13.627 7.37249 13.6579 7.39575 13.6878C7.54585 13.9747 7.55264 14.3184 7.40875 14.6134L6.7239 16.0176ZM13.5144 15.9048C11.6091 17.0381 9.34895 17.1419 7.41723 16.3488L8.05071 15.05C8.21145 14.7204 8.53579 14.5017 8.90157 14.4761L11.8065 14.2729C12.1346 14.25 12.4513 14.3856 12.6611 14.6332C12.6799 14.6654 12.6998 14.6971 12.7208 14.7283L13.5144 15.9048ZM16.8646 10.0243C16.8617 12.1259 15.8925 14.1904 14.0925 15.5207L13.2962 14.3402C13.2752 14.309 13.2532 14.2787 13.2304 14.2492C13.0794 13.962 13.0723 13.6175 13.2165 13.3219L14.4931 10.7046C14.6538 10.375 14.9781 10.1562 15.3439 10.1307L16.8646 10.0243ZM13.3226 4.02618C14.2455 4.53335 15.0648 5.26188 15.6942 6.19501C16.324 7.12874 16.6926 8.16196 16.8169 9.20835L15.2608 9.31717C14.9327 9.34011 14.616 9.20449 14.4062 8.95694C14.3874 8.92471 14.3675 8.89296 14.3465 8.86176L12.7181 6.44754C12.697 6.41634 12.675 6.38598 12.6522 6.35648C12.5012 6.06927 12.4941 5.72482 12.6383 5.42923L13.3226 4.02618ZM6.59465 4.09885C8.49835 2.99462 10.7456 2.90817 12.6635 3.70865L12.0571 4.95187C11.8964 5.28143 11.572 5.5002 11.2062 5.52578L8.30126 5.72892C7.97318 5.75186 7.65647 5.61624 7.44673 5.36869C7.42793 5.33646 7.40801 5.30471 7.38697 5.27351L6.59465 4.09885ZM11.2284 6.38024C11.5564 6.3573 11.8732 6.49291 12.0829 6.74046C12.1017 6.7727 12.1216 6.80445 12.1427 6.83565L13.7711 9.24986C13.7921 9.28106 13.8141 9.31143 13.8369 9.34093C13.9879 9.62814 13.995 9.97259 13.8508 10.2682L12.5742 12.8855C12.4135 13.2151 12.0892 13.4339 11.7234 13.4594L8.81842 13.6626C8.49097 13.6855 8.17486 13.5504 7.96511 13.3038C7.94604 13.271 7.9258 13.2387 7.9044 13.207L6.27599 10.7928C6.25459 10.761 6.23223 10.7302 6.20896 10.7002C6.05887 10.4133 6.05207 10.0697 6.19597 9.77464L7.47253 7.15729C7.63327 6.82773 7.95761 6.60896 8.32339 6.58338L11.2284 6.38024Z"
      fill="black"
    />
  </g>
  <g style="mix-blend-mode: overlay">
    <circle
      cx="10.0005"
      cy="10.0001"
      r="8.57143"
      stroke="black"
      stroke-opacity="0.4"
      strokeWidth="0.631801"
    />
  </g>
  <defs>
    <radialGradient
      id="paint0_radial_771_261"
      cx="0"
      cy="0"
      r="1"
      gradientUnits="userSpaceOnUse"
      gradientTransform="translate(7.32899 0.977199) rotate(82.0073) scale(19.2094)"
    >
      <stop stopColor="#2AD0CA" />
      <stop offset="0.229167" stopColor="#E1F664" />
      <stop offset="0.46875" stopColor="#FEB0FE" />
      <stop offset="0.682292" stopColor="#ABB3FC" />
      <stop offset="0.875" stopColor="#5DF7A4" />
      <stop offset="1" stopColor="#58C4F6" />
    </radialGradient>
    <radialGradient
      id="paint1_angular_771_261"
      cx="0"
      cy="0"
      r="1"
      gradientUnits="userSpaceOnUse"
      gradientTransform="translate(10 10) rotate(86.2064) scale(10.022)"
    >
      <stop offset="0.000690214" stopColor="white" />
      <stop offset="0.140625" />
      <stop offset="0.144348" />
      <stop offset="0.244792" stopColor="white" />
      <stop offset="0.395833" />
      <stop offset="0.546875" stopColor="white" />
      <stop offset="0.713542" />
      <stop offset="0.833333" stopColor="white" />
      <stop offset="0.931117" />
      <stop offset="0.931504" />
    </radialGradient>
    <radialGradient
      id="paint2_angular_771_261"
      cx="0"
      cy="0"
      r="1"
      gradientUnits="userSpaceOnUse"
      gradientTransform="translate(10 10) rotate(86.2064) scale(10.022)"
    >
      <stop offset="0.000690214" stopColor="white" />
      <stop offset="0.140625" />
      <stop offset="0.144348" />
      <stop offset="0.244792" stopColor="white" />
      <stop offset="0.395833" />
      <stop offset="0.546875" stopColor="white" />
      <stop offset="0.713542" />
      <stop offset="0.833333" stopColor="white" />
      <stop offset="0.931117" />
      <stop offset="0.931504" />
    </radialGradient>
  </defs>
</svg>
