<svg width="1436" height="640" viewBox="0 0 1436 640" fill="none" xmlns="http://www.w3.org/2000/svg">
<g opacity="0.5">
<path opacity="0.5" d="M523.459 195.078C522.279 192.49 519.102 191.586 516.639 193.019L495.412 205.361C493.876 206.254 492.932 207.893 492.932 209.665V258.756C492.932 260.528 493.876 262.167 495.412 263.06L516.639 275.402C519.102 276.835 522.279 275.931 523.459 273.343C528.897 261.416 531.926 248.166 531.926 234.21C531.926 220.255 528.897 207.005 523.459 195.078Z" fill="#F8F8F8"/>
<path opacity="0.5" d="M514.921 288.288C516.529 285.987 515.737 282.846 513.307 281.433L491.452 268.726C489.895 267.821 487.97 267.821 486.414 268.726L443.42 293.724C441.884 294.617 440.939 296.256 440.939 298.029V323.616C440.939 326.449 443.31 328.725 446.139 328.454C474.609 325.727 499.408 310.473 514.921 288.288Z" fill="#F8F8F8"/>
</g>
<g opacity="0.88">
<path opacity="0.88" d="M432.942 144.809C432.942 141.976 430.571 139.7 427.742 139.971C399.272 142.698 374.474 157.952 358.961 180.137C357.352 182.438 358.145 185.579 360.575 186.992L382.43 199.699C383.986 200.605 385.911 200.605 387.468 199.699L430.462 174.701C431.998 173.808 432.942 172.169 432.942 170.396V144.809Z" fill="#F8F8F8"/>
<path opacity="0.88" d="M357.24 275.402C354.777 276.835 351.601 275.931 350.421 273.343C344.982 261.416 341.953 248.166 341.953 234.21C341.953 220.255 344.982 207.005 350.421 195.078C351.601 192.49 354.777 191.586 357.24 193.019L378.467 205.361C380.003 206.254 380.948 207.893 380.948 209.665V258.755C380.948 260.528 380.003 262.167 378.467 263.06L357.24 275.402Z" fill="#F8F8F8"/>
<path opacity="0.88" d="M446.139 139.971C443.31 139.7 440.939 141.976 440.939 144.809V170.396C440.939 172.169 441.884 173.808 443.42 174.701L486.414 199.699C487.97 200.605 489.895 200.605 491.452 199.699L513.307 186.992C515.737 185.579 516.529 182.438 514.921 180.137C499.408 157.952 474.609 142.698 446.139 139.971Z" fill="#F8F8F8"/>
</g>
<path d="M441.979 181.826C438.865 180.016 435.016 180.016 431.903 181.826L393.908 203.918C390.836 205.704 388.947 208.982 388.947 212.527V255.893C388.947 259.437 390.836 262.715 393.908 264.501L431.903 286.593C435.016 288.403 438.865 288.403 441.979 286.593L479.973 264.501C483.045 262.715 484.934 259.437 484.934 255.893V212.527C484.934 208.982 483.045 205.704 479.973 203.918L441.979 181.826Z" fill="#F8F8F8"/>
<path fill-rule="evenodd" clip-rule="evenodd" d="M325.955 234.211C325.955 250.488 329.492 265.984 335.856 279.942C338.851 286.51 344.661 290.522 350.909 291.67C351.163 291.717 351.375 291.772 351.544 291.827C351.585 291.84 351.622 291.853 351.655 291.866C351.689 291.878 351.72 291.89 351.746 291.902C368.922 317.057 397.059 334.243 429.356 336.589C429.372 336.601 429.388 336.614 429.406 336.628C429.421 336.64 429.435 336.652 429.451 336.665C429.47 336.681 429.49 336.698 429.511 336.717L429.523 336.727C429.655 336.845 429.809 337.001 429.977 337.196C434.098 342.01 440.481 345.014 447.669 344.325C480.978 341.134 509.945 323.288 528.045 297.404C529.634 295.132 530.707 292.657 531.279 290.108C531.574 288.792 532.387 287.369 533.377 286.44C535.285 284.649 536.873 282.465 538.023 279.942C544.388 265.984 547.925 250.488 547.925 234.211C547.925 217.935 544.388 202.439 538.023 188.481C536.873 185.958 535.285 183.774 533.377 181.983C532.387 181.054 531.574 179.631 531.279 178.314C530.707 175.766 529.634 173.29 528.045 171.019C509.945 145.135 480.978 127.288 447.669 124.097C444.801 123.823 442.015 124.136 439.43 124.953C437.933 125.426 435.947 125.426 434.45 124.953C431.865 124.136 429.079 123.823 426.21 124.097C392.902 127.288 363.934 145.135 345.835 171.019C344.246 173.29 343.173 175.766 342.601 178.314C342.306 179.631 341.493 181.054 340.503 181.983C338.595 183.774 337.007 185.958 335.856 188.481C329.492 202.439 325.955 217.935 325.955 234.211ZM521.483 175.578C504.676 151.543 477.793 134.993 446.904 132.034C445.113 131.862 443.409 132.06 441.847 132.553C438.777 133.524 435.102 133.524 432.032 132.553C430.47 132.06 428.767 131.862 426.975 132.034C396.087 134.993 369.203 151.543 352.397 175.578C351.405 176.996 350.753 178.513 350.407 180.054C349.762 182.929 348.139 185.768 345.986 187.788C344.834 188.87 343.857 190.203 343.138 191.78C337.237 204.722 333.954 219.095 333.954 234.211C333.954 249.327 337.237 263.7 343.138 276.643C344.978 280.678 348.505 283.121 352.36 283.829C354.627 284.246 356.874 285.224 358.164 287.129C374.061 310.595 400.246 326.589 430.285 328.662C432.587 328.821 434.564 330.271 436.061 332.02C438.604 334.991 442.488 336.812 446.904 336.389C477.793 333.43 504.676 316.88 521.483 292.845C522.475 291.426 523.127 289.91 523.472 288.369C524.117 285.493 525.741 282.655 527.893 280.635C529.046 279.553 530.022 278.22 530.741 276.643C536.643 263.7 539.926 249.327 539.926 234.211C539.926 219.095 536.643 204.722 530.741 191.78C530.022 190.203 529.046 188.87 527.893 187.788C525.741 185.768 524.117 182.929 523.472 180.054C523.127 178.513 522.475 176.996 521.483 175.578Z" fill="#F8F8F8"/>
<path d="M957.909 155.234H999.023C1002.34 155.234 1005.02 157.92 1005.02 161.233V262.365H1115.05C1118.36 262.365 1121.05 265.05 1121.05 268.363V309.248C1121.05 312.561 1118.36 315.246 1115.05 315.246H957.909C954.596 315.246 951.91 312.561 951.91 309.248V161.233C951.91 157.92 954.596 155.234 957.909 155.234Z" fill="#F8F8F8"/>
<path d="M1135.38 161.459V309.247C1135.38 312.56 1138.06 315.245 1141.38 315.245H1306.04C1309.35 315.245 1312.03 312.56 1312.03 309.247V277.023C1312.03 273.711 1309.35 271.025 1306.04 271.025H1188.49V256.437H1298.06C1301.37 256.437 1304.06 253.752 1304.06 250.439V219.811C1304.06 216.498 1301.37 213.813 1298.06 213.813H1188.49V199.681H1306.04C1309.35 199.681 1312.03 196.995 1312.03 193.683V161.459C1312.03 158.146 1309.35 155.461 1306.04 155.461H1141.38C1138.06 155.461 1135.38 158.146 1135.38 161.459Z" fill="#F8F8F8"/>
<path fill-rule="evenodd" clip-rule="evenodd" d="M123.965 510.077V361.416C123.965 358.103 126.574 355.418 129.793 355.418H233.37C248.268 355.418 300.747 357.478 300.747 417.209C300.747 476.712 251.382 483.577 235.149 483.577H175.777V510.077C175.777 513.389 173.167 516.075 169.948 516.075H129.793C126.574 516.075 123.965 513.389 123.965 510.077ZM175.777 436.204V402.791H230.924C238.262 402.791 252.271 403.249 252.271 418.811C252.271 434.373 239.818 436.204 231.813 436.204H175.777Z" fill="#F8F8F8"/>
<path d="M355.319 355.418H315.371C312.152 355.418 309.543 358.103 309.543 361.416V509.432C309.543 512.745 312.152 515.43 315.371 515.43H468.05C471.268 515.43 473.878 512.745 473.878 509.432V468.547C473.878 465.234 471.268 462.549 468.05 462.549H361.147V361.416C361.147 358.103 358.537 355.418 355.319 355.418Z" fill="#F8F8F8"/>
<path d="M898.596 515.43C901.815 515.43 904.424 512.745 904.424 509.432V361.416C904.424 358.103 901.815 355.418 898.596 355.418H858.648C855.429 355.418 852.82 358.103 852.82 361.416V433.346V433.386V450.24L779.71 357.634L779.69 357.608C778.583 356.222 776.931 355.418 775.187 355.418H712.031C708.812 355.418 706.203 358.103 706.203 361.416V509.432C706.203 512.745 708.812 515.43 712.031 515.43H751.979C755.185 515.43 757.787 512.765 757.807 509.47V419.012L768.135 432.082L768.157 432.11L832.245 513.216C833.352 514.617 835.013 515.43 836.767 515.43H898.596Z" fill="#F8F8F8"/>
<path d="M1106.33 402.529V361.416C1106.33 358.103 1108.94 355.418 1112.16 355.418H1305.81C1309.03 355.418 1311.64 358.103 1311.64 361.416V402.529C1311.64 405.842 1309.03 408.527 1305.81 408.527H1234.78V509.432C1234.78 512.745 1232.17 515.43 1228.96 515.43H1189.01C1185.79 515.43 1183.18 512.745 1183.18 509.432V408.527H1112.16C1108.94 408.527 1106.33 405.842 1106.33 402.529Z" fill="#F8F8F8"/>
<path d="M920.803 509.434V361.647C920.803 358.334 923.412 355.648 926.631 355.648H1086.62C1089.84 355.648 1092.45 358.334 1092.45 361.647V393.87C1092.45 397.183 1089.84 399.868 1086.62 399.868H972.407V414H1078.87C1082.09 414 1084.69 416.686 1084.69 419.999V450.627C1084.69 453.939 1082.09 456.625 1078.87 456.625H972.407V471.213H1086.62C1089.84 471.213 1092.45 473.898 1092.45 477.211V509.434C1092.45 512.747 1089.84 515.432 1086.62 515.432H926.631C923.412 515.432 920.803 512.747 920.803 509.434Z" fill="#F8F8F8"/>
<path fill-rule="evenodd" clip-rule="evenodd" d="M625.502 355.875C627.798 355.875 629.88 357.262 630.82 359.418L695.135 506.978C696.864 510.947 694.043 515.431 689.817 515.431H642.808C640.505 515.431 638.418 514.035 637.482 511.869L629.042 492.325L629.022 492.278L627.504 488.762H550.652L540.464 511.908L540.443 511.956C539.49 514.073 537.427 515.431 535.156 515.431H488.35C484.121 515.431 481.3 510.941 483.036 506.972L547.555 359.412C548.496 357.259 550.577 355.875 552.87 355.875H625.502ZM569.034 442.491L588.967 400.779L594.174 411.676L594.197 411.723L604.769 433.846L604.791 433.892L608.9 442.491H569.034Z" fill="#F8F8F8"/>
<path d="M939.386 161.233C939.386 157.92 936.7 155.234 933.387 155.234H764.168C760.855 155.234 758.17 157.92 758.17 161.233V193.684C758.17 196.997 760.855 199.682 764.168 199.682H842.079H842.097H863.252L845.241 210.777L845.226 210.787L761.022 262.659C759.25 263.751 758.17 265.684 758.17 267.766V309.248C758.17 312.561 760.855 315.246 764.168 315.246H933.387C936.7 315.246 939.386 312.561 939.386 309.248V277.253C939.386 273.94 936.7 271.254 933.387 271.254H835.671L936.547 208.735C938.312 207.642 939.386 205.713 939.386 203.637V161.233Z" fill="#F8F8F8"/>
<path d="M743.059 155.234C746.372 155.234 749.057 157.92 749.057 161.233V203.637C749.057 205.713 747.984 207.642 746.219 208.735L645.343 271.254H743.059C746.372 271.254 749.057 273.94 749.057 277.253V309.248C749.057 312.561 746.372 315.246 743.059 315.246H573.84C570.527 315.246 567.842 312.561 567.842 309.248V267.766C567.842 265.684 568.921 263.751 570.694 262.659L654.898 210.787L654.913 210.777L672.924 199.682H651.769H651.751H573.84C570.527 199.682 567.842 196.997 567.842 193.684V161.233C567.842 157.92 570.527 155.234 573.84 155.234H743.059Z" fill="#F8F8F8"/>
<path fill-rule="evenodd" clip-rule="evenodd" d="M123.965 161.233V309.893C123.965 313.206 126.65 315.891 129.963 315.891H171.292C174.604 315.891 177.29 313.206 177.29 309.893V283.394H238.396C255.103 283.394 305.911 276.528 305.911 217.026C305.911 157.294 251.899 155.234 236.565 155.234H129.963C126.65 155.234 123.965 157.92 123.965 161.233ZM177.29 202.608V236.021H234.963C243.202 236.021 256.019 234.19 256.019 218.627C256.019 203.065 241.6 202.608 234.048 202.608H177.29Z" fill="#F8F8F8"/>
</svg>
