<svg
  width="24"
  height="25"
  viewBox="0 0 24 25"
  fill="none"
  xmlns="http://www.w3.org/2000/svg"
>
  <path
    d="M9.93967 9.19626H15.1529H23.5963C23.5963 4.56037 19.8161 0.802247 15.1529 0.802246H11.1851L9.93967 9.19626Z"
    fill="#FFBA7B"
  />
  <path
    d="M10.2549 5.66895C10.2549 5.66895 13.7262 5.66895 16.7251 5.66895C21.5385 5.66895 22.9265 8.61579 22.9265 8.61579H10.2549V5.66895Z"
    fill="#F87AA3"
  />
  <path
    d="M4.17321 3.91044C4.22578 3.83215 4.27284 3.75116 4.32023 3.66964C5.20965 2.13947 8.36028 0.708921 9.85014 1.56146C10.428 1.89216 10.6561 4.419 10.3916 6.38356L9.27835 12.3909C9.2566 12.5083 9.22487 12.6241 9.17335 12.732C8.38945 14.3745 6.08313 15.199 4.39898 14.4804C2.61833 13.7207 2.43969 10.6252 2.4397 8.48205C2.4397 6.61039 3.82279 4.43224 4.17321 3.91044Z"
    fill="white"
  />
  <path
    d="M7.72252 5.57989C8.32831 5.57989 8.81943 5.09013 8.81943 4.48598C8.81943 4.27946 8.76199 4.0863 8.66225 3.9215C8.6108 4.05577 8.48039 4.15112 8.32763 4.15112C8.1298 4.15112 7.96947 3.9912 7.96947 3.79393C7.96947 3.65887 8.04461 3.54133 8.15545 3.48061C8.02264 3.42364 7.87626 3.39209 7.72252 3.39209C7.11671 3.39209 6.62561 3.88184 6.62561 4.48598C6.62561 5.09013 7.11671 5.57989 7.72252 5.57989Z"
    fill="#152239"
  />
  <path
    fillRule="evenodd"
    clipRule="evenodd"
    d="M9.96252 9.1063L11.0775 0.54183C10.9378 0.536421 10.7975 0.533691 10.6566 0.533691C4.77103 0.533691 -0.00012207 5.29132 -0.00012207 11.1602C-0.00012207 15.5823 2.70879 19.3736 6.56218 20.974L7.14104 16.8975C7.14104 16.8975 7.25135 19.9171 8.32108 21.5306C9.07273 21.6982 9.8543 21.7866 10.6566 21.7866C11.7261 21.7866 12.7589 21.6295 13.7329 21.3371C10.9977 18.3178 10.9656 12.8273 12.0546 9.1063H9.96252ZM8.59146 1.68458C9.60628 1.45282 10.3757 2.36758 10.2258 3.39492L9.119 10.9828C8.75518 13.4772 6.34318 15.621 4.49639 13.8999C3.33955 12.8219 2.55219 10.8969 3.23937 7.46633C4.04719 3.43344 6.72363 2.11114 8.59146 1.68458Z"
    fill="#152239"
  />
  <path
    fillRule="evenodd"
    clipRule="evenodd"
    d="M10.4698 8.52588H18.9403H23.0149C22.8665 7.25968 22.4185 6.08391 21.7477 5.06955C20.3143 2.90181 17.8436 1.47132 15.0448 1.47132H11.5133L10.4698 8.52588ZM9.38068 9.46349L10.7016 0.533691L15.0448 0.533692C19.673 0.533692 23.4897 4.03476 23.9597 8.52588C23.9919 8.834 24 9.14684 24 9.46349H9.38068Z"
    fill="#152239"
  />
  <path
    d="M23.2165 9.1956C22.4573 9.08993 18.7405 9.548 18.9404 8.52588C19.2452 6.96713 20.32 5.68072 21.7478 5.06956C23.1844 4.45471 23.6358 9.25393 23.2165 9.1956Z"
    fill="#152239"
  />
  <path
    d="M23.8647 24.4461C23.8647 24.4461 11.0588 25.621 11.0588 10.0894C18.8459 10.0894 23.3779 16.8489 23.8647 24.4461Z"
    fill="#152239"
  />
</svg>
