<svg width="26" height="23" viewBox="0 0 26 23" fill="none" xmlns="http://www.w3.org/2000/svg">
<path d="M21.7188 22.3438C22.9453 22.3438 23.8633 22.0391 24.4727 21.4297C25.0898 20.8281 25.3984 19.9219 25.3984 18.7109V4.40234C25.3984 3.19141 25.0898 2.28516 24.4727 1.68359C23.8633 1.07422 22.9453 0.769531 21.7188 0.769531H11.5352C11.0742 0.769531 10.6367 0.8125 10.2227 0.898438C9.81641 0.984375 9.42578 1.12891 9.05078 1.33203C8.68359 1.53516 8.33984 1.80469 8.01953 2.14062L1.11719 9.3125C0.859375 9.57031 0.648438 9.82422 0.484375 10.0742C0.320312 10.3242 0.199219 10.5703 0.121094 10.8125C0.0429688 11.0469 0.00390625 11.2891 0.00390625 11.5391C0.00390625 11.8984 0.09375 12.2617 0.273438 12.6289C0.453125 12.9883 0.734375 13.3672 1.11719 13.7656L8.03125 20.9023C8.35156 21.2383 8.69531 21.5117 9.0625 21.7227C9.4375 21.9336 9.82812 22.0859 10.2344 22.1797C10.6484 22.2812 11.0859 22.332 11.5469 22.332L21.7188 22.3438ZM21.6953 20.457H11.5117C11.0664 20.457 10.6875 20.3945 10.375 20.2695C10.0625 20.1445 9.75391 19.9258 9.44922 19.6133L2.58203 12.5234C2.38672 12.3203 2.25 12.1445 2.17188 11.9961C2.10156 11.8398 2.06641 11.6875 2.06641 11.5391C2.06641 11.25 2.23828 10.918 2.58203 10.543L9.4375 3.42969C9.74219 3.11719 10.0508 2.91016 10.3633 2.80859C10.6836 2.70703 11.0625 2.65625 11.5 2.65625H21.6953C22.2812 2.65625 22.7305 2.8125 23.043 3.125C23.3555 3.42969 23.5117 3.88672 23.5117 4.49609V18.6172C23.5117 19.2266 23.3555 19.6875 23.043 20C22.7305 20.3047 22.2812 20.457 21.6953 20.457ZM10.8555 16.5078C11.1289 16.5078 11.3555 16.4102 11.5352 16.2148L14.8516 12.8867L18.1914 16.2148C18.3789 16.4102 18.6016 16.5078 18.8594 16.5078C19.1172 16.5078 19.3359 16.4141 19.5156 16.2266C19.7031 16.0391 19.7969 15.8164 19.7969 15.5586C19.7969 15.3008 19.7031 15.0781 19.5156 14.8906L16.1875 11.5625L19.5273 8.21094C19.7148 8.02344 19.8086 7.80469 19.8086 7.55469C19.8086 7.29688 19.7148 7.07812 19.5273 6.89844C19.3477 6.71094 19.1289 6.61719 18.8711 6.61719C18.6289 6.61719 18.4141 6.71484 18.2266 6.91016L14.8516 10.25L11.5117 6.92188C11.3398 6.73438 11.1211 6.64062 10.8555 6.64062C10.5977 6.64062 10.375 6.73047 10.1875 6.91016C10.0078 7.08984 9.91797 7.30859 9.91797 7.56641C9.91797 7.82422 10.0117 8.04297 10.1992 8.22266L13.5273 11.5625L10.1992 14.9023C10.0117 15.082 9.91797 15.3008 9.91797 15.5586C9.91797 15.8164 10.0078 16.0391 10.1875 16.2266C10.375 16.4141 10.5977 16.5078 10.8555 16.5078Z" fill="#F8F8F8"/>
</svg>
