<svg width="44" height="44" viewBox="0 0 44 44" fill="none" xmlns="http://www.w3.org/2000/svg">
<path d="M22.1211 28.3915L28.1903 37.9173L33.797 34.6681L25.826 22.1045L22.1211 28.3915Z" fill="#F8F8F8"/>
<path d="M38.9022 30.8474L38.898 28.2439L30.1883 14.6782L26.957 20.1613L35.365 33.7595L38.4051 31.9978C38.7032 31.7556 38.8837 31.4002 38.9026 31.0168L38.9022 30.8474Z" fill="#F8F8F8"/>
<path d="M2.4043 33.3016L6.69728 35.7754L20.9834 12.8644L18.5588 12.8004C16.493 12.7713 14.2676 13.3083 13.2462 14.9756L5.13358 27.5499L2.4043 31.7434V33.3016Z" fill="#F8F8F8"/>
<path d="M29.2293 12.8657L22.8391 12.8889L8.38184 36.7462L13.4351 39.6556L14.8093 37.325L29.2293 12.8657Z" fill="#F8F8F8"/>
<path d="M41.595 12.8316C41.5415 11.4952 40.818 10.2718 39.6846 9.55951L23.7983 0.423711C22.6771 -0.140814 21.2765 -0.141539 20.1534 0.423348C20.0206 0.490323 4.70436 9.37309 4.70436 9.37309C4.49238 9.47478 4.28819 9.59586 4.09615 9.73334C3.08437 10.4585 2.46765 11.5853 2.4043 12.8233V31.7434L5.13358 27.5499L5.10974 12.9512C5.11291 12.8978 5.11962 12.8452 5.12914 12.7934C5.19086 12.4499 5.38262 12.1435 5.67137 11.9364C5.74342 11.8849 21.3213 2.86778 21.3708 2.84304C21.7369 2.65915 22.2023 2.65698 22.5689 2.83733L38.2496 11.8569C38.6206 12.0932 38.8531 12.4938 38.8738 12.9317V31.0159C38.8549 31.3993 38.7032 31.7547 38.4051 31.9969L35.365 33.7586L33.7964 34.6677L28.1898 37.9169L22.504 41.2119C22.1978 41.3225 21.8397 41.3163 21.536 41.1928L14.8088 37.3236L13.4346 39.6543L19.4801 43.135C19.68 43.2487 19.8581 43.3495 20.0043 43.4315C20.2306 43.5584 20.3848 43.6433 20.4393 43.6698C20.869 43.8785 21.4872 44 22.0443 44C22.5551 44 23.0532 43.9062 23.5245 43.7216L40.0393 34.1574C40.9872 33.423 41.5448 32.3154 41.595 31.1156V12.8316Z" fill="#F8F8F8"/>
</svg>
