<svg width="22" height="24" viewBox="0 0 22 24" fill="none" xmlns="http://www.w3.org/2000/svg">
<path d="M13.7037 10.9971L15.4663 8.00634L20.217 15.4058L20.2193 16.8259L20.2038 7.0542C20.1925 6.81533 20.0657 6.59684 19.8633 6.46796L11.3102 1.54807C11.1103 1.4497 10.8564 1.45083 10.6567 1.55118C10.6297 1.56463 10.6043 1.57936 10.5802 1.59543L10.5503 1.61416L2.24823 6.42515L2.21605 6.43979C2.17462 6.45882 2.1327 6.48304 2.09345 6.51117C1.936 6.62403 1.8315 6.79096 1.79769 6.97822C1.7926 7.00659 1.78884 7.03546 1.78711 7.06468L1.80016 15.0276L6.22522 8.16893C6.78239 7.2595 7.99618 6.96655 9.12302 6.98247L10.4455 7.01737L2.65304 19.5143L3.57162 20.0431L11.4574 7.03007L14.943 7.01742L7.07751 20.3588L10.3553 22.2441L10.7469 22.4694C10.9125 22.5367 11.1078 22.5401 11.2749 22.4797L19.9482 17.4534L18.29 18.4143L13.7037 10.9971ZM14.3761 20.6824L11.0656 15.4866L13.0865 12.0573L17.4343 18.9102L14.3761 20.6824Z" fill="#2D374B"/>
<path d="M11.0664 15.4864L14.3769 20.6823L17.4351 18.91L13.0873 12.0571L11.0664 15.4864Z" fill="#28A0F0"/>
<path d="M20.2196 16.8259L20.2173 15.4058L15.4666 8.00635L13.7041 10.9971L18.2903 18.4143L19.9485 17.4534C20.1111 17.3213 20.2095 17.1274 20.2199 16.9183L20.2196 16.8259Z" fill="#28A0F0"/>
<path d="M0.311523 18.1645L2.65315 19.5139L10.4456 7.01696L9.1231 6.98206C7.99625 6.96614 6.78241 7.25908 6.22529 8.16852L1.80022 15.0272L0.311523 17.3146V18.1645Z" fill="white"/>
<path d="M14.9436 7.01758L11.458 7.03023L3.57227 20.0433L6.32859 21.6302L7.07816 20.359L14.9436 7.01758Z" fill="white"/>
<path d="M21.6883 6.99904C21.6591 6.27009 21.2644 5.60278 20.6462 5.21428L11.981 0.231115C11.3694 -0.0768076 10.6055 -0.0772031 9.99284 0.230917C9.92041 0.267449 1.5661 5.1126 1.5661 5.1126C1.45048 5.16806 1.3391 5.23411 1.23435 5.3091C0.682475 5.70462 0.346078 6.31928 0.311523 6.99454V17.3146L1.80022 15.0272L1.78722 7.06429C1.78895 7.03518 1.79261 7.0065 1.7978 6.97823C1.83146 6.79087 1.93607 6.62374 2.09356 6.51078C2.13286 6.48266 10.6299 1.56424 10.6569 1.55075C10.8566 1.45045 11.1104 1.44926 11.3104 1.54763L19.8635 6.46743C20.0659 6.5963 20.1927 6.8148 20.204 7.05366V16.9178C20.1936 17.1269 20.1109 17.3208 19.9483 17.4529L18.2901 18.4138L17.4345 18.9097L14.3763 20.682L11.275 22.4792C11.108 22.5396 10.9126 22.5362 10.747 22.4688L7.07763 20.3584L6.32806 21.6297L9.62559 23.5282C9.73464 23.5902 9.83178 23.6452 9.91152 23.69C10.035 23.7592 10.1191 23.8055 10.1488 23.8199C10.3832 23.9338 10.7204 24 11.0243 24C11.3029 24 11.5746 23.9488 11.8316 23.8481L20.8397 18.6313C21.3567 18.2307 21.6609 17.6266 21.6883 16.9722V6.99904Z" fill="#96BEDC"/>
</svg>
