<svg width="44" height="44" viewBox="0 0 44 44" fill="none" xmlns="http://www.w3.org/2000/svg">
<path fill-rule="evenodd" clip-rule="evenodd" d="M44 22C44 34.1504 34.1504 44 22 44C9.84973 44 0 34.1504 0 22C0 9.84972 9.84973 0 22 0C34.1504 0 44 9.84972 44 22ZM15.7658 30.7549H11.4962C10.5991 30.7549 10.1559 30.7549 9.8857 30.582C9.59385 30.3928 9.4155 30.0793 9.39388 29.7334C9.37765 29.4146 9.59927 29.0254 10.0424 28.2471L20.5846 9.6652C21.0331 8.87613 21.2601 8.48159 21.5466 8.33568C21.8546 8.17895 22.2221 8.17895 22.5302 8.33568C22.8166 8.48159 23.0436 8.87613 23.4922 9.6652L25.6594 13.4484L25.6705 13.4677C26.155 14.3142 26.4007 14.7435 26.5079 15.194C26.6268 15.6858 26.6268 16.2047 26.5079 16.6965C26.3999 17.1505 26.1567 17.5828 25.6648 18.4422L20.1273 28.2309L20.113 28.256C19.6253 29.1095 19.3781 29.5421 19.0356 29.8684C18.6627 30.2252 18.2141 30.4845 17.7223 30.6307C17.2737 30.7549 16.7711 30.7549 15.7658 30.7549ZM26.5479 30.7549H32.6658C33.5683 30.7549 34.0224 30.7549 34.2928 30.5768C34.5845 30.3875 34.7682 30.0685 34.7846 29.7228C34.8001 29.4144 34.5834 29.0403 34.1586 28.3072C34.1439 28.2823 34.1293 28.2569 34.1144 28.231L31.0499 22.9887L31.015 22.9296C30.5844 22.2014 30.367 21.8337 30.0879 21.6916C29.78 21.5348 29.4176 21.5348 29.1097 21.6916C28.8286 21.8375 28.6017 22.2212 28.1531 22.9941L25.0995 28.2365L25.0891 28.2545C24.642 29.0261 24.4187 29.4117 24.4348 29.7281C24.4564 30.0741 24.6347 30.3928 24.9266 30.582C25.1914 30.7549 25.6454 30.7549 26.5479 30.7549Z" fill="#F8F8F8"/>
</svg>
