<svg width="25" height="24" viewBox="0 0 25 24" fill="none" xmlns="http://www.w3.org/2000/svg">
<path d="M19.423 4.10645H4.59473V17.5925H19.423V4.10645Z" fill="white"/>
<path fill-rule="evenodd" clip-rule="evenodd" d="M24.0166 12C24.0166 18.6275 18.6441 24 12.0166 24C5.38918 24 0.0166016 18.6275 0.0166016 12C0.0166016 5.37258 5.38918 0 12.0166 0C18.6441 0 24.0166 5.37258 24.0166 12ZM8.61614 16.7754H6.28728C5.79792 16.7754 5.55619 16.7754 5.4088 16.6811C5.24961 16.5779 5.15233 16.4069 5.14054 16.2182C5.13169 16.0444 5.25256 15.832 5.49429 15.4075L11.2445 5.27193C11.4892 4.84153 11.613 4.62633 11.7693 4.54674C11.9373 4.46125 12.1378 4.46125 12.3058 4.54674C12.462 4.62633 12.5859 4.84153 12.8305 5.27193L14.0127 7.33548L14.0187 7.34601C14.283 7.80775 14.417 8.0419 14.4755 8.28765C14.5403 8.55592 14.5403 8.83892 14.4755 9.10719C14.4165 9.35481 14.2839 9.59065 14.0156 10.0594L10.9951 15.3987L10.9873 15.4124C10.7213 15.8779 10.5865 16.1139 10.3997 16.2919C10.1962 16.4865 9.95156 16.6279 9.6833 16.7076C9.43861 16.7754 9.16447 16.7754 8.61614 16.7754ZM14.4973 16.7754H17.8343C18.3266 16.7754 18.5743 16.7754 18.7217 16.6782C18.8809 16.575 18.9811 16.401 18.99 16.2125C18.9985 16.0442 18.8803 15.8402 18.6486 15.4403C18.6406 15.4267 18.6326 15.4129 18.6244 15.3988L16.9529 12.5393L16.9339 12.5071C16.699 12.1099 16.5804 11.9093 16.4282 11.8318C16.2602 11.7463 16.0626 11.7463 15.8946 11.8318C15.7413 11.9114 15.6175 12.1207 15.3728 12.5422L13.7072 15.4017L13.7015 15.4116C13.4577 15.8324 13.3359 16.0428 13.3447 16.2153C13.3564 16.404 13.4537 16.5779 13.6129 16.6811C13.7574 16.7754 14.005 16.7754 14.4973 16.7754Z" fill="#E84142"/>
</svg>
