<svg width="44" height="44" viewBox="0 0 44 44" fill="none" xmlns="http://www.w3.org/2000/svg">
<path d="M13.4552 18.4888L22 9.94399L30.5501 18.4923L35.5221 13.5203L22 0L8.4832 13.5168L13.4552 18.4888ZM0 22L4.972 17.028L9.944 22L4.972 26.972L0 22ZM13.4552 25.5112L22 34.056L30.5483 25.5077L35.5238 30.4761L35.5221 30.4797L22 44L8.4832 30.4832L8.47616 30.4761L13.4552 25.5112ZM34.056 22.0017L39.028 17.0297L44 22.0017L39.028 26.9737L34.056 22.0017Z" fill="#F8F8F8"/>
<path d="M27.0422 21.9981H27.0439L21.9998 16.9521L18.2704 20.6798L17.8427 21.1075L16.9592 21.9911L16.9521 21.9981L16.9592 22.0051L21.9998 27.0476L27.0457 22.0016L27.0474 21.9981H27.0422Z" fill="#F8F8F8"/>
</svg>
