<svg width="25" height="24" viewBox="0 0 25 24" fill="none" xmlns="http://www.w3.org/2000/svg">
<path d="M8.32172 10.0848L12.9826 5.424L17.6463 10.0867L20.3584 7.37472L12.9826 0L5.60968 7.3728L8.32172 10.0848ZM0.982422 12L3.69446 9.288L6.40649 12L3.69446 14.712L0.982422 12ZM8.32172 13.9152L12.9826 18.576L17.6454 13.9133L20.3593 16.6234L20.3584 16.6253L12.9826 24L5.60968 16.6272L5.60584 16.6234L8.32172 13.9152ZM19.5587 12.001L22.2707 9.28896L24.9827 12.001L22.2707 14.713L19.5587 12.001Z" fill="#F3BA2F"/>
<path d="M15.7322 11.9989H15.7332L12.9818 9.24658L10.9476 11.2799L10.7143 11.5132L10.2324 11.9951L10.2285 11.9989L10.2324 12.0028L12.9818 14.7532L15.7341 12.0008L15.7351 11.9989H15.7322Z" fill="#F3BA2F"/>
</svg>
