<svg width="24" height="22" viewBox="0 0 24 22" fill="none" xmlns="http://www.w3.org/2000/svg">
<path d="M18.1713 6.89571C17.7327 6.64506 17.1687 6.64506 16.6674 6.89571L13.1583 8.9636L10.7771 10.2795L7.33062 12.3474C6.89197 12.5981 6.32801 12.5981 5.8267 12.3474L3.13218 10.7182C2.69354 10.4675 2.38022 9.96621 2.38022 9.40224V6.26908C2.38022 5.76778 2.63088 5.26647 3.13218 4.95316L5.8267 3.38658C6.26534 3.13592 6.82931 3.13592 7.33062 3.38658L10.0251 5.01582C10.4638 5.26647 10.7771 5.76778 10.7771 6.33175V8.39963L13.1583 7.02104V4.89049C13.1583 4.38919 12.9076 3.88788 12.4063 3.57457L7.39328 0.629396C6.95464 0.378743 6.39067 0.378743 5.88936 0.629396L0.750982 3.63723C0.249676 3.88788 -0.000976562 4.38919 -0.000976562 4.89049V10.7808C-0.000976562 11.2821 0.249676 11.7834 0.750982 12.0968L5.8267 15.0419C6.26534 15.2926 6.82931 15.2926 7.33062 15.0419L10.7771 13.0367L13.1583 11.6581L16.6048 9.65289C17.0434 9.40224 17.6074 9.40224 18.1087 9.65289L20.8032 11.2195C21.2418 11.4701 21.5552 11.9714 21.5552 12.5354V15.6686C21.5552 16.1699 21.3045 16.6712 20.8032 16.9845L18.1713 18.5511C17.7327 18.8017 17.1687 18.8017 16.6674 18.5511L13.9729 16.9845C13.5343 16.7338 13.221 16.2325 13.221 15.6686V13.6633L10.8398 15.0419V17.1098C10.8398 17.6111 11.0904 18.1124 11.5917 18.4257L16.6674 21.3709C17.1061 21.6216 17.67 21.6216 18.1713 21.3709L23.2471 18.4257C23.6857 18.1751 23.999 17.6738 23.999 17.1098V11.1568C23.999 10.6555 23.7484 10.1542 23.2471 9.84088L18.1713 6.89571Z" fill="#8247E5"/>
</svg>
