<svg width="44" height="44" viewBox="0 0 44 44" fill="none" xmlns="http://www.w3.org/2000/svg">
<path d="M33.3159 14.475C32.5117 14.0154 31.4778 14.0154 30.5587 14.475L24.1253 18.2661L19.7598 20.6786L13.4413 24.4697C12.6371 24.9293 11.6031 24.9293 10.6841 24.4697L5.74413 21.4828C4.93995 21.0233 4.36554 20.1042 4.36554 19.0703V13.3262C4.36554 12.4071 4.82507 11.488 5.74413 10.9136L10.6841 8.04156C11.4883 7.58203 12.5222 7.58203 13.4413 8.04156L18.3812 11.0285C19.1854 11.488 19.7598 12.4071 19.7598 13.441V17.2322L24.1253 14.7047V10.7987C24.1253 9.87968 23.6658 8.96062 22.7467 8.38621L13.5561 2.98674C12.752 2.52721 11.718 2.52721 10.799 2.98674L1.37859 8.50109C0.45953 8.96062 0 9.87968 0 10.7987V21.5977C0 22.5167 0.45953 23.4358 1.37859 24.0102L10.6841 29.4097C11.4883 29.8692 12.5222 29.8692 13.4413 29.4097L19.7598 25.7335L24.1253 23.206L30.4439 19.5298C31.248 19.0703 32.282 19.0703 33.201 19.5298L38.141 22.4019C38.9452 22.8614 39.5196 23.7805 39.5196 24.8144V30.5585C39.5196 31.4776 39.0601 32.3966 38.141 32.971L33.3159 35.8431C32.5117 36.3026 31.4778 36.3026 30.5587 35.8431L25.6188 32.971C24.8146 32.5115 24.2402 31.5925 24.2402 30.5585V26.8823L19.8747 29.4097V33.2008C19.8747 34.1199 20.3342 35.0389 21.2533 35.6133L30.5587 41.0128C31.3629 41.4723 32.3969 41.4723 33.3159 41.0128L42.6214 35.6133C43.4256 35.1538 44 34.2348 44 33.2008V22.287C44 21.3679 43.5405 20.4489 42.6214 19.8745L33.3159 14.475Z" fill="#F8F8F8"/>
</svg>
