<svg width="24" height="24" viewBox="0 0 24 24" fill="none" xmlns="http://www.w3.org/2000/svg">
<path d="M10.6459 11.3043L10.6107 11.7221L10.5799 11.9596C10.4861 12.6544 10.2882 13.1924 9.98619 13.5736C9.68426 13.9518 9.30312 14.1306 8.84278 14.1101C8.49099 14.0984 8.23149 13.9533 8.06439 13.6747C7.89729 13.3933 7.82837 12.993 7.85772 12.4741C7.89873 11.5887 8.0761 10.8997 8.38985 10.4072C8.70646 9.91463 9.13306 9.67712 9.66959 9.69471C10.0126 9.70647 10.2677 9.84718 10.4348 10.1169C10.6048 10.3866 10.6752 10.7824 10.6459 11.3043Z" fill="#F8F8F8"/>
<path d="M15.2284 11.7837L14.1553 11.7749L14.5071 9.76512L15.7209 9.76952C15.9994 9.78122 16.209 9.87796 16.3498 10.0597C16.4934 10.2415 16.5433 10.4849 16.4993 10.7898C16.4553 11.0947 16.319 11.3366 16.0903 11.5154C15.8616 11.6942 15.5743 11.7837 15.2284 11.7837Z" fill="#F8F8F8"/>
<path fill-rule="evenodd" clip-rule="evenodd" d="M24.0005 12C24.0005 18.6274 18.6279 24 12.0005 24C5.37307 24 0.000488281 18.6274 0.000488281 12C0.000488281 5.37258 5.37307 0 12.0005 0C18.6279 0 24.0005 5.37258 24.0005 12ZM7.65978 14.8885C7.98524 15.0791 8.3605 15.1787 8.78561 15.1875C9.24887 15.1963 9.67838 15.1011 10.0742 14.9017C10.4729 14.7023 10.8203 14.4033 11.1164 14.0045C11.4126 13.6058 11.631 13.1338 11.7717 12.5885C11.9124 12.0432 11.9681 11.5125 11.9388 10.9965C11.9124 10.5332 11.8069 10.1198 11.6222 9.75632C11.4375 9.3898 11.1839 9.1098 10.8614 8.91632C10.5389 8.71987 10.1621 8.61725 9.73115 8.60845C9.26206 8.59966 8.82519 8.69788 8.42063 8.90313C8.01894 9.10837 7.66858 9.41767 7.36956 9.83108C7.07049 10.2444 6.85353 10.7238 6.7187 11.2691C6.58381 11.8144 6.53253 12.3275 6.56474 12.8084C6.59409 13.2774 6.70254 13.6938 6.8902 14.0573C7.08077 14.4179 7.3373 14.695 7.65978 14.8885ZM13.5792 15.0996L13.975 12.8435L15.1888 12.8479C15.9276 12.8479 16.5345 12.6603 17.0094 12.285C17.4873 11.9098 17.7497 11.4084 17.7966 10.781C17.8465 10.1624 17.6735 9.66101 17.2777 9.27696C16.8819 8.89285 16.338 8.70085 15.6461 8.70085L13.4033 8.69645L12.2907 15.0996H13.5792Z" fill="#F8F8F8"/>
</svg>
