<svg width="24" height="24" viewBox="0 0 24 24" fill="none" xmlns="http://www.w3.org/2000/svg">
<path d="M12.0005 24C18.6279 24 24.0005 18.6274 24.0005 12C24.0005 5.37258 18.6279 0 12.0005 0C5.37307 0 0.000488281 5.37258 0.000488281 12C0.000488281 18.6274 5.37307 24 12.0005 24Z" fill="#FF0420"/>
<path d="M8.78586 15.1875C8.36074 15.1787 7.98549 15.0791 7.66003 14.8885C7.33754 14.695 7.08101 14.4179 6.89044 14.0573C6.70278 13.6938 6.59433 13.2774 6.56498 12.8084C6.53277 12.3275 6.58406 11.8144 6.71894 11.2691C6.85378 10.7238 7.07073 10.2444 7.3698 9.83108C7.66882 9.41767 8.01918 9.10837 8.42088 8.90313C8.82543 8.69788 9.26231 8.59966 9.73139 8.60845C10.1624 8.61725 10.5391 8.71987 10.8616 8.91632C11.1841 9.1098 11.4377 9.3898 11.6224 9.75632C11.8072 10.1198 11.9127 10.5332 11.9391 10.9965C11.9684 11.5125 11.9127 12.0432 11.772 12.5885C11.6312 13.1338 11.4128 13.6058 11.1167 14.0045C10.8206 14.4033 10.4732 14.7023 10.0744 14.9017C9.67862 15.1011 9.24911 15.1963 8.78586 15.1875ZM10.611 11.7221L10.6461 11.3043C10.6754 10.7824 10.6051 10.3866 10.435 10.1169C10.2679 9.84718 10.0128 9.70647 9.66983 9.69471C9.1333 9.67712 8.7067 9.91463 8.39009 10.4072C8.07635 10.8997 7.89897 11.5887 7.85796 12.4741C7.82861 12.993 7.89754 13.3933 8.06464 13.6747C8.23174 13.9533 8.49123 14.0984 8.84302 14.1101C9.30337 14.1306 9.6845 13.9518 9.98644 13.5736C10.2884 13.1924 10.4864 12.6544 10.5801 11.9596L10.611 11.7221ZM13.9753 12.8435L13.5794 15.0996H12.2909L13.4035 8.69645L15.6464 8.70085C16.3383 8.70085 16.8822 8.89285 17.2779 9.27696C17.6737 9.66101 17.8467 10.1624 17.7969 10.781C17.75 11.4084 17.4876 11.9098 17.0097 12.285C16.5347 12.6603 15.9278 12.8479 15.189 12.8479L13.9753 12.8435ZM14.1555 11.7749L15.2286 11.7837C15.5746 11.7837 15.8619 11.6942 16.0905 11.5154C16.3193 11.3366 16.4556 11.0947 16.4995 10.7898C16.5435 10.4849 16.4937 10.2415 16.35 10.0597C16.2093 9.87797 15.9997 9.78122 15.7212 9.76951L14.5073 9.76512L14.1555 11.7749Z" fill="white"/>
</svg>
