<svg width="44" height="44" viewBox="0 0 44 44" fill="none" xmlns="http://www.w3.org/2000/svg">
<path d="M19.7491 6.79765C21.1414 5.99381 22.8568 5.99381 24.2491 6.79766L34.0385 12.4496C35.4308 13.2534 36.2885 14.739 36.2885 16.3467V27.6505C36.2885 29.2582 35.4308 30.7438 34.0385 31.5477L24.2491 37.1996C22.8568 38.0034 21.1414 38.0034 19.7491 37.1996L9.95969 31.5477C8.56738 30.7438 7.70969 29.2582 7.70969 27.6505V16.3467C7.70969 14.739 8.56738 13.2534 9.95969 12.4496L19.7491 6.79765Z" fill="#F8F8F8"/>
<path fill-rule="evenodd" clip-rule="evenodd" d="M22 43.9995C34.1503 43.9995 44 34.1498 44 21.9995C44 9.84925 34.1503 -0.000488281 22 -0.000488281C9.84974 -0.000488281 0 9.84925 0 21.9995C0 34.1498 9.84974 43.9995 22 43.9995ZM34.9552 10.8619L25.1658 5.20994C23.2062 4.0786 20.792 4.0786 18.8324 5.20994L9.04302 10.8619C7.08348 11.9932 5.87635 14.084 5.87635 16.3467V27.6505C5.87635 29.9132 7.08348 32.004 9.04302 33.1354L18.8324 38.7873C20.792 39.9186 23.2062 39.9186 25.1658 38.7873L34.9552 33.1354C36.9147 32.004 38.1219 29.9132 38.1219 27.6505V16.3467C38.1219 14.084 36.9147 11.9932 34.9552 10.8619Z" fill="#F8F8F8"/>
</svg>
