<svg width="25" height="24" viewBox="0 0 25 24" fill="none" xmlns="http://www.w3.org/2000/svg">
<path d="M10.781 3.70808C11.5405 3.26962 12.4761 3.26962 13.2356 3.70808L18.5753 6.79095C19.3347 7.22941 19.8025 8.03972 19.8025 8.91664V15.0824C19.8025 15.9593 19.3347 16.7696 18.5753 17.2081L13.2356 20.2909C12.4761 20.7294 11.5405 20.7294 10.781 20.2909L5.44134 17.2081C4.68191 16.7696 4.21407 15.9593 4.21407 15.0824V8.91664C4.21407 8.03972 4.68191 7.22941 5.44135 6.79095L10.781 3.70808Z" fill="#13B5EC"/>
<path fill-rule="evenodd" clip-rule="evenodd" d="M12.0088 24C18.6362 24 24.0088 18.6274 24.0088 12C24.0088 5.37258 18.6362 0 12.0088 0C5.38137 0 0.00878906 5.37258 0.00878906 12C0.00878906 18.6274 5.38137 24 12.0088 24ZM19.0753 5.92492L13.7356 2.84205C12.6667 2.22496 11.3499 2.22496 10.281 2.84205L4.94135 5.92492C3.8725 6.54202 3.21407 7.68245 3.21407 8.91664V15.0824C3.21407 16.3166 3.8725 17.457 4.94134 18.0741L10.281 21.157C11.3499 21.7741 12.6667 21.7741 13.7356 21.157L19.0753 18.0741C20.1441 17.457 20.8025 16.3166 20.8025 15.0824V8.91664C20.8025 7.68245 20.1441 6.54202 19.0753 5.92492Z" fill="#13B5EC"/>
</svg>
