<svg width="16" height="16" viewBox="0 0 16 16" fill="none" xmlns="http://www.w3.org/2000/svg">
<path d="M12.1149 5.26381C11.8225 5.09671 11.4465 5.09671 11.1123 5.26381L8.77285 6.6424L7.18538 7.51968L4.88773 8.89827C4.5953 9.06538 4.21932 9.06538 3.88512 8.89827L2.08877 7.81211C1.79634 7.64501 1.58747 7.31081 1.58747 6.93483V4.84606C1.58747 4.51185 1.75457 4.17765 2.08877 3.96877L3.88512 2.92438C4.17755 2.75728 4.55352 2.75728 4.88773 2.92438L6.68407 4.01055C6.9765 4.17765 7.18538 4.51185 7.18538 4.88783V6.26642L8.77285 5.34736V3.92699C8.77285 3.59279 8.60574 3.25859 8.27154 3.04971L4.9295 1.08626C4.63708 0.919162 4.2611 0.919162 3.92689 1.08626L0.501306 3.09149C0.167102 3.25859 0 3.59279 0 3.92699V7.85389C0 8.18809 0.167102 8.52229 0.501306 8.73117L3.88512 10.6946C4.17755 10.8617 4.55352 10.8617 4.88773 10.6946L7.18538 9.3578L8.77285 8.43874L11.0705 7.10193C11.3629 6.93483 11.7389 6.93483 12.0731 7.10193L13.8695 8.14632C14.1619 8.31342 14.3708 8.64762 14.3708 9.0236V11.1124C14.3708 11.4466 14.2037 11.7808 13.8695 11.9897L12.1149 13.034C11.8225 13.2011 11.4465 13.2011 11.1123 13.034L9.31593 11.9897C9.0235 11.8226 8.81462 11.4884 8.81462 11.1124V9.77556L7.22715 10.6946V12.0732C7.22715 12.4074 7.39426 12.7416 7.72846 12.9505L11.1123 14.9139C11.4047 15.081 11.7807 15.081 12.1149 14.9139L15.4987 12.9505C15.7911 12.7834 16 12.4492 16 12.0732V8.10454C16 7.77034 15.8329 7.43613 15.4987 7.22726L12.1149 5.26381Z" fill="#F8F8F8"/>
</svg>
