<svg width="32" height="32" viewBox="0 0 32 32" fill="none" xmlns="http://www.w3.org/2000/svg">
<path d="M24.0074 19.8586C24.0074 14.1757 13.5304 14.5468 13.5304 11.1157C13.5304 9.45491 15.1193 8.6438 16.9623 8.6438C20.0615 8.6438 20.6134 10.6349 22.0171 10.6349C23.0112 10.6349 23.4897 10.009 23.4897 9.30751C23.4897 7.67713 21.0178 6.44306 18.6474 6.01565V4.44232C18.6474 3.97102 18.4602 3.51902 18.127 3.18577C17.7937 2.85251 17.3417 2.66528 16.8704 2.66528C16.3991 2.66528 15.9471 2.85251 15.6139 3.18577C15.2806 3.51902 15.0934 3.97102 15.0934 4.44232V6.07121C12.5089 6.65936 10.286 8.45195 10.286 11.3742C10.286 16.8327 20.7615 16.612 20.7615 20.446C20.7615 21.7742 19.3237 23.1023 16.9623 23.1023C13.4208 23.1023 12.2408 20.7053 10.8023 20.7053C10.1015 20.7053 9.47485 21.2949 9.47485 22.1838C9.47485 23.5957 11.8415 25.2949 15.0956 25.7697L15.0934 25.7808V27.5564C15.1067 28.019 15.2999 28.4582 15.6318 28.7807C15.9638 29.1032 16.4083 29.2836 16.8712 29.2836C17.334 29.2836 17.7785 29.1032 18.1105 28.7807C18.4424 28.4582 18.6356 28.019 18.6489 27.5564V25.7808C18.6489 25.7601 18.6386 25.7438 18.6371 25.7253C21.5652 25.1786 24.0074 23.2697 24.0074 19.8586V19.8586Z" fill="#F8F8F8"/>
</svg>
