<svg width="32" height="32" viewBox="0 0 32 32" fill="none" xmlns="http://www.w3.org/2000/svg">
<g opacity="0.5">
<path d="M26.0917 22.2586C26.4128 22.446 26.5176 22.8624 26.305 23.1674C24.2549 26.1087 20.9778 28.1311 17.2155 28.4926C16.8416 28.5286 16.5283 28.2268 16.5283 27.8512V24.4589C16.5283 24.2239 16.6531 24.0066 16.8561 23.8882L22.5378 20.5739C22.7435 20.4539 22.9978 20.4539 23.2035 20.5739L26.0917 22.2586Z" fill="#F8F8F8"/>
<path d="M26.5322 10.5372C26.8577 10.3474 27.2774 10.4672 27.4333 10.8102C28.152 12.3916 28.5523 14.1483 28.5523 15.9985C28.5523 17.8486 28.152 19.6053 27.4333 21.1867C27.2774 21.5297 26.8577 21.6495 26.5322 21.4597L23.7269 19.8233C23.524 19.7049 23.3992 19.4876 23.3992 19.2526V12.7443C23.3992 12.5093 23.524 12.292 23.7269 12.1736L26.5322 10.5372Z" fill="#F8F8F8"/>
</g>
<g opacity="0.88">
<path d="M15.4713 4.14553C15.4713 3.76993 15.1581 3.4682 14.7842 3.50413C11.0219 3.8657 7.74476 5.88806 5.69468 8.82937C5.48211 9.13436 5.58684 9.55081 5.90796 9.73813L8.79611 11.4229C9.00181 11.5429 9.25618 11.5429 9.46188 11.4229L15.1436 8.10857C15.3465 7.99017 15.4713 7.77288 15.4713 7.5379V4.14553Z" fill="#F8F8F8"/>
<path d="M5.46744 21.4594C5.14193 21.6493 4.72218 21.5295 4.56626 21.1864C3.84756 19.6051 3.44727 17.8484 3.44727 15.9982C3.44727 14.148 3.84756 12.3913 4.56626 10.81C4.72218 10.4669 5.14193 10.3471 5.46743 10.537L8.27265 12.1734C8.47561 12.2918 8.60042 12.5091 8.60042 12.744V19.2524C8.60042 19.4874 8.47561 19.7046 8.27265 19.823L5.46744 21.4594Z" fill="#F8F8F8"/>
<path d="M16.5283 4.14553C16.5283 3.76993 16.8416 3.4682 17.2155 3.50413C20.9778 3.8657 24.2549 5.88805 26.305 8.82936C26.5176 9.13436 26.4128 9.5508 26.0917 9.73813L23.2035 11.4229C22.9978 11.5429 22.7435 11.5429 22.5378 11.4229L16.8561 8.10857C16.6531 7.99017 16.5283 7.77288 16.5283 7.5379V4.14553Z" fill="#F8F8F8"/>
</g>
<path d="M15.3343 9.05353C15.7457 8.81354 16.2544 8.81354 16.6658 9.05353L21.6869 11.9825C22.0928 12.2193 22.3424 12.6538 22.3424 13.1238V18.8732C22.3424 19.3432 22.0928 19.7777 21.6869 20.0145L16.6658 22.9435C16.2544 23.1834 15.7457 23.1834 15.3343 22.9435L10.3133 20.0145C9.90733 19.7777 9.65771 19.3432 9.65771 18.8732V13.1238C9.65771 12.6538 9.90733 12.2193 10.3133 11.9825L15.3343 9.05353Z" fill="#F8F8F8"/>
<path fill-rule="evenodd" clip-rule="evenodd" d="M1.33337 15.9985C1.33337 18.1564 1.80076 20.2109 2.64183 22.0614C3.03758 22.9322 3.80534 23.4641 4.63107 23.6163C4.66455 23.6225 4.69258 23.6298 4.71495 23.6372C4.7259 23.6408 4.73477 23.6441 4.74171 23.647C7.01149 26.9822 10.7298 29.2607 14.9979 29.5717C15.0015 29.5745 15.0057 29.5778 15.0104 29.5818C15.0134 29.5843 15.0165 29.587 15.0198 29.59C15.0374 29.6056 15.0578 29.6263 15.0798 29.6521C15.6245 30.2904 16.468 30.6886 17.418 30.5973C21.8197 30.1743 25.6478 27.8082 28.0396 24.3766C28.2496 24.0753 28.3914 23.7472 28.4669 23.4093C28.5059 23.2348 28.6134 23.0461 28.7442 22.9229C28.9964 22.6855 29.2062 22.3959 29.3583 22.0614C30.1993 20.2109 30.6667 18.1564 30.6667 15.9985C30.6667 13.8406 30.1993 11.7861 29.3583 9.93553C29.2062 9.60107 28.9964 9.3115 28.7442 9.07406C28.6134 8.9509 28.5059 8.76222 28.4669 8.5877C28.3914 8.24979 28.2496 7.92162 28.0396 7.62042C25.6478 4.18873 21.8197 1.82264 17.418 1.39962C17.0389 1.36319 16.6707 1.40478 16.3291 1.51311C16.1313 1.57582 15.8688 1.57582 15.671 1.51311C15.3294 1.40478 14.9612 1.36319 14.5821 1.39962C10.1804 1.82264 6.35232 4.18873 3.96046 7.62042C3.75052 7.92162 3.60868 8.24978 3.53314 8.5877C3.49413 8.76222 3.3867 8.9509 3.2559 9.07406C3.00371 9.3115 2.79384 9.60107 2.64183 9.93553C1.80076 11.7861 1.33337 13.8406 1.33337 15.9985ZM27.1724 8.22485C24.9514 5.03832 21.3988 2.84412 17.3168 2.45183C17.0801 2.42908 16.855 2.45527 16.6485 2.52073C16.2429 2.64936 15.7572 2.64936 15.3515 2.52073C15.1451 2.45527 14.92 2.42908 14.6832 2.45183C10.6013 2.84412 7.04864 5.03832 4.82766 8.22485C4.69658 8.41291 4.61041 8.61401 4.56474 8.81829C4.47952 9.19954 4.26495 9.57586 3.98052 9.84366C3.82818 9.9871 3.69915 10.1639 3.60415 10.3729C2.82427 12.0888 2.39043 13.9944 2.39043 15.9985C2.39043 18.0025 2.82427 19.9081 3.60415 21.6241C3.8473 22.159 4.31339 22.4829 4.82274 22.5768C5.12237 22.6321 5.4193 22.7618 5.5898 23.0143C7.69055 26.1254 11.151 28.246 15.1206 28.5207C15.4248 28.5418 15.686 28.7341 15.8839 28.966C16.22 29.3598 16.7332 29.6012 17.3168 29.5451C21.3988 29.1528 24.9514 26.9586 27.1724 23.7721C27.3035 23.5841 27.3897 23.383 27.4353 23.1787C27.5206 22.7974 27.7351 22.4211 28.0196 22.1533C28.1719 22.0099 28.3009 21.8331 28.3959 21.6241C29.1758 19.9081 29.6096 18.0025 29.6096 15.9985C29.6096 13.9944 29.1758 12.0888 28.3959 10.3729C28.3009 10.1639 28.1719 9.9871 28.0196 9.84366C27.7351 9.57586 27.5206 9.19954 27.4353 8.81829C27.3897 8.61401 27.3035 8.41291 27.1724 8.22485Z" fill="#F8F8F8"/>
</svg>
