<svg width="32" height="32" viewBox="0 0 32 32" fill="none" xmlns="http://www.w3.org/2000/svg">
<path fill-rule="evenodd" clip-rule="evenodd" d="M16 2.66675C8.63616 2.66675 2.66663 8.63629 2.66663 16.0001C2.66663 23.3639 8.63616 29.3334 16 29.3334C23.3638 29.3334 29.3333 23.3639 29.3333 16.0001C29.3333 8.63629 23.3638 2.66675 16 2.66675ZM12.3276 5.46213C13.4776 5.06141 14.7134 4.84362 16 4.84362C16.9443 4.84362 17.8613 4.96095 18.737 5.18184V7.3829L15.4617 9.27393L12.3276 7.46448V5.46213ZM10.1508 6.49807C8.89013 7.27573 7.79592 8.29725 6.93391 9.49683C7.42012 9.82387 7.71523 10.3731 7.71523 10.9643V14.8031L11.2926 16.8685C11.8398 17.1844 12.1769 17.7683 12.1769 18.4002V22.572C12.1769 23.2039 11.8398 23.7878 11.2926 24.1038L9.55438 25.1073C10.9372 26.0878 12.5531 26.7612 14.3026 27.0283V25.8362C14.3026 25.2043 14.6397 24.6204 15.187 24.3044L18.7998 22.2185C19.3471 21.9026 20.0213 21.9026 20.5685 22.2185L23.7305 24.0441C25.2799 22.5546 26.4 20.6218 26.8867 18.4496L23.991 16.7778L20.5685 18.7537C20.0213 19.0697 19.3471 19.0697 18.7998 18.7537L15.187 16.6678C14.6397 16.3519 14.3026 15.768 14.3026 15.1361V11.1184L11.0351 9.23188C10.4879 8.91593 10.1508 8.33203 10.1508 7.70013V6.49807ZM27.1561 16.0915C27.1563 16.0611 27.1564 16.0306 27.1564 16.0001C27.1564 14.1319 26.6972 12.3709 25.8856 10.8239L25.093 11.2815V14.9004L27.1561 16.0915ZM24.6435 8.94581C23.6391 7.71655 22.3776 6.70553 20.9412 5.99475V7.46448L24.0752 9.27393L24.6435 8.94581ZM21.8747 25.4863L19.6842 24.2216L16.4795 26.0718V27.1464C18.454 27.0629 20.2957 26.4662 21.8747 25.4863ZM7.82505 23.5921L10 22.3364V18.6359L6.79534 16.7856L4.99229 17.8266C5.35584 20.0341 6.36738 22.0232 7.82505 23.5921ZM4.86581 15.2887L5.53836 14.9004V12.1156C5.16762 13.1137 4.93563 14.1792 4.86581 15.2887ZM19.7548 9.39049L16.4795 11.2815V14.9004L19.6842 16.7507L22.8889 14.9004V11.1999L19.7548 9.39049Z" fill="#F8F8F8"/>
</svg>
