<svg width="32" height="32" viewBox="0 0 32 32" fill="none" xmlns="http://www.w3.org/2000/svg">
<path fill-rule="evenodd" clip-rule="evenodd" d="M16 4.84362C9.83842 4.84362 4.8435 9.83854 4.8435 16.0001C4.8435 22.1616 9.83842 27.1565 16 27.1565C22.1615 27.1565 27.1564 22.1616 27.1564 16.0001C27.1564 9.83854 22.1615 4.84362 16 4.84362ZM2.66663 16.0001C2.66663 8.63629 8.63616 2.66675 16 2.66675C23.3638 2.66675 29.3333 8.63629 29.3333 16.0001C29.3333 23.3639 23.3638 29.3334 16 29.3334C8.63616 29.3334 2.66663 23.3639 2.66663 16.0001Z" fill="#F8F8F8"/>
<path d="M12.2377 23.9942H19.744C19.9952 24.0141 20.2478 23.9823 20.4862 23.9008C20.7246 23.8192 20.9438 23.6897 21.1302 23.5201C21.4683 23.1058 21.6322 22.5762 21.5872 22.0433V16.3693C21.6311 15.84 21.4675 15.3144 21.1309 14.9035C20.9445 14.7339 20.7253 14.6044 20.4869 14.5228C20.2485 14.4413 19.9959 14.4095 19.7447 14.4294H12.2377C11.9873 14.4101 11.7355 14.4422 11.4978 14.5238C11.2602 14.6053 11.0418 14.7345 10.8559 14.9035C10.5162 15.3129 10.3503 15.8391 10.3938 16.3693V22.0433C10.3494 22.5767 10.5152 23.1062 10.8559 23.519C11.0417 23.6882 11.2601 23.8176 11.4977 23.8993C11.7354 23.9811 11.9872 24.0133 12.2377 23.9942ZM12.4005 22.6475C12.326 22.6532 12.2511 22.6439 12.1803 22.6201C12.1095 22.5963 12.0442 22.5585 11.9882 22.5089C11.8839 22.3787 11.8345 22.2129 11.8507 22.0469V16.3696C11.8423 16.288 11.8502 16.2055 11.8738 16.1269C11.8974 16.0482 11.9363 15.975 11.9882 15.9115C12.1026 15.8141 12.2508 15.766 12.4005 15.7775H19.5976C19.6698 15.772 19.7425 15.781 19.8112 15.804C19.88 15.827 19.9434 15.8636 19.9978 15.9115C20.1 16.0411 20.148 16.2054 20.1314 16.3696V22.0433C20.1471 22.2087 20.0993 22.3739 19.9978 22.5054C19.9441 22.5546 19.8808 22.5923 19.812 22.6161C19.7432 22.64 19.6702 22.6494 19.5976 22.644L12.4005 22.6475ZM11.835 15.1025H13.2703V12.3757C13.2516 11.8032 13.3805 11.2356 13.6445 10.7272C13.8727 10.3018 14.2181 9.95075 14.6397 9.7157C15.0564 9.49165 15.5222 9.37438 15.9953 9.37438C16.4684 9.37438 16.9342 9.49165 17.3509 9.7157C17.7702 9.9521 18.1135 10.3029 18.3408 10.7272C18.6039 11.2358 18.7318 11.8035 18.7122 12.3757V15.1036H20.1488V12.5349C20.163 11.8537 20.0467 11.1761 19.8062 10.5385C19.6102 10.0223 19.3065 9.55378 18.9151 9.16422C18.5238 8.77467 18.0539 8.47303 17.5368 8.27943C16.5409 7.90686 15.444 7.90686 14.4481 8.27943C13.9516 8.4665 13.4986 8.75302 13.1167 9.12143C12.7076 9.52156 12.3889 10.0046 12.1819 10.5382C11.9391 11.1752 11.8216 11.853 11.8358 12.5346L11.835 15.1025Z" fill="#F8F8F8"/>
<path d="M12.4005 22.6475C12.326 22.6532 12.2511 22.6439 12.1803 22.6201C12.1095 22.5963 12.0442 22.5585 11.9882 22.5089C11.8839 22.3787 11.8345 22.2129 11.8507 22.0469V16.3696C11.8423 16.288 11.8502 16.2055 11.8738 16.1269C11.8974 16.0482 11.9363 15.975 11.9882 15.9115C12.1026 15.8141 12.2508 15.766 12.4005 15.7775H19.5976C19.6698 15.772 19.7425 15.781 19.8112 15.804C19.88 15.827 19.9434 15.8636 19.9978 15.9115C20.1 16.0411 20.148 16.2054 20.1314 16.3696V22.0433C20.1471 22.2087 20.0993 22.3739 19.9978 22.5054C19.9441 22.5546 19.8808 22.5923 19.812 22.6161C19.7432 22.64 19.6702 22.6494 19.5976 22.644L12.4005 22.6475Z" fill="#F8F8F8"/>
</svg>
