<svg width="58" height="63" viewBox="0 0 58 63" fill="none" xmlns="http://www.w3.org/2000/svg">
<g filter="url(#filter0_d_5307_912)">
<path d="M23.1667 3.36788C26.7763 1.28383 31.2237 1.28383 34.8333 3.36788L47.4154 10.6321C51.0251 12.7162 53.2487 16.5677 53.2487 20.7358V35.2642C53.2487 39.4323 51.0251 43.2838 47.4154 45.3679L34.8333 52.6321C31.2237 54.7162 26.7763 54.7162 23.1667 52.6321L10.5846 45.3679C6.97494 43.2838 4.75129 39.4323 4.75129 35.2642V20.7358C4.75129 16.5677 6.97494 12.7162 10.5846 10.6321L23.1667 3.36788Z" fill="#25174E"/>
<mask id="path-2-inside-1_5307_912" fill="white">
<path d="M23.1666 3.36772C26.7763 1.28368 31.2236 1.28368 34.8333 3.36772L47.4153 10.632C51.025 12.716 53.2486 16.5675 53.2486 20.7356V35.2641C53.2486 39.4322 51.025 43.2837 47.4153 45.3677L34.8333 52.632C31.2236 54.716 26.7763 54.716 23.1666 52.632L10.5846 45.3677C6.97487 43.2837 4.75122 39.4322 4.75122 35.2641V20.7356C4.75122 16.5675 6.97487 12.716 10.5846 10.632L23.1666 3.36772Z"/>
</mask>
<path d="M19.6669 17.6659C19.1146 17.6659 18.6669 18.1136 18.6669 18.6659C18.6669 19.2181 19.1146 19.6659 19.6669 19.6659V17.6659ZM38.3336 19.6659C38.8859 19.6659 39.3336 19.2181 39.3336 18.6659C39.3336 18.1136 38.8859 17.6659 38.3336 17.6659V19.6659ZM19.6669 26.9998C19.1146 26.9998 18.6669 27.4476 18.6669 27.9998C18.6669 28.5521 19.1146 28.9998 19.6669 28.9998V26.9998ZM38.3336 28.9998C38.8859 28.9998 39.3336 28.5521 39.3336 27.9998C39.3336 27.4476 38.8859 26.9998 38.3336 26.9998V28.9998ZM19.6669 36.3319C19.1146 36.3319 18.6669 36.7796 18.6669 37.3319C18.6669 37.8842 19.1146 38.3319 19.6669 38.3319V36.3319ZM38.3336 38.3319C38.8859 38.3319 39.3336 37.8842 39.3336 37.3319C39.3336 36.7796 38.8859 36.3319 38.3336 36.3319V38.3319ZM19.6669 19.6659H38.3336V17.6659H19.6669V19.6659ZM19.6669 28.9998H38.3336V26.9998H19.6669V28.9998ZM19.6669 38.3319H38.3336V36.3319H19.6669V38.3319ZM23.1666 3.36772L22.1666 1.63567V1.63567L23.1666 3.36772ZM34.8333 3.36772L33.8333 5.09978V5.09978L34.8333 3.36772ZM47.4153 10.632L48.4153 8.89992V8.89992L47.4153 10.632ZM47.4153 45.3677L48.4153 47.0998L47.4153 45.3677ZM34.8333 52.632L33.8333 50.8999L34.8333 52.632ZM23.1666 52.632L24.1666 50.8999L23.1666 52.632ZM10.5846 45.3677L9.58455 47.0998L10.5846 45.3677ZM10.5846 10.632L11.5846 12.364L10.5846 10.632ZM24.1666 5.09978C27.1575 3.37299 30.8424 3.37299 33.8333 5.09978L35.8333 1.63567C31.6048 -0.805641 26.3951 -0.805641 22.1666 1.63567L24.1666 5.09978ZM33.8333 5.09978L46.4153 12.364L48.4153 8.89992L35.8333 1.63567L33.8333 5.09978ZM46.4153 12.364C49.4062 14.0908 51.2486 17.282 51.2486 20.7356H55.2486C55.2486 15.853 52.6438 11.3412 48.4153 8.89992L46.4153 12.364ZM51.2486 20.7356V35.2641H55.2486V20.7356H51.2486ZM51.2486 35.2641C51.2486 38.7177 49.4062 41.9089 46.4153 43.6357L48.4153 47.0998C52.6438 44.6585 55.2486 40.1467 55.2486 35.2641H51.2486ZM46.4153 43.6357L33.8333 50.8999L35.8333 54.364L48.4153 47.0998L46.4153 43.6357ZM33.8333 50.8999C30.8424 52.6267 27.1575 52.6267 24.1666 50.8999L22.1666 54.364C26.3951 56.8053 31.6048 56.8053 35.8333 54.364L33.8333 50.8999ZM24.1666 50.8999L11.5846 43.6357L9.58455 47.0998L22.1666 54.364L24.1666 50.8999ZM11.5846 43.6357C8.59368 41.9089 6.75122 38.7177 6.75122 35.2641H2.75122C2.75122 40.1467 5.35607 44.6585 9.58455 47.0998L11.5846 43.6357ZM6.75122 35.2641V20.7356H2.75122V35.2641H6.75122ZM6.75122 20.7356C6.75122 17.282 8.59368 14.0908 11.5846 12.364L9.58455 8.89992C5.35607 11.3412 2.75122 15.853 2.75122 20.7356H6.75122ZM11.5846 12.364L24.1666 5.09978L22.1666 1.63567L9.58455 8.89992L11.5846 12.364Z" fill="url(#paint0_linear_5307_912)" mask="url(#path-2-inside-1_5307_912)"/>
</g>
<defs>
<filter id="filter0_d_5307_912" x="0.751221" y="1.80469" width="56.4976" height="60.3906" filterUnits="userSpaceOnUse" color-interpolation-filters="sRGB">
<feFlood flood-opacity="0" result="BackgroundImageFix"/>
<feColorMatrix in="SourceAlpha" type="matrix" values="0 0 0 0 0 0 0 0 0 0 0 0 0 0 0 0 0 0 127 0" result="hardAlpha"/>
<feOffset dy="4"/>
<feGaussianBlur stdDeviation="2"/>
<feComposite in2="hardAlpha" operator="out"/>
<feColorMatrix type="matrix" values="0 0 0 0 0 0 0 0 0 0 0 0 0 0 0 0 0 0 0.25 0"/>
<feBlend mode="normal" in2="BackgroundImageFix" result="effect1_dropShadow_5307_912"/>
<feBlend mode="normal" in="SourceGraphic" in2="effect1_dropShadow_5307_912" result="shape"/>
</filter>
<linearGradient id="paint0_linear_5307_912" x1="4.75122" y1="1.80469" x2="56.9858" y2="50.1579" gradientUnits="userSpaceOnUse">
<stop stop-color="#2AD0CA"/>
<stop offset="0.0918579" stop-color="#7EE19B"/>
<stop offset="0.200521" stop-color="#E1F664"/>
<stop offset="0.398438" stop-color="#FEB0FE"/>
<stop offset="0.622396" stop-color="#ABB3FC"/>
<stop offset="0.809896" stop-color="#5DF7A4"/>
<stop offset="1" stop-color="#58C4F6"/>
</linearGradient>
</defs>
</svg>
