<svg width="16" height="28" viewBox="0 0 16 28" fill="none" xmlns="http://www.w3.org/2000/svg">
<path d="M15.0074 17.8586C15.0074 12.1757 4.53041 12.5468 4.53041 9.11565C4.53041 7.45491 6.1193 6.6438 7.96226 6.6438C11.0615 6.6438 11.6134 8.63491 13.0171 8.63491C14.0112 8.63491 14.4897 8.00899 14.4897 7.30751C14.4897 5.67713 12.0178 4.44306 9.64745 4.01565V2.44232C9.64745 1.97102 9.46022 1.51902 9.12697 1.18577C8.79371 0.852506 8.34171 0.665283 7.87041 0.665283C7.39911 0.665283 6.94711 0.852506 6.61385 1.18577C6.2806 1.51902 6.09337 1.97102 6.09337 2.44232V4.07121C3.50893 4.65936 1.28596 6.45195 1.28596 9.37417C1.28596 14.8327 11.7615 14.612 11.7615 18.446C11.7615 19.7742 10.3237 21.1023 7.96226 21.1023C4.42078 21.1023 3.24078 18.7053 1.80226 18.7053C1.10152 18.7053 0.474854 19.2949 0.474854 20.1838C0.474854 21.5957 2.84152 23.2949 6.09559 23.7697L6.09337 23.7808V25.5564C6.10673 26.019 6.29989 26.4582 6.63183 26.7807C6.96377 27.1032 7.40835 27.2836 7.87115 27.2836C8.33396 27.2836 8.77853 27.1032 9.11047 26.7807C9.44242 26.4582 9.63557 26.019 9.64893 25.5564V23.7808C9.64893 23.7601 9.63856 23.7438 9.63708 23.7253C12.5652 23.1786 15.0074 21.2697 15.0074 17.8586Z" fill="url(#paint0_linear_5348_96)"/>
<defs>
<linearGradient id="paint0_linear_5348_96" x1="0.474854" y1="0.665283" x2="22.8658" y2="12.8899" gradientUnits="userSpaceOnUse">
<stop stop-color="#2AD0CA"/>
<stop offset="0.0918579" stop-color="#7EE19B"/>
<stop offset="0.200521" stop-color="#E1F664"/>
<stop offset="0.398438" stop-color="#FEB0FE"/>
<stop offset="0.622396" stop-color="#ABB3FC"/>
<stop offset="0.809896" stop-color="#5DF7A4"/>
<stop offset="1" stop-color="#58C4F6"/>
</linearGradient>
</defs>
</svg>
