<svg width="24" height="24" viewBox="0 0 24 24" fill="none" xmlns="http://www.w3.org/2000/svg">
<path d="M2.31197 16.4667L7.51468 21.6667C7.7259 21.8778 8.01494 22 8.30398 22L15.6856 22C15.9746 22 16.2637 21.8778 16.4638 21.6778L21.6776 16.4667C21.8777 16.2667 22 15.9778 22 15.6889V8.32222C22 8.02222 21.8777 7.74445 21.6776 7.53333L16.4749 2.33333C16.2637 2.12222 15.9746 2 15.6856 2L8.3151 2C8.01494 2 7.73702 2.12222 7.5258 2.32222L2.32309 7.52222C2.21956 7.62568 2.13772 7.74874 2.08236 7.8842C2.027 8.01966 1.99924 8.16479 2.0007 8.31111L2.0007 15.6889C1.98958 15.9778 2.11187 16.2667 2.31197 16.4667ZM4.21296 8.77778L8.77089 4.22222L15.2187 4.22222L19.7766 8.77778V15.2222L15.2187 19.7778H8.77089L4.21296 15.2222L4.21296 8.77778Z" fill="url(#paint0_linear_4479_628)"/>
<path d="M11.638 13.9311C11.3132 13.9311 11.0499 13.6678 11.0499 13.343C11.0499 12.9828 11.098 12.6649 11.1941 12.3894C11.2903 12.1086 11.4447 11.8437 11.6573 11.5947C11.8698 11.3404 12.1508 11.0808 12.5 10.8159C12.8138 10.5828 13.0644 10.3735 13.2516 10.1881C13.444 10.0027 13.5831 9.81987 13.6692 9.63974C13.7603 9.45431 13.8059 9.24504 13.8059 9.01192C13.8059 8.66755 13.6844 8.4053 13.4414 8.22517C13.1985 8.04503 12.8594 7.95497 12.4241 7.95497C11.9888 7.95497 11.556 8.02649 11.1258 8.16954C11.0039 8.21054 10.8814 8.25525 10.7583 8.30366C10.2378 8.5083 9.62719 8.31241 9.38702 7.80732C9.16808 7.34686 9.33565 6.78899 9.80369 6.58677C10.0745 6.46975 10.3558 6.36688 10.6475 6.27815C11.2397 6.09272 11.8876 6 12.5911 6C13.6743 6 14.5119 6.27285 15.1041 6.81854C15.7014 7.35894 16 8.04768 16 8.88477C16 9.3298 15.9317 9.71656 15.795 10.045C15.6634 10.3682 15.461 10.6702 15.1876 10.951C14.9194 11.2265 14.5828 11.5179 14.1779 11.8252C13.8742 12.0583 13.6414 12.2543 13.4794 12.4132C13.3174 12.5722 13.2061 12.7311 13.1453 12.8901C13.0897 13.0437 13.0618 13.2318 13.0618 13.4543C13.0618 13.7176 12.8483 13.9311 12.585 13.9311H11.638ZM10.8069 16.649C10.8069 16.151 10.936 15.8013 11.1941 15.6C11.4573 15.3987 11.7737 15.298 12.1432 15.298C12.5025 15.298 12.8113 15.3987 13.0694 15.6C13.3326 15.8013 13.4642 16.151 13.4642 16.649C13.4642 17.1258 13.3326 17.4702 13.0694 17.6821C12.8113 17.894 12.5025 18 12.1432 18C11.7737 18 11.4573 17.894 11.1941 17.6821C10.936 17.4702 10.8069 17.1258 10.8069 16.649Z" fill="url(#paint1_linear_4479_628)"/>
<defs>
<linearGradient id="paint0_linear_4479_628" x1="12" y1="2" x2="12" y2="22" gradientUnits="userSpaceOnUse">
<stop stop-color="#EA378B"/>
<stop offset="1" stop-color="#F6E74E"/>
</linearGradient>
<linearGradient id="paint1_linear_4479_628" x1="12" y1="2" x2="12" y2="22" gradientUnits="userSpaceOnUse">
<stop stop-color="#EA378B"/>
<stop offset="1" stop-color="#F6E74E"/>
</linearGradient>
</defs>
</svg>
