<svg width="24" height="24" viewBox="0 0 24 24" fill="none" xmlns="http://www.w3.org/2000/svg">
<path d="M7.00039 1.90039C6.17822 1.90039 5.38972 2.227 4.80836 2.80836C4.227 3.38972 3.90039 4.17822 3.90039 5.00039V19.0004C3.90039 19.8226 4.227 20.6111 4.80836 21.1924C5.38972 21.7738 6.17822 22.1004 7.00039 22.1004H15.0004C15.6079 22.1004 16.1004 21.6079 16.1004 21.0004C16.1004 20.3929 15.6079 19.9004 15.0004 19.9004H7.00039C6.7617 19.9004 6.53278 19.8056 6.36399 19.6368C6.19521 19.468 6.10039 19.2391 6.10039 19.0004V5.00039C6.10039 4.7617 6.19521 4.53278 6.36399 4.36399C6.53278 4.19521 6.7617 4.10039 7.00039 4.10039H15.0004C15.6079 4.10039 16.1004 3.6079 16.1004 3.00039C16.1004 2.39288 15.6079 1.90039 15.0004 1.90039H7.00039Z" fill="#F8F8F8"/>
<path d="M15.3688 7.04559C15.2434 7.08471 15.1269 7.14817 15.026 7.23233C14.8224 7.40211 14.6945 7.6458 14.6705 7.90983C14.6465 8.17386 14.7283 8.43661 14.898 8.64033L16.8663 11.0019C16.8443 11.0009 16.8222 11.0004 16.8 11.0004H9.2C8.88174 11.0004 8.57652 11.1057 8.35147 11.2933C8.12643 11.4808 8 11.7351 8 12.0004C8 12.2656 8.12643 12.5199 8.35147 12.7075C8.57652 12.895 8.88174 13.0004 9.2 13.0004H16.8C16.8222 13.0004 16.8443 12.9999 16.8663 12.9988L14.898 15.3604C14.7283 15.5641 14.6465 15.8268 14.6705 16.0909C14.6945 16.3549 14.8224 16.5986 15.026 16.7684C15.1269 16.8525 15.2434 16.916 15.3688 16.9551C15.4942 16.9942 15.6262 17.0082 15.757 16.9963C15.8879 16.9845 16.0151 16.9469 16.1314 16.8858C16.2477 16.8247 16.3509 16.7413 16.435 16.6404L19.768 12.6404C19.9127 12.4579 19.9887 12.2315 19.9844 12.0003C19.9887 11.7692 19.9127 11.5428 19.768 11.3603L16.435 7.36033C16.3509 7.25936 16.2477 7.17595 16.1314 7.11487C16.0151 7.05379 15.8879 7.01623 15.757 7.00435C15.6262 6.99246 15.4942 7.00647 15.3688 7.04559Z" fill="#F8F8F8"/>
</svg>
