<svg width="35" height="40" viewBox="0 0 35 40" fill="none" xmlns="http://www.w3.org/2000/svg">
<mask id="mask0_4775_21055" style="mask-type:alpha" maskUnits="userSpaceOnUse" x="0" y="0" width="35" height="40">
<path d="M16.1529 0.36479C16.9865 -0.121597 18.0135 -0.121596 18.8472 0.36479L33.6529 9.00338C34.4865 9.48976 35 10.3886 35 11.3614V28.6386C35 29.6114 34.4865 30.5102 33.6529 30.9966L18.8472 39.6352C18.0135 40.1216 16.9865 40.1216 16.1529 39.6352L1.34715 30.9966C0.51353 30.5102 0 29.6114 0 28.6386V11.3614C0 10.3886 0.513531 9.48976 1.34715 9.00338L16.1529 0.36479Z" fill="white"/>
</mask>
<g mask="url(#mask0_4775_21055)">
<mask id="mask1_4775_21055" style="mask-type:alpha" maskUnits="userSpaceOnUse" x="-3" y="0" width="40" height="40">
<rect x="-3" width="40" height="40" fill="#25174E"/>
</mask>
<g mask="url(#mask1_4775_21055)">
<path d="M33.6668 18.8326C33.6668 23.3447 31.6745 27.3915 28.5217 30.1413C28.1563 30.46 27.7754 30.7612 27.3801 31.0437C24.924 32.7994 21.916 33.8326 18.6668 33.8326C14.2348 33.8326 10.3073 32.0634 7.55919 29.0015C6.262 27.5562 5.22762 25.8229 4.52705 23.8517C3.94083 22.1918 3.66676 20.5929 3.66676 18.8326C3.66676 17.0724 3.96993 15.3831 4.5269 13.8139C6.59133 7.99771 12.1426 3.83258 18.6668 3.83258C26.951 3.83258 33.6668 10.5483 33.6668 18.8326Z" fill="#25174E"/>
<path d="M33.6668 18.8326C33.6668 25.2759 28.4437 30.4994 22.0003 30.4994C15.557 30.4994 10.3337 25.276 10.3337 18.8327C10.3337 12.3894 15.557 7.16603 22.0003 7.16603C28.4437 7.16603 33.6668 12.3893 33.6668 18.8326Z" fill="#25174E"/>
<path d="M3.66687 13.4995H3.0002C2.26382 13.4995 1.66686 14.0965 1.66686 14.8329V22.8329C1.66686 23.5692 2.26382 24.1662 3.0002 24.1662H3.66687C3.99468 24.1662 4.27656 24.0631 4.52705 23.8517C3.94083 22.1918 3.66676 20.5929 3.66676 18.8326C3.66676 17.0724 3.96993 15.3831 4.5269 13.8139C4.29473 13.6178 3.99461 13.4995 3.66687 13.4995Z" fill="#25174E"/>
<path d="M36.4895 45.1932L32.4541 35.0923C31.7888 33.4272 30.5181 32.1849 28.9962 31.5176C28.9989 31.5667 29.0003 31.6162 29.0003 31.6661V33.4994C29.0003 34.0556 28.83 34.5719 28.5388 34.9993C28.83 35.4267 29.0003 35.9431 29.0003 36.4992V51.8325C29.0003 52.6064 28.6707 53.3032 28.1442 53.7903C29.6088 54.3261 31.2685 54.3447 32.8306 53.7206C36.1958 52.3762 37.8339 48.5583 36.4895 45.1932Z" fill="#25174E"/>
<path d="M5.00028 36.4992L5.00028 51.8325C5.00028 52.2416 5.09239 52.6292 5.25701 52.9756C5.68503 53.8764 6.60326 54.4992 7.66695 54.4992L26.3336 54.4992C27.0326 54.4992 27.6687 54.2303 28.1442 53.7903C28.6707 53.3032 29.0003 52.6064 29.0003 51.8325V36.4992C29.0003 35.9431 28.83 35.4267 28.5388 34.9993C28.0588 35.7036 27.2502 36.166 26.3336 36.166L7.66695 36.1661C6.75036 36.1661 5.94177 35.7036 5.46178 34.9993C5.17054 35.4266 5.00028 35.943 5.00028 36.4992Z" fill="#25174E"/>
<path d="M-1.88709 35.327L-4.76417 45.8168C-5.72267 49.3115 -3.66669 52.9215 -0.171993 53.8801C1.7578 54.4093 3.72277 54.0194 5.25701 52.9756C5.09239 52.6292 5.00028 52.2416 5.00028 51.8325L5.00028 36.4992C5.00028 35.943 5.17054 35.4266 5.46178 34.9993C5.17054 34.5719 5.00028 34.0555 5.00028 33.4994L5.00028 31.6661C5.00028 31.2675 5.08773 30.8893 5.24449 30.5497C2.06129 30.1528 -1.01369 32.1426 -1.88709 35.327Z" fill="#25174E"/>
<path d="M5.00028 31.6661L5.00028 33.4994C5.00028 34.0555 5.17054 34.5719 5.46178 34.9993C5.94177 35.7036 6.75036 36.1661 7.66695 36.1661L26.3336 36.166C27.2502 36.166 28.0588 35.7036 28.5388 34.9993C28.83 34.5719 29.0003 34.0556 29.0003 33.4994V31.6661C29.0003 31.6162 28.9989 31.5667 28.9962 31.5176C28.9682 31.0074 28.7968 30.5355 28.5217 30.1413C28.1563 30.46 27.7754 30.7612 27.3801 31.0437C24.924 32.7994 21.916 33.8326 18.6668 33.8326C14.2348 33.8326 10.3073 32.0634 7.55919 29.0015C6.53113 29.0424 5.65275 29.6653 5.24449 30.5497C5.08773 30.8893 5.00028 31.2675 5.00028 31.6661Z" fill="#25174E"/>
<path d="M33.6668 18.8326C33.6668 10.5483 26.951 3.83258 18.6668 3.83258C12.1426 3.83258 6.59133 7.99771 4.5269 13.8139M33.6668 18.8326C33.6668 25.2759 28.4437 30.4994 22.0003 30.4994C15.557 30.4994 10.3337 25.276 10.3337 18.8327C10.3337 12.3894 15.557 7.16603 22.0003 7.16603C28.4437 7.16603 33.6668 12.3893 33.6668 18.8326ZM33.6668 18.8326C33.6668 23.3447 31.6745 27.3915 28.5217 30.1413M4.52705 23.8517C3.94083 22.1918 3.66676 20.5929 3.66676 18.8326C3.66676 17.0724 3.96993 15.3831 4.5269 13.8139M4.52705 23.8517C4.27656 24.0631 3.99468 24.1662 3.66687 24.1662H3.0002C2.26382 24.1662 1.66686 23.5692 1.66686 22.8329V14.8329C1.66686 14.0965 2.26382 13.4995 3.0002 13.4995H3.66687C3.99461 13.4995 4.29473 13.6178 4.5269 13.8139M4.52705 23.8517C5.22762 25.8229 6.262 27.5562 7.55919 29.0015M7.55919 29.0015C10.3073 32.0634 14.2348 33.8326 18.6668 33.8326C21.916 33.8326 24.924 32.7994 27.3801 31.0437C27.7754 30.7612 28.1563 30.46 28.5217 30.1413M7.55919 29.0015C6.53113 29.0424 5.65275 29.6653 5.24449 30.5497M28.5217 30.1413C28.7968 30.5355 28.9682 31.0074 28.9962 31.5176M5.24449 30.5497C5.08773 30.8893 5.00028 31.2675 5.00028 31.6661L5.00028 33.4994C5.00028 34.0555 5.17054 34.5719 5.46178 34.9993M5.24449 30.5497C2.06129 30.1528 -1.01369 32.1426 -1.88709 35.327L-4.76417 45.8168C-5.72267 49.3115 -3.66669 52.9215 -0.171993 53.8801C1.7578 54.4093 3.72277 54.0194 5.25701 52.9756M28.9962 31.5176C30.5181 32.1849 31.7888 33.4272 32.4541 35.0923L36.4895 45.1932C37.8339 48.5583 36.1958 52.3762 32.8306 53.7206C31.2685 54.3447 29.6088 54.3261 28.1442 53.7903M28.9962 31.5176C28.9989 31.5667 29.0003 31.6162 29.0003 31.6661V33.4994C29.0003 34.0556 28.83 34.5719 28.5388 34.9993M28.5388 34.9993C28.0588 35.7036 27.2502 36.166 26.3336 36.166L7.66695 36.1661C6.75036 36.1661 5.94177 35.7036 5.46178 34.9993M28.5388 34.9993C28.83 35.4267 29.0003 35.9431 29.0003 36.4992V51.8325C29.0003 52.6064 28.6707 53.3032 28.1442 53.7903M5.46178 34.9993C5.17054 35.4266 5.00028 35.943 5.00028 36.4992L5.00028 51.8325C5.00028 52.2416 5.09239 52.6292 5.25701 52.9756M5.25701 52.9756C5.68504 53.8764 6.60326 54.4992 7.66695 54.4992L26.3336 54.4992C27.0326 54.4992 27.6687 54.2303 28.1442 53.7903" stroke="url(#paint0_linear_4775_21055)"/>
</g>
</g>
<defs>
<linearGradient id="paint0_linear_4775_21055" x1="-4.99951" y1="3.83258" x2="44.7794" y2="45.0564" gradientUnits="userSpaceOnUse">
<stop stop-color="#2AD0CA"/>
<stop offset="0.0918579" stop-color="#7EE19B"/>
<stop offset="0.200521" stop-color="#E1F664"/>
<stop offset="0.398438" stop-color="#FEB0FE"/>
<stop offset="0.622396" stop-color="#ABB3FC"/>
<stop offset="0.809896" stop-color="#5DF7A4"/>
<stop offset="1" stop-color="#58C4F6"/>
</linearGradient>
</defs>
</svg>
