<svg width="24" height="24" viewBox="0 0 24 24" fill="none" xmlns="http://www.w3.org/2000/svg">
<path fill-rule="evenodd" clip-rule="evenodd" d="M12 24C18.6274 24 24 18.6274 24 12C24 5.37258 18.6274 0 12 0C5.37258 0 0 5.37258 0 12C0 18.6274 5.37258 24 12 24ZM12.442 7.38333C12.1685 7.22379 11.8303 7.22379 11.5568 7.38333L8.21899 9.3304C7.94914 9.48781 7.7832 9.77671 7.7832 10.0891V13.9112C7.7832 14.2236 7.94914 14.5125 8.21899 14.6699L11.5568 16.617C11.8303 16.7765 12.1685 16.7765 12.442 16.617L15.7798 14.6699C16.0497 14.5125 16.2156 14.2236 16.2156 13.9112V10.0891C16.2156 9.77671 16.0497 9.48781 15.7798 9.3304L12.442 7.38333Z" fill="url(#paint0_linear_2098_15196)"/>
<path opacity="0.16" fill-rule="evenodd" clip-rule="evenodd" d="M12 22.1998C12.1124 22.1998 12.2244 22.198 12.3359 22.1944L12.347 19.708C12.35 19.0399 12.7076 18.4237 13.2862 18.0897L16.5962 16.1787C17.1748 15.8446 17.8872 15.843 18.4673 16.1745L20.6436 17.418C20.7747 17.2093 20.8985 16.9955 21.0145 16.777L18.8493 15.5139C18.2723 15.1773 17.9174 14.5595 17.9174 13.8914V10.0694C17.9174 9.40129 18.2722 8.78349 18.8493 8.44687L20.9987 7.19305C20.8872 6.9848 20.7688 6.78087 20.6436 6.58157L18.4673 7.82509C17.8872 8.15654 17.1748 8.15494 16.5962 7.8209L13.2862 5.90988C12.7076 5.57584 12.35 4.95963 12.347 4.29156L12.3359 1.80523C12.2244 1.80162 12.1124 1.7998 12 1.7998C11.8875 1.7998 11.7754 1.80163 11.6638 1.80524L11.6526 4.29156C11.6496 4.95963 11.292 5.57584 10.7135 5.90988L7.40347 7.8209C6.82489 8.15494 6.11244 8.15654 5.53238 7.82509L3.35642 6.58176C3.22532 6.79048 3.10156 7.00428 2.98552 7.22281L5.15035 8.48563C5.72742 8.82226 6.08227 9.44005 6.08227 10.1081V13.9302C6.08227 14.5983 5.72742 15.2161 5.15035 15.5527L3.00126 16.8063C3.11273 17.0146 3.23121 17.2185 3.3564 17.4178L5.53238 16.1745C6.11244 15.843 6.82489 15.8446 7.40347 16.1787L10.7135 18.0897C11.292 18.4237 11.6496 19.0399 11.6526 19.708L11.6638 22.1944C11.7754 22.198 11.8875 22.1998 12 22.1998ZM20.0683 18.241C18.46 20.3171 16.0682 21.7556 13.3363 22.1131L13.347 19.7125C13.3484 19.4001 13.5156 19.1119 13.7862 18.9557L17.0962 17.0447C17.3668 16.8885 17.6999 16.8877 17.9712 17.0427L20.0683 18.241ZM22.2001 11.9998C22.2001 13.369 21.9303 14.6751 21.441 15.868L19.3532 14.6501C19.0833 14.4927 18.9174 14.2038 18.9174 13.8914V10.0694C18.9174 9.75696 19.0833 9.46806 19.3532 9.31065L21.4281 8.10028C21.9255 9.30162 22.2001 10.6187 22.2001 11.9998ZM13.3363 1.88654C16.0682 2.244 18.46 3.68249 20.0683 5.75854L17.9712 6.95684C17.6999 7.11183 17.3668 7.11108 17.0962 6.95488L13.7862 5.04385C13.5156 4.88765 13.3484 4.59949 13.347 4.28708L13.3363 1.88654ZM3.93167 5.75872C5.53988 3.68268 7.9316 2.24416 10.6634 1.8866L10.6526 4.28708C10.6512 4.59949 10.484 4.88765 10.2135 5.04385L6.90347 6.95488C6.63291 7.11108 6.29975 7.11183 6.0285 6.95684L3.93167 5.75872ZM1.80005 11.9998C1.80005 10.6307 2.06979 9.32459 2.55903 8.13173L4.64648 9.34941C4.91633 9.50682 5.08227 9.79572 5.08227 10.1081V13.9302C5.08227 14.2426 4.91633 14.5315 4.64648 14.6889L2.5719 15.8991C2.07452 14.6978 1.80005 13.3809 1.80005 11.9998ZM10.6634 22.113C7.93159 21.7555 5.53986 20.3169 3.93165 18.2409L6.0285 17.0427C6.29975 16.8877 6.63291 16.8885 6.90347 17.0447L10.2135 18.9557C10.484 19.1119 10.6512 19.4001 10.6526 19.7125L10.6634 22.113ZM12.9471 6.51905L16.2849 8.46612C16.862 8.80275 17.2168 9.42055 17.2168 10.0886V13.9107C17.2168 14.5788 16.862 15.1966 16.2849 15.5332L12.9471 17.4803C12.3622 17.8214 11.639 17.8214 11.0542 17.4803L7.71633 15.5332C7.13926 15.1966 6.78441 14.5788 6.78441 13.9107V10.0886C6.78441 9.42055 7.13926 8.80275 7.71633 8.46612L11.0542 6.51905C11.639 6.17788 12.3622 6.17789 12.9471 6.51905Z" fill="#25174E"/>
<defs>
<linearGradient id="paint0_linear_2098_15196" x1="0" y1="0" x2="24" y2="24" gradientUnits="userSpaceOnUse">
<stop stop-color="#2AD0CA"/>
<stop offset="0.0918579" stop-color="#7EE19B"/>
<stop offset="0.200521" stop-color="#E1F664"/>
<stop offset="0.398438" stop-color="#FEB0FE"/>
<stop offset="0.622396" stop-color="#ABB3FC"/>
<stop offset="0.809896" stop-color="#5DF7A4"/>
<stop offset="1" stop-color="#58C4F6"/>
</linearGradient>
</defs>
</svg>
